<svg width="56" height="55" viewBox="0 0 56 55" fill="none" xmlns="http://www.w3.org/2000/svg">
<path d="M0.305115 45.8333H23.2218V50.4167H0.305115V45.8333Z" fill="#8D24DF"/>
<path d="M0.305115 32.0833H23.2218V36.6667H0.305115V32.0833Z" fill="#8D24DF"/>
<path d="M50.7218 22.9167H4.88845C3.67287 22.9167 2.50708 22.4338 1.64754 21.5742C0.788 20.7147 0.305115 19.5489 0.305115 18.3333V4.58333C0.305115 3.36776 0.788 2.20197 1.64754 1.34243C2.50708 0.482885 3.67287 0 4.88845 0H50.7218C51.9374 0 53.1031 0.482885 53.9627 1.34243C54.8222 2.20197 55.3051 3.36776 55.3051 4.58333V18.3333C55.3051 19.5489 54.8222 20.7147 53.9627 21.5742C53.1031 22.4338 51.9374 22.9167 50.7218 22.9167ZM4.88845 4.58333V18.3333H50.7218V4.58333H4.88845Z" fill="#8D24DF"/>
<path d="M50.7218 55H36.9718C35.7562 55 34.5904 54.5171 33.7309 53.6576C32.8713 52.798 32.3884 51.6322 32.3884 50.4167V36.6667C32.3884 35.4511 32.8713 34.2853 33.7309 33.4258C34.5904 32.5662 35.7562 32.0833 36.9718 32.0833H50.7218C51.9374 32.0833 53.1031 32.5662 53.9627 33.4258C54.8222 34.2853 55.3051 35.4511 55.3051 36.6667V50.4167C55.3051 51.6322 54.8222 52.798 53.9627 53.6576C53.1031 54.5171 51.9374 55 50.7218 55ZM36.9718 36.6667V50.4167H50.7218V36.6667H36.9718Z" fill="#8D24DF"/>
</svg>
