<svg width="71" height="70" viewBox="0 0 71 70" fill="none" xmlns="http://www.w3.org/2000/svg">
<path d="M0.129883 58.3333H29.2966V64.1667H0.129883V58.3333Z" fill="#263140"/>
<path d="M0.129883 40.8333H29.2966V46.6667H0.129883V40.8333Z" fill="#263140"/>
<path d="M64.2966 29.1667H5.96322C4.41612 29.1667 2.93239 28.5521 1.83843 27.4581C0.744464 26.3642 0.129883 24.8804 0.129883 23.3333V5.83333C0.129883 4.28624 0.744464 2.80251 1.83843 1.70854C2.93239 0.614581 4.41612 0 5.96322 0H64.2966C65.8437 0 67.3274 0.614581 68.4213 1.70854C69.5153 2.80251 70.1299 4.28624 70.1299 5.83333V23.3333C70.1299 24.8804 69.5153 26.3642 68.4213 27.4581C67.3274 28.5521 65.8437 29.1667 64.2966 29.1667ZM5.96322 5.83333V23.3333H64.2966V5.83333H5.96322Z" fill="#263140"/>
<path d="M64.2966 70H46.7966C45.2495 70 43.7657 69.3854 42.6718 68.2915C41.5778 67.1975 40.9632 65.7138 40.9632 64.1667V46.6667C40.9632 45.1196 41.5778 43.6358 42.6718 42.5419C43.7657 41.4479 45.2495 40.8333 46.7966 40.8333H64.2966C65.8437 40.8333 67.3274 41.4479 68.4213 42.5419C69.5153 43.6358 70.1299 45.1196 70.1299 46.6667V64.1667C70.1299 65.7138 69.5153 67.1975 68.4213 68.2915C67.3274 69.3854 65.8437 70 64.2966 70ZM46.7966 46.6667V64.1667H64.2966V46.6667H46.7966Z" fill="#263140"/>
</svg>
