<svg width="56" height="55" viewBox="0 0 56 55" fill="none" xmlns="http://www.w3.org/2000/svg">
<path d="M0.327271 45.8333H23.2439V50.4167H0.327271V45.8333Z" fill="white"/>
<path d="M0.327271 32.0833H23.2439V36.6667H0.327271V32.0833Z" fill="white"/>
<path d="M50.7439 22.9167H4.9106C3.69503 22.9167 2.52924 22.4338 1.6697 21.5742C0.810156 20.7147 0.327271 19.5489 0.327271 18.3333V4.58333C0.327271 3.36776 0.810156 2.20197 1.6697 1.34243C2.52924 0.482885 3.69503 0 4.9106 0H50.7439C51.9595 0 53.1253 0.482885 53.9848 1.34243C54.8444 2.20197 55.3273 3.36776 55.3273 4.58333V18.3333C55.3273 19.5489 54.8444 20.7147 53.9848 21.5742C53.1253 22.4338 51.9595 22.9167 50.7439 22.9167ZM4.9106 4.58333V18.3333H50.7439V4.58333H4.9106Z" fill="white"/>
<path d="M50.7439 55H36.9939C35.7784 55 34.6126 54.5171 33.753 53.6576C32.8935 52.798 32.4106 51.6322 32.4106 50.4167V36.6667C32.4106 35.4511 32.8935 34.2853 33.753 33.4258C34.6126 32.5662 35.7784 32.0833 36.9939 32.0833H50.7439C51.9595 32.0833 53.1253 32.5662 53.9848 33.4258C54.8444 34.2853 55.3273 35.4511 55.3273 36.6667V50.4167C55.3273 51.6322 54.8444 52.798 53.9848 53.6576C53.1253 54.5171 51.9595 55 50.7439 55ZM36.9939 36.6667V50.4167H50.7439V36.6667H36.9939Z" fill="white"/>
</svg>
