<svg width="71" height="70" viewBox="0 0 71 70" fill="none" xmlns="http://www.w3.org/2000/svg">
<path d="M19.3162 12.5682L8.08443 23.8636C-2.51103 34.3955 -2.51103 51.5136 8.08443 62.0455C18.6799 72.5773 35.7344 72.6409 46.2662 62.0455L65.3572 42.9545C68.539 39.8682 68.539 34.8091 65.3572 31.6909C65.039 31.3091 64.6253 30.9591 64.1799 30.6727L65.3572 29.4318C68.539 26.3455 68.539 21.2864 65.3572 18.1682C64.9117 17.6591 64.3072 17.2136 63.7662 16.8636C64.9753 13.9364 64.4344 10.4364 62.0481 8.05C59.2799 5.28182 54.9844 4.99545 51.8662 7.15909C51.2188 6.16184 50.3574 5.32127 49.3446 4.69838C48.3319 4.0755 47.1931 3.68594 46.011 3.55799C44.8289 3.43003 43.6332 3.56688 42.5106 3.95861C41.3879 4.35035 40.3666 4.98712 39.5208 5.82273L31.5344 13.8091C31.2481 13.3636 30.8981 12.95 30.5162 12.5682C29.0147 11.1141 27.0064 10.3011 24.9162 10.3011C22.826 10.3011 20.8178 11.1141 19.3162 12.5682ZM23.8026 17.0864C24.439 16.45 25.4253 16.45 26.0617 17.0864C26.6981 17.7227 26.6981 18.7091 26.0617 19.3455L15.9435 29.4636C17.7311 31.2534 18.7351 33.6795 18.7351 36.2091C18.7351 38.7386 17.7311 41.1648 15.9435 42.9545L20.4299 47.4409C22.6168 45.2519 24.1185 42.4732 24.7514 39.4443C25.3843 36.4155 25.121 33.2679 23.9935 30.3864L44.039 10.3409C44.6753 9.70455 45.6617 9.70455 46.2662 10.3409C46.8708 10.9773 46.9344 11.9636 46.2662 12.6L31.6617 27.2364L36.1481 31.7227L55.2708 12.6C55.9072 11.9636 56.8935 11.9636 57.5299 12.6C58.1663 13.2364 58.1663 14.2227 57.5299 14.8591L38.4072 33.9818L42.8935 38.4682L58.6435 22.7182C59.2799 22.0818 60.2663 22.0818 60.9026 22.7182C61.539 23.3545 61.539 24.3409 60.9026 24.9773L42.8935 42.9545L47.3799 47.4727L58.6435 36.2091C59.2799 35.5727 60.2663 35.5727 60.9026 36.2091C61.539 36.8455 61.539 37.8318 60.9026 38.4682L41.8117 57.5909C33.7299 65.6727 20.6526 65.6727 12.5708 57.5909C4.48897 49.5091 4.48897 36.4318 12.5708 28.35L23.8026 17.0864ZM70.1299 50.9091C70.1299 61.4409 61.5708 70 51.039 70V65.2273C58.9935 65.2273 65.3572 58.8636 65.3572 50.9091H70.1299ZM0.129883 19.0909C0.129883 8.55909 8.68897 0 19.2208 0V4.77273C11.2662 4.77273 4.90261 11.1364 4.90261 19.0909H0.129883Z" fill="#263140"/>
</svg>
