<svg width="56" height="55" viewBox="0 0 56 55" fill="none" xmlns="http://www.w3.org/2000/svg">
<path d="M15.3801 9.875L6.55511 18.75C-1.76989 27.025 -1.76989 40.475 6.55511 48.75C14.8801 57.025 28.2801 57.075 36.5551 48.75L51.5551 33.75C54.0551 31.325 54.0551 27.35 51.5551 24.9C51.3051 24.6 50.9801 24.325 50.6301 24.1L51.5551 23.125C54.0551 20.7 54.0551 16.725 51.5551 14.275C51.2051 13.875 50.7301 13.525 50.3051 13.25C51.2551 10.95 50.8301 8.2 48.9551 6.325C46.7801 4.15 43.4051 3.925 40.9551 5.625C40.4464 4.84145 39.7696 4.18099 38.9738 3.69159C38.1781 3.20218 37.2833 2.8961 36.3546 2.79556C35.4258 2.69502 34.4863 2.80255 33.6042 3.11034C32.7222 3.41813 31.9197 3.91845 31.2551 4.575L24.9801 10.85C24.7551 10.5 24.4801 10.175 24.1801 9.875C23.0003 8.73253 21.4224 8.09375 19.7801 8.09375C18.1378 8.09375 16.5599 8.73253 15.3801 9.875V9.875ZM18.9051 13.425C19.4051 12.925 20.1801 12.925 20.6801 13.425C21.1801 13.925 21.1801 14.7 20.6801 15.2L12.7301 23.15C14.1346 24.5563 14.9235 26.4625 14.9235 28.45C14.9235 30.4375 14.1346 32.3437 12.7301 33.75L16.2551 37.275C17.9734 35.5551 19.1534 33.3718 19.6506 30.992C20.1479 28.6122 19.941 26.1391 19.0551 23.875L34.8051 8.125C35.3051 7.625 36.0801 7.625 36.5551 8.125C37.0301 8.625 37.0801 9.4 36.5551 9.9L25.0801 21.4L28.6051 24.925L43.6301 9.9C44.1301 9.4 44.9051 9.4 45.4051 9.9C45.9051 10.4 45.9051 11.175 45.4051 11.675L30.3801 26.7L33.9051 30.225L46.2801 17.85C46.7801 17.35 47.5551 17.35 48.0551 17.85C48.5551 18.35 48.5551 19.125 48.0551 19.625L33.9051 33.75L37.4301 37.3L46.2801 28.45C46.7801 27.95 47.5551 27.95 48.0551 28.45C48.5551 28.95 48.5551 29.725 48.0551 30.225L33.0551 45.25C26.7051 51.6 16.4301 51.6 10.0801 45.25C3.73011 38.9 3.73011 28.625 10.0801 22.275L18.9051 13.425V13.425ZM55.3051 40C55.3051 48.275 48.5801 55 40.3051 55V51.25C46.5551 51.25 51.5551 46.25 51.5551 40H55.3051ZM0.305115 15C0.305115 6.725 7.03011 0 15.3051 0V3.75C9.05511 3.75 4.05511 8.75 4.05511 15H0.305115Z" fill="#8D24DF"/>
</svg>
