<svg width="56" height="55" viewBox="0 0 56 55" fill="none" xmlns="http://www.w3.org/2000/svg">
<path d="M15.4023 9.875L6.57727 18.75C-1.74773 27.025 -1.74773 40.475 6.57727 48.75C14.9023 57.025 28.3023 57.075 36.5773 48.75L51.5773 33.75C54.0773 31.325 54.0773 27.35 51.5773 24.9C51.3273 24.6 51.0023 24.325 50.6523 24.1L51.5773 23.125C54.0773 20.7 54.0773 16.725 51.5773 14.275C51.2273 13.875 50.7523 13.525 50.3273 13.25C51.2773 10.95 50.8523 8.2 48.9773 6.325C46.8023 4.15 43.4273 3.925 40.9773 5.625C40.4686 4.84145 39.7918 4.18099 38.996 3.69159C38.2002 3.20218 37.3055 2.8961 36.3767 2.79556C35.4479 2.69502 34.5084 2.80255 33.6264 3.11034C32.7443 3.41813 31.9419 3.91845 31.2773 4.575L25.0023 10.85C24.7773 10.5 24.5023 10.175 24.2023 9.875C23.0225 8.73253 21.4446 8.09375 19.8023 8.09375C18.16 8.09375 16.5821 8.73253 15.4023 9.875V9.875ZM18.9273 13.425C19.4273 12.925 20.2023 12.925 20.7023 13.425C21.2023 13.925 21.2023 14.7 20.7023 15.2L12.7523 23.15C14.1568 24.5563 14.9457 26.4625 14.9457 28.45C14.9457 30.4375 14.1568 32.3437 12.7523 33.75L16.2773 37.275C17.9956 35.5551 19.1755 33.3718 19.6728 30.992C20.17 28.6122 19.9631 26.1391 19.0773 23.875L34.8273 8.125C35.3273 7.625 36.1023 7.625 36.5773 8.125C37.0523 8.625 37.1023 9.4 36.5773 9.9L25.1023 21.4L28.6273 24.925L43.6523 9.9C44.1523 9.4 44.9273 9.4 45.4273 9.9C45.9273 10.4 45.9273 11.175 45.4273 11.675L30.4023 26.7L33.9273 30.225L46.3023 17.85C46.8023 17.35 47.5773 17.35 48.0773 17.85C48.5773 18.35 48.5773 19.125 48.0773 19.625L33.9273 33.75L37.4523 37.3L46.3023 28.45C46.8023 27.95 47.5773 27.95 48.0773 28.45C48.5773 28.95 48.5773 29.725 48.0773 30.225L33.0773 45.25C26.7273 51.6 16.4523 51.6 10.1023 45.25C3.75227 38.9 3.75227 28.625 10.1023 22.275L18.9273 13.425V13.425ZM55.3273 40C55.3273 48.275 48.6023 55 40.3273 55V51.25C46.5773 51.25 51.5773 46.25 51.5773 40H55.3273ZM0.327271 15C0.327271 6.725 7.05227 0 15.3273 0V3.75C9.07727 3.75 4.07727 8.75 4.07727 15H0.327271Z" fill="white"/>
</svg>
