<svg width="101" height="101" viewBox="0 0 101 101" fill="none" xmlns="http://www.w3.org/2000/svg">
<rect x="0.703613" y="0.506592" width="100" height="100" rx="50" fill="#8D24DF"/>
<path d="M29.3394 30.8469C29.3394 29.4304 29.9021 28.0718 30.9037 27.0702C31.9053 26.0686 33.2638 25.5059 34.6804 25.5059H56.0445C56.7527 25.506 57.4318 25.7875 57.9325 26.2883L71.2851 39.6409C71.7859 40.1416 72.0674 40.8207 72.0675 41.5289V73.575C72.0675 74.9916 71.5048 76.3501 70.5032 77.3517C69.5015 78.3534 68.143 78.9161 66.7265 78.9161H34.6804C33.2638 78.9161 31.9053 78.3534 30.9037 77.3517C29.9021 76.3501 29.3394 74.9916 29.3394 73.575V30.8469ZM65.6209 41.5289L56.0445 31.9525V41.5289H65.6209ZM50.7034 30.8469H34.6804V73.575H66.7265V46.8699H53.3739C52.6657 46.8699 51.9864 46.5886 51.4856 46.0878C50.9848 45.587 50.7034 44.9077 50.7034 44.1994V30.8469ZM50.7034 50.8757C51.4117 50.8757 52.091 51.1571 52.5918 51.6579C53.0926 52.1587 53.3739 52.838 53.3739 53.5462V60.4522L54.1564 59.6697C54.6601 59.1832 55.3346 58.9141 56.0348 58.9202C56.735 58.9262 57.4048 59.2071 57.9 59.7022C58.3951 60.1974 58.676 60.8672 58.6821 61.5674C58.6881 62.2676 58.419 62.9421 57.9325 63.4458L52.5915 68.7868C52.0907 69.2875 51.4116 69.5687 50.7034 69.5687C49.9953 69.5687 49.3162 69.2875 48.8154 68.7868L43.4744 63.4458C43.2193 63.1995 43.0159 62.9048 42.8759 62.579C42.7359 62.2532 42.6623 61.9027 42.6592 61.5481C42.6561 61.1936 42.7237 60.8419 42.858 60.5137C42.9922 60.1855 43.1905 59.8873 43.4413 59.6366C43.692 59.3859 43.9902 59.1876 44.3184 59.0533C44.6466 58.919 44.9982 58.8514 45.3528 58.8545C45.7074 58.8576 46.0578 58.9313 46.3836 59.0712C46.7094 59.2112 47.0041 59.4146 47.2505 59.6697L48.0329 60.4522V53.5462C48.0329 52.838 48.3143 52.1587 48.8151 51.6579C49.3159 51.1571 49.9952 50.8757 50.7034 50.8757V50.8757Z" fill="#263140"/>
</svg>
