<svg width="100" height="100" viewBox="0 0 100 100" fill="none" xmlns="http://www.w3.org/2000/svg">
<rect width="100" height="100" rx="50" fill="#8D24DF"/>
<path d="M44.1872 39.8691C45.7925 39.8691 47.0825 38.5665 47.0825 36.9454C47.0825 35.3244 45.7925 34.0217 44.1872 34.0217C42.5819 34.0217 41.2919 35.3244 41.2919 36.9454C41.2919 38.5665 42.5819 39.8691 44.1872 39.8691Z" fill="#263140"/>
<path fill-rule="evenodd" clip-rule="evenodd" d="M50.0065 46.2375C50.0065 43.1112 47.3979 40.8533 44.1872 40.8533C40.9765 40.8533 38.3679 43.1112 38.3679 46.2375V47.7138C38.3679 47.9744 38.4825 48.2349 38.6545 48.4086C38.8265 48.5823 39.0845 48.698 39.3425 48.698H49.0319C49.2899 48.698 49.5479 48.5823 49.7199 48.4086C49.8919 48.2349 50.0065 47.9744 50.0065 47.7138V46.2375ZM38.3105 55.777C38.3105 55.2012 38.5371 54.649 38.9403 54.2418C39.3435 53.8347 39.8903 53.6059 40.4605 53.6059H60.5272C61.0974 53.6059 61.6443 53.8347 62.0475 54.2418C62.4507 54.649 62.6772 55.2012 62.6772 55.777C62.6772 56.3528 62.4507 56.905 62.0475 57.3122C61.6443 57.7193 61.0974 57.948 60.5272 57.948H40.4605C39.8903 57.948 39.3435 57.7193 38.9403 57.3122C38.5371 56.905 38.3105 56.3528 38.3105 55.777ZM38.3105 63.4612C38.3105 62.8854 38.5371 62.3332 38.9403 61.926C39.3435 61.5189 39.8903 61.2901 40.4605 61.2901H60.5272C61.0974 61.2901 61.6443 61.5189 62.0475 61.926C62.4507 62.3332 62.6772 62.8854 62.6772 63.4612C62.6772 64.037 62.4507 64.5892 62.0475 64.9964C61.6443 65.4035 61.0974 65.6323 60.5272 65.6323H40.4605C39.8903 65.6323 39.3435 65.4035 38.9403 64.9964C38.5371 64.5892 38.3105 64.037 38.3105 63.4612Z" fill="#263140"/>
<path d="M61.5561 39.3074V39.8074H62.0561H74.4378C74.7497 39.8074 75.0586 39.8686 75.3467 39.9872C75.6348 40.1059 75.8963 40.2798 76.1165 40.4988C76.3367 40.7178 76.5113 40.9777 76.6303 41.2634C76.7493 41.5492 76.8105 41.8554 76.8105 42.1646C76.8105 42.4737 76.7493 42.78 76.6303 43.0657C76.5113 43.3515 76.3367 43.6114 76.1165 43.8304C75.8963 44.0494 75.6348 44.2233 75.3467 44.3419C75.0586 44.4606 74.7497 44.5217 74.4378 44.5217H59.1833C58.5531 44.5217 57.9493 44.2727 57.5046 43.8304C57.0599 43.3881 56.8105 42.7889 56.8105 42.1646V25.8789C56.8105 25.2546 57.0599 24.6553 57.5046 24.2131C57.9493 23.7707 58.5531 23.5217 59.1833 23.5217C59.8135 23.5217 60.4173 23.7707 60.8621 24.2131C61.3068 24.6553 61.5561 25.2546 61.5561 25.8789V39.3074Z" fill="#263140" stroke="#263140"/>
<path d="M50.3105 74.5217C56.8083 74.5217 63.04 71.9405 67.6347 67.3458C72.2293 62.7512 74.8105 56.5195 74.8105 50.0217C74.8105 43.5239 72.2293 37.2923 67.6347 32.6976C63.04 28.103 56.8083 25.5217 50.3105 25.5217C43.8127 25.5217 37.5811 28.103 32.9864 32.6976C28.3918 37.2923 25.8105 43.5239 25.8105 50.0217C25.8105 56.5195 28.3918 62.7512 32.9864 67.3458C37.5811 71.9405 43.8127 74.5217 50.3105 74.5217ZM50.3105 79.5217C34.0177 79.5217 20.8105 66.3146 20.8105 50.0217C20.8105 33.7289 34.0177 20.5217 50.3105 20.5217C66.6034 20.5217 79.8105 33.7289 79.8105 50.0217C79.8105 66.3146 66.6034 79.5217 50.3105 79.5217Z" fill="#263140" stroke="#263140"/>
</svg>
