<svg width="101" height="101" viewBox="0 0 101 101" fill="none" xmlns="http://www.w3.org/2000/svg">
<rect x="0.689697" y="0.978271" width="100" height="100" rx="50" fill="#8D24DF"/>
<path d="M44.8767 40.8474C46.482 40.8474 47.772 39.5447 47.772 37.9237C47.772 36.3026 46.482 35 44.8767 35C43.2713 35 41.9813 36.3026 41.9813 37.9237C41.9813 39.5447 43.2713 40.8474 44.8767 40.8474Z" fill="white"/>
<path fill-rule="evenodd" clip-rule="evenodd" d="M50.696 47.2158C50.696 44.0895 48.0873 41.8316 44.8767 41.8316C41.666 41.8316 39.0573 44.0895 39.0573 47.2158V48.6921C39.0573 48.9526 39.172 49.2132 39.344 49.3868C39.516 49.5605 39.774 49.6763 40.032 49.6763H49.7213C49.9793 49.6763 50.2373 49.5605 50.4093 49.3868C50.5813 49.2132 50.696 48.9526 50.696 48.6921V47.2158ZM39 56.7553C39 56.1795 39.2265 55.6272 39.6297 55.2201C40.0329 54.8129 40.5798 54.5842 41.15 54.5842H61.2167C61.7869 54.5842 62.3337 54.8129 62.7369 55.2201C63.1401 55.6272 63.3667 56.1795 63.3667 56.7553C63.3667 57.3311 63.1401 57.8833 62.7369 58.2904C62.3337 58.6976 61.7869 58.9263 61.2167 58.9263H41.15C40.5798 58.9263 40.0329 58.6976 39.6297 58.2904C39.2265 57.8833 39 57.3311 39 56.7553ZM39 64.4395C39 63.8637 39.2265 63.3115 39.6297 62.9043C40.0329 62.4972 40.5798 62.2684 41.15 62.2684H61.2167C61.7869 62.2684 62.3337 62.4972 62.7369 62.9043C63.1401 63.3115 63.3667 63.8637 63.3667 64.4395C63.3667 65.0153 63.1401 65.5675 62.7369 65.9746C62.3337 66.3818 61.7869 66.6105 61.2167 66.6105H41.15C40.5798 66.6105 40.0329 66.3818 39.6297 65.9746C39.2265 65.5675 39 65.0153 39 64.4395Z" fill="white"/>
<path d="M62.2456 40.2857V40.7857H62.7456H75.1272C75.4392 40.7857 75.748 40.8468 76.0361 40.9655C76.3242 41.0842 76.5858 41.2581 76.806 41.4771C77.0262 41.6961 77.2007 41.9559 77.3198 42.2417C77.4388 42.5275 77.5 42.8337 77.5 43.1429C77.5 43.452 77.4388 43.7582 77.3198 44.044C77.2007 44.3298 77.0262 44.5896 76.806 44.8086C76.5858 45.0277 76.3242 45.2015 76.0361 45.3202C75.748 45.4389 75.4392 45.5 75.1272 45.5H59.8728C59.2426 45.5 58.6388 45.251 58.194 44.8086C57.7493 44.3664 57.5 43.7671 57.5 43.1429V26.8571C57.5 26.2329 57.7493 25.6336 58.194 25.1914C58.6388 24.749 59.2426 24.5 59.8728 24.5C60.503 24.5 61.1068 24.749 61.5516 25.1914C61.9962 25.6336 62.2456 26.2329 62.2456 26.8571V40.2857Z" fill="white" stroke="#8D24DF"/>
<path d="M51 75.5C57.4978 75.5 63.7295 72.9188 68.3241 68.3241C72.9188 63.7295 75.5 57.4978 75.5 51C75.5 44.5022 72.9188 38.2705 68.3241 33.6759C63.7295 29.0812 57.4978 26.5 51 26.5C44.5022 26.5 38.2705 29.0812 33.6759 33.6759C29.0812 38.2705 26.5 44.5022 26.5 51C26.5 57.4978 29.0812 63.7295 33.6759 68.3241C38.2705 72.9188 44.5022 75.5 51 75.5ZM51 80.5C34.7071 80.5 21.5 67.2929 21.5 51C21.5 34.7071 34.7071 21.5 51 21.5C67.2929 21.5 80.5 34.7071 80.5 51C80.5 67.2929 67.2929 80.5 51 80.5Z" fill="white" stroke="#8D24DF"/>
</svg>
