<svg width="101" height="101" viewBox="0 0 101 101" fill="none" xmlns="http://www.w3.org/2000/svg">
<rect x="0.788574" y="0.506592" width="100" height="100" rx="50" fill="#8D24DF"/>
<path d="M29.4246 30.8469C29.4246 29.4304 29.9873 28.0718 30.9889 27.0702C31.9905 26.0686 33.3491 25.5059 34.7656 25.5059H56.1297C56.8379 25.506 57.517 25.7875 58.0177 26.2883L71.3703 39.6409C71.8711 40.1416 72.1526 40.8207 72.1527 41.5289V73.575C72.1527 74.9916 71.59 76.3501 70.5884 77.3517C69.5867 78.3534 68.2282 78.9161 66.8117 78.9161H34.7656C33.3491 78.9161 31.9905 78.3534 30.9889 77.3517C29.9873 76.3501 29.4246 74.9916 29.4246 73.575V30.8469ZM65.7061 41.5289L56.1297 31.9525V41.5289H65.7061ZM50.7886 30.8469H34.7656V73.575H66.8117V46.8699H53.4592C52.7509 46.8699 52.0716 46.5886 51.5708 46.0878C51.07 45.587 50.7886 44.9077 50.7886 44.1994V30.8469ZM50.7886 50.8757C51.4969 50.8757 52.1762 51.1571 52.677 51.6579C53.1778 52.1587 53.4592 52.838 53.4592 53.5462V60.4522L54.2416 59.6697C54.7453 59.1832 55.4199 58.9141 56.1201 58.9202C56.8203 58.9262 57.49 59.2071 57.9852 59.7022C58.4803 60.1974 58.7612 60.8672 58.7673 61.5674C58.7733 62.2676 58.5042 62.9421 58.0177 63.4458L52.6767 68.7868C52.1759 69.2875 51.4968 69.5687 50.7886 69.5687C50.0805 69.5687 49.4014 69.2875 48.9006 68.7868L43.5596 63.4458C43.3045 63.1995 43.1011 62.9048 42.9611 62.579C42.8211 62.2532 42.7475 61.9027 42.7444 61.5481C42.7413 61.1936 42.8089 60.8419 42.9432 60.5137C43.0774 60.1855 43.2757 59.8873 43.5265 59.6366C43.7772 59.3859 44.0754 59.1876 44.4036 59.0533C44.7318 58.919 45.0834 58.8514 45.438 58.8545C45.7926 58.8576 46.143 58.9313 46.4688 59.0712C46.7946 59.2112 47.0893 59.4146 47.3357 59.6697L48.1181 60.4522V53.5462C48.1181 52.838 48.3995 52.1587 48.9003 51.6579C49.4011 51.1571 50.0804 50.8757 50.7886 50.8757V50.8757Z" fill="white"/>
</svg>
