<svg width="56" height="56" viewBox="0 0 56 56" fill="none" xmlns="http://www.w3.org/2000/svg">
<path d="M3.55459 30.3145H6.30465V49.5643C6.30465 52.5975 8.77145 55.0642 11.8048 55.0642H44.8055C47.8388 55.0642 50.3056 52.5975 50.3056 49.5643V30.3145H53.0556C53.5995 30.3143 54.131 30.153 54.5832 29.8508C55.0353 29.5486 55.3877 29.1192 55.5958 28.6168C55.8039 28.1144 55.8584 27.5615 55.7523 27.0282C55.6462 26.4948 55.3844 26.0048 54.9999 25.6203L30.2494 0.870504C29.9942 0.614906 29.6912 0.412129 29.3575 0.273776C29.0239 0.135422 28.6663 0.064209 28.3051 0.064209C27.9439 0.064209 27.5863 0.135422 27.2527 0.273776C26.9191 0.412129 26.616 0.614906 26.3608 0.870504L1.6103 25.6203C1.22581 26.0048 0.963988 26.4948 0.857925 27.0282C0.751862 27.5615 0.806322 28.1144 1.01442 28.6168C1.22252 29.1192 1.57491 29.5486 2.02704 29.8508C2.47918 30.153 3.01076 30.3143 3.55459 30.3145ZM22.805 49.5643V35.8144H33.8052V49.5643H22.805ZM28.3051 6.7032L44.8055 23.203V35.8144L44.8082 49.5643H39.3054V35.8144C39.3054 32.7812 36.8385 30.3145 33.8052 30.3145H22.805C19.7717 30.3145 17.3049 32.7812 17.3049 35.8144V49.5643H11.8048V23.203L28.3051 6.7032Z" fill="#8D24DF"/>
</svg>
