<svg width="56" height="56" viewBox="0 0 56 56" fill="none" xmlns="http://www.w3.org/2000/svg">
<path d="M3.57674 30.3145H6.3268V49.5643C6.3268 52.5975 8.7936 55.0642 11.8269 55.0642H44.8276C47.8609 55.0642 50.3277 52.5975 50.3277 49.5643V30.3145H53.0778C53.6216 30.3143 54.1532 30.153 54.6053 29.8508C55.0575 29.5486 55.4099 29.1192 55.618 28.6168C55.8261 28.1144 55.8805 27.5615 55.7745 27.0282C55.6684 26.4948 55.4066 26.0048 55.0221 25.6203L30.2716 0.870504C30.0164 0.614906 29.7133 0.412129 29.3797 0.273776C29.0461 0.135422 28.6884 0.064209 28.3273 0.064209C27.9661 0.064209 27.6085 0.135422 27.2748 0.273776C26.9412 0.412129 26.6382 0.614906 26.383 0.870504L1.63245 25.6203C1.24797 26.0048 0.986144 26.4948 0.880081 27.0282C0.774018 27.5615 0.828478 28.1144 1.03657 28.6168C1.24467 29.1192 1.59706 29.5486 2.0492 29.8508C2.50134 30.153 3.03292 30.3143 3.57674 30.3145ZM22.8272 49.5643V35.8144H33.8274V49.5643H22.8272ZM28.3273 6.7032L44.8276 23.203V35.8144L44.8304 49.5643H39.3275V35.8144C39.3275 32.7812 36.8607 30.3145 33.8274 30.3145H22.8272C19.7938 30.3145 17.327 32.7812 17.327 35.8144V49.5643H11.8269V23.203L28.3273 6.7032Z" fill="white"/>
</svg>
