<svg width="100" height="101" viewBox="0 0 100 101" fill="none" xmlns="http://www.w3.org/2000/svg">
<rect y="0.506592" width="100" height="100" rx="50" fill="#8D24DF"/>
<path d="M27.4995 53.007H29.9996V70.5073C29.9996 73.2649 32.2421 75.5074 34.9997 75.5074H65.0003C67.7579 75.5074 70.0004 73.2649 70.0004 70.5073V53.007H72.5005C72.9949 53.0068 73.4781 52.8602 73.8892 52.5854C74.3002 52.3107 74.6205 51.9203 74.8097 51.4636C74.9989 51.0068 75.0484 50.5042 74.952 50.0193C74.8556 49.5344 74.6175 49.089 74.268 48.7394L51.7675 26.2389C51.5356 26.0065 51.26 25.8222 50.9568 25.6964C50.6535 25.5706 50.3283 25.5059 50 25.5059C49.6717 25.5059 49.3465 25.5706 49.0432 25.6964C48.74 25.8222 48.4644 26.0065 48.2325 26.2389L25.732 48.7394C25.3825 49.089 25.1444 49.5344 25.048 50.0193C24.9516 50.5042 25.0011 51.0068 25.1903 51.4636C25.3795 51.9203 25.6998 52.3107 26.1108 52.5854C26.5219 52.8602 27.0051 53.0068 27.4995 53.007ZM44.9999 70.5073V58.0071H55.0001V70.5073H44.9999ZM50 31.5415L65.0003 46.5418V58.0071L65.0028 70.5073H60.0002V58.0071C60.0002 55.2495 57.7577 53.007 55.0001 53.007H44.9999C42.2423 53.007 39.9998 55.2495 39.9998 58.0071V70.5073H34.9997V46.5418L50 31.5415Z" fill="white"/>
</svg>
