<svg width="71" height="70" viewBox="0 0 71 70" fill="none" xmlns="http://www.w3.org/2000/svg">
<path d="M3.74043 38.5003H7.24039V63.0001C7.24039 66.8605 10.3799 70 14.2403 70H56.2399C60.1004 70 63.2398 66.8605 63.2398 63.0001V38.5003H66.7398C67.4319 38.5002 68.1085 38.2948 68.6839 37.9102C69.2593 37.5256 69.7078 36.9791 69.9726 36.3396C70.2375 35.7002 70.3068 34.9966 70.1718 34.3178C70.0368 33.6389 69.7036 33.0154 69.2143 32.5259L37.7146 1.02619C37.3898 0.700887 37.0041 0.442807 36.5795 0.266721C36.1549 0.0906354 35.6998 0 35.2401 0C34.7805 0 34.3253 0.0906354 33.9007 0.266721C33.4761 0.442807 33.0904 0.700887 32.7656 1.02619L1.26595 32.5259C0.776627 33.0154 0.443408 33.6389 0.308422 34.3178C0.173437 34.9966 0.242747 35.7002 0.50759 36.3396C0.772432 36.9791 1.22092 37.5256 1.79634 37.9102C2.37177 38.2948 3.04831 38.5002 3.74043 38.5003ZM28.2402 63.0001V45.5002H42.24V63.0001H28.2402ZM35.2401 8.44962L56.2399 29.4494V45.5002L56.2434 63.0001H49.24V45.5002C49.24 41.6398 46.1005 38.5003 42.24 38.5003H28.2402C24.3797 38.5003 21.2403 41.6398 21.2403 45.5002V63.0001H14.2403V29.4494L35.2401 8.44962Z" fill="#263140"/>
</svg>
