<svg width="86" height="86" viewBox="0 0 86 86" fill="none" xmlns="http://www.w3.org/2000/svg">
<rect x="0.328369" y="0.00537109" width="85" height="85" rx="20" fill="white"/>
<path d="M18.0778 45.2544H20.8279V64.5048C20.8279 67.5381 23.2947 70.0049 26.328 70.0049H59.3287C62.362 70.0049 64.8288 67.5381 64.8288 64.5048V45.2544H67.5789C68.1227 45.2543 68.6543 45.0929 69.1064 44.7907C69.5586 44.4885 69.911 44.0591 70.1191 43.5566C70.3272 43.0542 70.3816 42.5014 70.2756 41.968C70.1695 41.4346 69.9077 40.9446 69.5232 40.56L44.7727 15.8095C44.5175 15.5539 44.2144 15.3511 43.8808 15.2127C43.5472 15.0744 43.1895 15.0032 42.8284 15.0032C42.4672 15.0032 42.1096 15.0744 41.7759 15.2127C41.4423 15.3511 41.1393 15.5539 40.8841 15.8095L16.1336 40.56C15.7491 40.9446 15.4872 41.4346 15.3812 41.968C15.2751 42.5014 15.3296 43.0542 15.5377 43.5566C15.7458 44.0591 16.0982 44.4885 16.5503 44.7907C17.0024 45.0929 17.534 45.2543 18.0778 45.2544ZM37.3283 64.5048V50.7545H48.3285V64.5048H37.3283ZM42.8284 21.6424L59.3287 38.1427V50.7545L59.3315 64.5048H53.8286V50.7545C53.8286 47.7212 51.3618 45.2544 48.3285 45.2544H37.3283C34.2949 45.2544 31.8281 47.7212 31.8281 50.7545V64.5048H26.328V38.1427L42.8284 21.6424Z" fill="#8D24DF"/>
</svg>
