<svg width="101" height="101" viewBox="0 0 101 101" fill="none" xmlns="http://www.w3.org/2000/svg">
<rect x="0.129883" y="0.506592" width="100" height="100" rx="50" fill="#8D24DF"/>
<path d="M27.6294 53.007H30.1295V70.5073C30.1295 73.2649 32.372 75.5074 35.1296 75.5074H65.1302C67.8878 75.5074 70.1303 73.2649 70.1303 70.5073V53.007H72.6304C73.1247 53.0068 73.608 52.8602 74.019 52.5854C74.4301 52.3107 74.7504 51.9203 74.9396 51.4636C75.1288 51.0068 75.1783 50.5042 75.0819 50.0193C74.9855 49.5344 74.7474 49.089 74.3979 48.7394L51.8974 26.2389C51.6654 26.0065 51.3899 25.8222 51.0866 25.6964C50.7833 25.5706 50.4582 25.5059 50.1299 25.5059C49.8015 25.5059 49.4764 25.5706 49.1731 25.6964C48.8698 25.8222 48.5943 26.0065 48.3623 26.2389L25.8619 48.7394C25.5123 49.089 25.2743 49.5344 25.1779 50.0193C25.0815 50.5042 25.131 51.0068 25.3202 51.4636C25.5093 51.9203 25.8297 52.3107 26.2407 52.5854C26.6518 52.8602 27.135 53.0068 27.6294 53.007ZM45.1298 70.5073V58.0071H55.13V70.5073H45.1298ZM50.1299 31.5415L65.1302 46.5418V58.0071L65.1327 70.5073H60.1301V58.0071C60.1301 55.2495 57.8876 53.007 55.13 53.007H45.1298C42.3722 53.007 40.1297 55.2495 40.1297 58.0071V70.5073H35.1296V46.5418L50.1299 31.5415Z" fill="#263140"/>
</svg>
