<svg width="81" height="81" viewBox="0 0 81 81" fill="none" xmlns="http://www.w3.org/2000/svg">
<g filter="url(#filter0_d_1408_205)">
<circle cx="41.0015" cy="38.3904" r="35" fill="white"/>
</g>
<path d="M65.1503 28.8701L58.3826 32.2161V25.3153C58.3826 23.7126 56.8652 22.4097 54.9988 22.4097H23.6985C21.8321 22.4097 20.3147 23.7126 20.3147 25.3153V51.4656C20.3147 53.0682 21.8321 54.3712 23.6985 54.3712H54.9988C56.8652 54.3712 58.3826 53.0682 58.3826 51.4656V44.5648L65.1503 47.9108C66.2764 48.4692 67.6881 47.7701 67.6881 46.6578V30.1277C67.6881 29.0108 66.2764 28.3117 65.1503 28.8701ZM34.2729 31.1265C34.2729 31.3262 34.0826 31.4897 33.85 31.4897H27.9283C27.6956 31.4897 27.5053 31.3262 27.5053 31.1265V28.9473C27.5053 28.7475 27.6956 28.5841 27.9283 28.5841H33.85C34.0826 28.5841 34.2729 28.7475 34.2729 28.9473V31.1265ZM63.8813 43.5206L58.3826 40.8057V35.9797L63.8813 33.2603V43.5206Z" fill="#31C1D5"/>
<defs>
<filter id="filter0_d_1408_205" x="0.00146484" y="0.390381" width="80" height="80" filterUnits="userSpaceOnUse" color-interpolation-filters="sRGB">
<feFlood flood-opacity="0" result="BackgroundImageFix"/>
<feColorMatrix in="SourceAlpha" type="matrix" values="0 0 0 0 0 0 0 0 0 0 0 0 0 0 0 0 0 0 127 0" result="hardAlpha"/>
<feOffset dx="-1" dy="2"/>
<feGaussianBlur stdDeviation="2.5"/>
<feComposite in2="hardAlpha" operator="out"/>
<feColorMatrix type="matrix" values="0 0 0 0 0 0 0 0 0 0 0 0 0 0 0 0 0 0 0.25 0"/>
<feBlend mode="normal" in2="BackgroundImageFix" result="effect1_dropShadow_1408_205"/>
<feBlend mode="normal" in="SourceGraphic" in2="effect1_dropShadow_1408_205" result="shape"/>
</filter>
</defs>
</svg>
