<svg width="81" height="81" viewBox="0 0 81 81" fill="none" xmlns="http://www.w3.org/2000/svg">
<g filter="url(#filter0_d_1435_445)">
<circle cx="41.696" cy="38.7244" r="35" fill="white"/>
</g>
<path d="M42.9877 54.5358H23.6157C22.9306 54.5358 22.2736 54.2636 21.7892 53.7792C21.3048 53.2948 21.0327 52.6379 21.0327 51.9528V26.1235C21.0327 25.4384 21.3048 24.7814 21.7892 24.2971C22.2736 23.8127 22.9306 23.5405 23.6157 23.5405H59.7768C60.4618 23.5405 61.1188 23.8127 61.6032 24.2971C62.0876 24.7814 62.3597 25.4384 62.3597 26.1235V39.516C60.6392 37.3247 58.1365 35.8853 55.3772 35.5001C52.6179 35.1149 49.8167 35.8139 47.5618 37.4503C45.307 39.0867 43.7739 41.5332 43.2846 44.2759C42.7953 47.0187 43.3879 49.8443 44.9378 52.1595L43.7367 53.6317L42.9877 54.5358ZM27.4901 31.2893V33.3557H49.445V31.2893H27.4901ZM27.4901 38.5216H41.6962V36.4552H27.4901V38.5216ZM27.4901 47.5618H40.4047V45.4955H27.4901V47.5618Z" fill="#8D24DF"/>
<path d="M62.1402 46.2575C62.1436 44.8957 61.809 43.5544 61.1663 42.3539C60.5236 41.1534 59.593 40.1312 58.4579 39.379C57.3227 38.6268 56.0187 38.1681 54.6626 38.0441C53.3065 37.9201 51.9409 38.1347 50.6882 38.6686C49.4355 39.2025 48.3349 40.0389 47.4851 41.103C46.6354 42.1671 46.0631 43.4255 45.8195 44.7652C45.576 46.105 45.6688 47.4843 46.0897 48.7793C46.5106 50.0744 47.2464 51.2447 48.231 52.1853L45.7256 55.2461L46.8879 59.9083L51.6147 54.1483C53.1109 54.5907 54.7032 54.5907 56.1994 54.1483L60.9262 59.9083L62.0885 55.2461L59.583 52.1853C60.3888 51.4221 61.0309 50.5031 61.4705 49.484C61.9101 48.465 62.1379 47.3673 62.1402 46.2575ZM48.2698 46.2575C48.2544 45.1381 48.5723 44.0394 49.183 43.1011C49.7937 42.1629 50.6697 41.4275 51.6995 40.9884C52.7293 40.5494 53.8664 40.4265 54.9663 40.6354C56.0661 40.8443 57.0789 41.3757 57.876 42.1618C58.6731 42.9479 59.2183 43.9533 59.4424 45.0501C59.6665 46.147 59.5594 47.2857 59.1346 48.3214C58.7098 49.3572 57.9866 50.2433 57.0569 50.8669C56.1272 51.4905 55.033 51.8236 53.9135 51.8237C52.4302 51.8272 51.0057 51.2439 49.9509 50.2011C48.896 49.1583 48.2963 47.7407 48.2827 46.2575H48.2698Z" fill="#8D24DF"/>
<defs>
<filter id="filter0_d_1435_445" x="0.696045" y="0.724365" width="80" height="80" filterUnits="userSpaceOnUse" color-interpolation-filters="sRGB">
<feFlood flood-opacity="0" result="BackgroundImageFix"/>
<feColorMatrix in="SourceAlpha" type="matrix" values="0 0 0 0 0 0 0 0 0 0 0 0 0 0 0 0 0 0 127 0" result="hardAlpha"/>
<feOffset dx="-1" dy="2"/>
<feGaussianBlur stdDeviation="2.5"/>
<feComposite in2="hardAlpha" operator="out"/>
<feColorMatrix type="matrix" values="0 0 0 0 0 0 0 0 0 0 0 0 0 0 0 0 0 0 0.25 0"/>
<feBlend mode="normal" in2="BackgroundImageFix" result="effect1_dropShadow_1435_445"/>
<feBlend mode="normal" in="SourceGraphic" in2="effect1_dropShadow_1435_445" result="shape"/>
</filter>
</defs>
</svg>
