<svg width="81" height="80" viewBox="0 0 81 80" fill="none" xmlns="http://www.w3.org/2000/svg">
<g filter="url(#filter0_d_2853_57)">
<circle cx="41.2219" cy="38" r="35" fill="white"/>
</g>
<path d="M56.8037 57.9632C55.3737 58.6571 53.749 58.8479 52.1957 58.5045C51.1385 58.2637 50.1088 57.9167 49.1222 57.469L46.9442 56.5834C45.0469 55.9929 43.0213 55.9418 41.0964 56.4358H40.8984C38.9801 55.8928 36.9409 55.9443 35.0529 56.5834C34.3104 56.8294 33.6151 57.1738 32.8726 57.469C31.8826 57.9141 30.8408 58.3077 29.8013 58.5537C28.2478 58.8941 26.6242 58.7034 25.1933 58.0125L24.9953 57.9141C24.9458 57.9141 24.9458 57.914 24.9458 57.9632C25.7407 58.7761 26.7114 59.3981 27.7843 59.7821C28.8573 60.1662 30.0042 60.3021 31.1378 60.1796C32.5245 59.9924 33.8481 59.4862 35.0034 58.7013L37.0846 57.3214C37.8613 56.822 38.8041 56.6453 39.7104 56.8294C40.2054 56.8786 39.8094 57.1246 39.7599 57.1738C38.5139 57.7728 37.3344 58.4998 36.2409 59.3431C35.4984 59.8821 34.1596 61.1636 34.1596 61.1636L35.1496 62L36.2409 60.8192C37.5795 59.4372 39.1155 58.2587 40.7994 57.3214C40.8637 57.2735 40.9418 57.2476 41.0221 57.2476C41.1025 57.2476 41.1806 57.2735 41.2449 57.3214C42.9288 58.2587 44.4648 59.4372 45.8034 60.8192L46.8947 62L47.8847 61.1636L45.8034 59.3409C44.7104 58.4985 43.5318 57.7722 42.2866 57.1738C42.1876 57.1246 41.8411 56.8786 42.3361 56.8294C43.2272 56.6326 44.1677 56.8294 44.9619 57.3214L47.0432 58.7013C48.198 59.4851 49.5208 59.9905 50.9064 60.1773C51.7997 60.278 52.7402 60.2288 53.6312 59.9805C54.9339 59.5948 56.124 58.9029 57.1007 57.9632C57.1007 57.9632 57.0512 57.9141 57.0017 57.9141L56.8037 57.9632ZM61.657 53.6783C61.0305 54.1532 60.3275 54.5192 59.578 54.7607C58.5362 55.0581 57.3955 55.2527 56.3065 55.2527C54.871 55.3041 53.4827 55.4025 52.0472 55.5994C51.9482 55.5994 51.8987 55.5993 51.9482 55.5501C53.1857 55.0581 54.1757 54.0741 54.7225 52.8888L56.1085 50.0843V49.9837C56.0095 50.0329 54.6235 51.216 53.9777 51.8064L51.6489 54.0719C50.6027 54.9612 49.366 55.6014 48.0332 55.9438H47.9837L47.9342 55.993L50.6094 56.6326C51.7557 56.9686 52.9345 57.183 54.1262 57.2722C55.6013 57.4168 57.0884 57.164 58.4313 56.5403C59.7743 55.9166 60.9234 54.9449 61.7582 53.7275C61.7582 53.6783 61.7065 53.6783 61.657 53.6783ZM66.0175 47.0808C65.313 47.9281 64.4776 48.6588 63.5425 49.2457C62.7482 49.7869 61.9067 50.2297 61.0135 50.6255C59.8887 51.0763 58.8371 51.6897 57.8927 52.446L57.6947 52.5958C57.6452 52.5958 57.6452 52.5958 57.6452 52.5444C57.6452 52.4952 59.1302 51.0191 59.578 47.915C59.6275 46.7833 59.8255 45.7009 60.073 44.6162V44.5178C59.0443 45.7855 58.24 47.2179 57.6947 48.7536L56.8037 51.2651C56.455 52.3968 55.8137 53.4322 54.97 54.2687L54.871 54.3671V54.4163C54.97 54.4163 55.069 54.3671 55.168 54.3671L58.0412 53.7767C59.6202 53.5237 61.1154 52.8987 62.4017 51.954C63.7223 51.0066 64.793 49.7559 65.5225 48.3086C65.7205 47.9172 65.869 47.5214 66.0175 47.1278C66.1165 47.0294 66.067 47.0294 66.0175 47.0786M67.9008 39.6916C67.4423 41.0405 66.66 42.258 65.6215 43.2386C64.4406 44.3866 63.3478 45.6208 62.3522 46.931C62.3522 46.9802 62.2532 46.931 62.3027 46.8818C62.6997 45.5238 62.8009 44.0973 62.5997 42.6974C62.4017 41.5143 61.9067 40.2351 61.7582 38.806L61.7065 38.7568C61.7065 38.806 61.657 38.8552 61.657 38.9044C61.3597 39.8333 61.1606 40.7904 61.063 41.7603C61.0135 42.9434 61.2115 44.4686 61.1125 45.6517C61.0135 47.0294 60.9145 48.4584 60.271 49.6885V49.7869L63.2432 47.9664C64.467 47.1919 65.527 46.1877 66.364 45.0099C67.4413 43.4995 68.0135 41.6906 67.9998 39.8392V39.6424C67.9503 39.6424 67.9008 39.6916 67.9008 39.6916ZM64.7282 40.4811C64.78 40.4811 64.78 40.4811 64.7282 40.4811C64.7282 40.0852 64.7282 39.6916 64.681 39.298C64.582 37.9204 63.7382 36.7865 62.9957 35.6057C62.4913 34.8517 62.0438 34.0616 61.657 33.2418C61.657 33.2418 61.6075 33.1926 61.558 33.1926C61.558 33.291 61.558 33.7338 61.6075 33.9798C61.855 35.9479 62.35 37.9204 63.0947 39.79C63.5402 40.9731 63.6887 42.2054 63.5897 43.4354C63.5897 43.5338 63.5897 43.5338 63.6392 43.583C64.0847 42.9434 64.978 42.0555 65.5225 41.3667C66.067 40.6779 69.0393 37.3277 67.6038 32.7006C67.5543 32.5015 67.4553 32.3047 67.3563 32.1079L67.3068 32.1571C67.3068 35.5073 65.671 36.9341 65.0275 39.2019C64.9029 39.622 64.8037 40.0492 64.7305 40.4811M64.78 33.5862L64.483 32.799L64.285 32.3539C63.7867 31.4572 63.0924 30.683 62.2532 30.0884C61.5698 29.5176 60.9693 28.8552 60.469 28.1204H60.3205C60.37 28.268 60.8155 29.744 61.1125 30.4351C61.6075 31.3699 62.2037 32.3047 62.8967 33.0942L63.0452 33.291C63.8867 34.4226 64.5302 35.6549 64.978 36.9833C64.978 37.0325 65.0275 37.0325 65.0275 37.0325L65.869 34.4718C66.166 33.5862 66.4135 32.6491 66.6115 31.7143C66.9108 29.5002 66.2155 26.6913 64.9285 25.1168C64.9285 25.1168 64.879 25.1638 64.879 25.2152L64.9285 25.412L65.0275 25.7073C65.275 26.8881 65.3245 28.1673 65.077 29.3526C64.879 30.2875 64.8295 31.2715 64.8295 32.2555C64.8295 32.4031 64.9285 33.6354 64.9285 33.6846C64.9285 33.7338 64.879 33.6846 64.8295 33.6846M60.8155 21.2255C61.2115 21.6191 61.558 22.0619 61.7582 22.6031C62.1047 23.4417 62.2037 24.6718 62.4512 25.6088L62.8967 27.2325C62.8967 27.2817 62.8472 27.3309 62.7977 27.2817C62.0464 26.3897 61.1394 25.6396 60.1202 25.0676C59.4295 24.6718 58.8827 24.1306 58.3877 23.5402L58.1402 23.1957C58.1402 23.1957 58.0907 23.1465 58.0412 23.1957V23.3433C58.2887 24.4258 58.7837 25.4612 59.578 26.2954C60.2215 26.8881 60.9145 27.4293 61.558 27.9728C62.4115 28.6979 63.2066 29.4883 63.9362 30.3367C63.9362 30.3367 63.9857 30.3859 63.9857 30.3367V29.5472L64.0352 27.1833V26.3961C64.0352 25.6088 63.8867 24.7702 63.5897 24.0322C63.0947 22.8021 62.1542 21.8181 61.0135 21.2255C60.964 21.1762 60.865 21.1762 60.766 21.127C60.766 21.127 60.766 21.1762 60.8155 21.2255ZM55.7147 18.9107C56.4077 19.5504 57.004 20.2906 57.5485 21.0778C58.0435 21.8651 58.588 22.5539 59.281 23.1957C59.7287 23.6386 61.0652 24.6718 61.4117 24.967C61.3622 24.5734 60.7187 21.7689 58.984 20.389C57.9809 19.5896 56.8146 19.0172 55.5662 18.7117V18.8123L55.7147 18.9107ZM27.9676 57.2722C29.1276 57.1831 30.2744 56.9686 31.3876 56.6326L34.0606 55.993H34.1101C34.1101 55.993 34.1101 55.9438 34.0606 55.9438H34.0111C32.6664 55.5917 31.4149 54.953 30.3436 54.0719L28.0171 51.8578L25.8863 50.0329V50.1335C26.0843 50.4287 26.8291 52.0524 27.2746 52.9402C27.8191 54.1703 28.8091 55.1073 30.0488 55.5994C30.0983 55.6486 30.0488 55.6485 29.9498 55.6485C28.5365 55.4584 27.114 55.3435 25.6883 55.3041C24.5993 55.3041 23.4608 55.1073 22.4191 54.8121C21.6686 54.5701 20.9649 54.2033 20.3378 53.7275H20.2388C21.2273 55.1116 22.606 56.1738 24.2011 56.7802C25.4175 57.1637 26.6927 57.3303 27.9676 57.2722ZM26.8291 54.3671C26.9281 54.3671 26.9776 54.4163 27.1261 54.4163V54.3671L27.0271 54.2687C26.1949 53.4184 25.5679 52.3914 25.1933 51.2651L24.3023 48.7536C23.757 47.2179 22.9528 45.7855 21.9241 44.5178V44.6162C22.2211 45.7009 22.3696 46.7856 22.4686 47.9172C22.9141 50.9699 24.4013 52.446 24.4013 52.4952C24.4013 52.5444 24.4013 52.5958 24.3518 52.5444L24.1516 52.3968C23.2072 51.6405 22.1556 51.0271 21.0308 50.5763C20.1475 50.1949 19.3016 49.733 18.504 49.1965C17.5688 48.6089 16.7334 47.8774 16.029 47.0294H15.975C16.1235 47.423 16.272 47.8188 16.47 48.2124C17.2125 49.6393 18.3038 50.9185 19.6426 51.8578C20.9296 52.8418 22.4168 53.4815 24.0008 53.6783C24.9436 53.9243 25.8863 54.1703 26.8291 54.3671ZM18.8483 47.9664L21.8228 49.7869C21.8228 49.7869 21.8723 49.7377 21.8723 49.6885C21.2266 48.4092 21.1298 47.0294 21.0286 45.6517C20.9296 44.4217 21.1276 42.9434 21.0781 41.7603C20.9805 40.7743 20.7815 39.8008 20.4841 38.8552C20.4841 38.806 20.4346 38.7568 20.4346 38.7076L20.3851 38.7568C20.2861 40.1859 19.7416 41.4651 19.5436 42.6482C19.3459 44.0482 19.4471 45.474 19.8406 46.8325C19.8901 46.8817 19.7911 46.931 19.7911 46.8818C18.8074 45.5621 17.7129 44.3276 16.5195 43.1916C15.4847 42.2279 14.7043 41.0259 14.247 39.6916C14.247 39.6916 14.1953 39.6424 14.1458 39.6424C14.0963 39.6424 14.1458 39.7408 14.1458 39.8392C14.1458 41.6619 14.6925 43.4846 15.7815 45.0099C16.5735 46.1437 17.6153 47.1792 18.8528 47.9664M18.3083 43.6322C18.3578 43.583 18.3578 43.583 18.3578 43.4846C18.2588 42.2546 18.4073 40.9731 18.9023 39.8392C19.5976 37.9696 20.0926 36.0485 20.3896 34.029C20.3896 33.783 20.4391 33.3402 20.4391 33.2418C20.3896 33.2418 20.3896 33.2418 20.3896 33.291C20.0027 34.1108 19.5553 34.9009 19.0508 35.6549C18.2588 36.7373 17.4668 37.9204 17.3678 39.3003C17.3183 39.6923 17.3183 40.089 17.3678 40.4811C17.3678 40.4811 17.3678 40.5303 17.3183 40.5303V40.4811L16.9718 39.298C16.272 37.0325 14.6903 35.6057 14.6903 32.2555L14.6408 32.2063C14.5418 32.4031 14.4923 32.5999 14.3933 32.799C12.9555 37.4284 15.8783 40.7763 16.4723 41.4651C17.0663 42.1539 17.8628 42.9926 18.3083 43.6322ZM16.227 34.4226L17.0708 36.9833C17.0708 36.9833 17.1203 36.9833 17.1203 36.9341C17.5658 35.6057 18.2588 34.3734 19.0508 33.2418L19.1993 33.045C19.8946 32.2063 20.4886 31.3207 20.9836 30.3836C21.2806 29.6948 21.7261 28.2188 21.7778 28.0712H21.6271C21.1321 28.8092 20.5381 29.4488 19.8451 30.0392C18.9783 30.6379 18.2653 31.4308 17.7638 32.3539C17.7143 32.5015 17.6153 32.6491 17.5658 32.799L17.2688 33.6354C17.2688 33.6354 17.2193 33.7338 17.2193 33.6354C17.2193 33.537 17.3183 32.4054 17.3183 32.2063C17.3183 31.2223 17.2193 30.2383 17.0213 29.3012C16.7894 28.0953 16.8063 26.8551 17.0708 25.6558C17.0708 25.5596 17.1203 25.4612 17.1698 25.3628C17.1698 25.3136 17.2193 25.2152 17.2193 25.1638C17.2193 25.1124 17.2193 25.1146 17.1698 25.0654C15.8783 26.6421 15.1358 29.498 15.4328 31.6651C15.6803 32.5999 15.93 33.537 16.227 34.4226ZM18.009 27.2325L18.0585 29.5964V30.3344H18.108C18.801 29.4488 19.5931 28.6616 20.4368 27.9236L22.4168 26.2462C23.1863 25.4171 23.7172 24.3974 23.9536 23.2941V23.1465H23.9041L23.6566 23.491C23.1945 24.0977 22.624 24.6147 21.9736 25.0162C20.7833 25.7542 19.9913 26.2977 19.296 27.2325C19.2488 27.2817 19.197 27.2817 19.2488 27.1833L19.6943 25.5596C19.9418 24.6226 20.0408 23.3903 20.3873 22.5539C20.5853 22.0619 20.9318 21.5699 21.3278 21.1762V21.0778C21.2288 21.0778 21.1793 21.127 21.0803 21.1762C19.8428 21.8159 18.9495 22.8513 18.4545 24.0322C18.1575 24.7702 17.9595 25.5596 18.009 26.3961V27.2325ZM20.6348 24.92L22.8151 23.1488C23.4586 22.5069 24.0526 21.8181 24.5476 21.0309C25.0615 20.2324 25.678 19.5039 26.3813 18.8638L26.5298 18.7162V18.6133C25.2741 18.8973 24.1032 19.4711 23.1121 20.2884C21.2783 21.7152 20.6843 24.5219 20.6371 24.9178M40.5519 40.1836C40.7004 39.9846 40.3539 39.837 40.2549 40.1836C40.1559 40.5281 40.4034 40.4297 40.5519 40.1836ZM44.3184 31.5153C44.1677 31.4661 43.6232 32.1057 43.7222 32.2041C43.9823 32.035 44.189 31.7962 44.3184 31.5153ZM44.4174 31.4169C44.5164 31.4661 44.8629 31.2692 44.8134 31.22C44.7639 31.1708 44.3184 30.974 44.3184 31.0724C44.3184 31.2692 44.3679 31.3677 44.4174 31.4169ZM51.1044 37.5223C51.3024 37.4731 51.2529 37.1779 51.1044 37.1779C50.9559 37.1779 50.7579 37.4239 50.8074 37.4239C50.8569 37.4239 51.0054 37.5715 51.1044 37.5223ZM48.6767 30.974C48.5282 30.974 48.4787 31.1216 48.6272 31.22C48.7757 31.2692 48.8747 31.22 48.9737 31.1708C49.0313 31.1452 49.0805 31.1038 49.1155 31.0516C49.1505 30.9994 49.17 30.9384 49.1717 30.8756C49.1717 30.728 48.9737 30.5312 49.0727 30.4328C49.1717 30.3344 49.3202 30.482 49.4214 30.4328C49.5227 30.3836 49.5699 30.2852 49.5699 30.1868C49.5699 30.0862 49.5204 29.791 49.3224 29.791C49.1244 29.791 48.9242 30.1868 48.9242 30.1868C48.8997 30.241 48.8871 30.2997 48.8871 30.359C48.8871 30.4184 48.8997 30.4771 48.9242 30.5312C48.9737 30.728 48.9242 30.974 48.6767 30.974ZM51.9482 31.0232C51.9482 31.1216 52.1957 31.7613 52.2452 31.9089C52.2947 32.0565 52.3442 32.5977 52.4432 32.5485C52.5422 32.4993 52.5422 32.2041 52.4927 32.0565C52.4393 31.7058 52.3565 31.3602 52.2452 31.0232C52.1957 30.8264 51.8492 30.0862 51.7502 30.1354C51.6489 30.1868 51.8987 30.6274 51.9482 30.8264C51.9977 31.0232 51.8987 30.9248 51.9482 31.0232ZM50.2134 22.6501C50.3619 22.6993 50.3619 22.404 50.1144 22.2072C49.8669 22.0104 49.4709 22.1088 49.5699 22.2072C49.7679 22.3548 49.9659 22.5517 50.2134 22.6501ZM42.7816 20.5344C42.4351 20.3376 42.7321 20.0424 42.4846 19.8433C42.1876 19.7449 41.8906 19.7941 41.6904 19.9909C41.4429 20.2884 41.9896 20.1877 42.1381 20.2884C42.2866 20.3868 42.7817 20.7312 42.8312 20.682C42.8807 20.6328 42.8311 20.5344 42.7816 20.5344ZM44.7617 19.5504C44.3184 19.3513 42.6827 19.3513 42.7322 19.7964C42.7817 20.2414 43.6727 19.7964 43.9202 19.7964C44.1677 19.7964 45.1577 19.7449 44.7639 19.5504M40.2549 38.5578C40.1559 38.5086 40.0074 38.607 39.9579 38.5086C39.9084 38.4102 39.8094 38.4594 39.8094 38.5086C39.8094 38.5578 39.7599 38.6562 39.8589 38.7546C39.9138 38.8021 39.9841 38.8283 40.0569 38.8283C40.1297 38.8283 40.2 38.8021 40.2549 38.7546C40.2788 38.7273 40.292 38.6923 40.292 38.6562C40.292 38.62 40.2788 38.585 40.2549 38.5578ZM39.3144 35.259C39.4629 35.259 39.4629 35.1606 39.5124 35.1606C39.5619 35.1606 39.5124 35.259 39.6609 35.259C39.8094 35.259 39.9579 34.9124 39.5124 34.9124C39.1636 34.9124 39.2131 35.259 39.3144 35.259ZM39.9084 35.6526C39.6609 35.6034 39.7104 35.751 39.5124 35.751C39.2131 35.8003 39.4629 35.5542 39.3639 35.4558C39.3144 35.4066 39.1636 35.6526 39.1164 35.8003C39.1164 35.8987 39.1164 36.0955 39.2131 36.1447L40.1559 36.2431C40.3539 36.2431 40.1559 35.7018 39.9084 35.6526ZM36.8371 38.853C36.9361 38.853 36.9856 38.5578 36.9361 38.4102C36.8866 38.2626 36.5874 38.361 36.5874 38.4594C36.5874 38.5578 36.7899 38.853 36.8371 38.853ZM32.8726 38.853C32.8726 38.7546 32.8726 38.361 32.7736 38.2626C32.6746 38.1642 32.6746 38.3118 32.6251 38.3118C32.5756 38.3118 32.5756 38.115 32.5261 38.115C32.4766 38.115 32.5261 38.4102 32.6251 38.607C32.7241 38.8038 32.8726 39.099 32.8726 38.853ZM32.7736 37.9673C32.8726 37.6721 32.9221 37.3747 32.9221 37.0795C32.9221 36.8335 32.7736 36.6367 32.7241 36.6367C32.6746 36.6367 32.7241 36.7843 32.7736 37.0303C32.7736 37.2763 32.6746 37.5223 32.6251 37.7683C32.6251 37.8197 32.7241 38.0658 32.7736 37.9673ZM27.7201 48.9974C35.1001 56.3351 46.9937 56.3351 54.3759 48.9974C61.7582 41.6597 61.756 29.8402 54.3759 22.5025C46.9959 15.1647 35.1024 15.167 27.7201 22.5025C20.3378 29.8379 20.3378 41.7089 27.7201 48.9974ZM23.0131 36.1469H25.8863C25.9358 37.6229 26.1833 39.0543 26.6288 40.4319C26.4719 40.3872 26.3219 40.3209 26.1833 40.2351C25.9853 40.1367 25.8368 40.2843 25.7873 40.2843C25.5893 40.2843 25.3418 40.1367 25.3418 40.2843C25.3418 40.4319 25.5398 40.3335 25.5398 40.4319C25.5398 40.5303 25.0448 40.5303 24.9953 40.3335C24.9458 40.1367 24.8468 39.9376 24.7973 40.1859C24.7478 40.4341 24.5498 40.3827 24.4508 40.4319C24.4013 40.4811 24.3518 40.5795 24.3518 40.6779C24.3518 40.7763 24.1043 40.7271 24.1043 40.8747C24.1043 41.0223 24.2528 41.0715 24.3023 41.2191C24.3518 41.3667 24.5003 41.4651 24.4013 41.5143C24.3023 41.5635 24.3518 41.4651 24.2528 41.5143C24.1538 41.5635 24.6983 43.0418 24.7973 42.9904C24.8963 42.9389 24.6488 42.4984 24.6488 42.3015C24.6488 42.1047 24.6983 42.0555 24.8468 41.9571C24.9953 41.8587 25.3913 42.5476 25.5398 42.4492C25.6883 42.3507 25.4903 42.2523 25.6388 42.2031C25.7873 42.1539 26.2328 42.845 26.3813 42.6482C26.4803 42.4984 26.5793 42.7466 26.5793 42.7958C26.7301 43.0418 26.9776 43.0418 27.1261 43.337C27.2746 43.6322 27.6211 44.1734 27.8686 44.1734C28.1161 44.1734 27.9676 43.9274 28.0666 43.9274C28.1656 43.9274 28.2646 44.2718 28.4131 44.4686C28.5179 44.6203 28.6774 44.726 28.8586 44.7639C29.2051 45.2089 29.6011 45.6517 29.9993 46.0945L27.9676 48.114C24.8206 44.9123 23.0447 40.6228 23.0131 36.1469ZM39.4134 32.0587L39.2131 32.1571C38.9406 32.2802 38.6898 32.4464 38.4706 32.6491L36.4389 30.6319C37.6291 29.5964 39.1164 28.9568 40.6509 28.9076V31.7635C40.2948 31.7986 39.9452 31.8814 39.6114 32.0095C39.7104 31.8127 39.9084 31.6159 39.9084 31.6159C39.9084 31.6159 39.5619 31.8127 39.4134 32.0587ZM37.8766 36.7373V36.8357C37.8766 36.7373 37.8271 36.6881 37.7776 36.5897C37.7281 36.5405 37.6786 36.4913 37.6291 36.4913H37.3816L37.2826 36.5405H36.5874C36.4884 36.5405 36.4389 36.5405 36.4389 36.4913C36.3894 36.2945 36.6864 36.4421 36.8866 35.8517C36.9361 35.8025 36.9361 35.7041 36.9856 35.6549L37.0351 35.5565L37.0846 35.5073L37.1341 35.4581C37.2331 35.3597 37.3321 35.3597 37.4311 35.3597H37.5301L37.6291 35.4581L37.7776 35.7533C37.8271 35.8025 37.8766 35.8025 37.8766 35.8517C37.9511 35.8885 38.0182 35.9385 38.0746 35.9993L38.1241 36.0485V36.0977C38.1736 36.1469 38.1736 36.1469 38.2231 36.1469H38.4211C38.5201 36.0977 38.5201 36.1469 38.5696 36.1469V36.1961C38.5696 36.2453 38.5696 36.2453 38.5201 36.2945C38.5201 36.3437 38.4706 36.3437 38.4706 36.3929C38.4211 36.4421 38.3716 36.4913 38.3221 36.4913C38.2231 36.4913 38.1241 36.4421 38.0746 36.4421C38.0251 36.4421 37.9756 36.4421 37.9756 36.4913V36.7373M32.5261 41.4651C32.3852 41.1915 32.3171 40.8867 32.3281 40.5795C32.3225 40.283 32.237 39.9934 32.0806 39.7408C32.0311 39.544 31.9816 39.3472 31.9816 39.1504C31.9816 38.806 31.6824 38.9044 31.6824 38.806C31.6824 38.7076 31.9299 38.806 31.9299 38.7076C31.9299 38.6092 31.6329 38.2156 31.3853 38.1172C31.1378 38.0188 31.2368 37.8712 31.2368 37.7236C31.2368 37.576 31.2368 37.4261 31.1378 37.3277C31.0883 37.1309 31.1378 36.7865 31.3853 36.7865C31.4844 36.7865 31.6329 36.8849 31.7836 36.7865C31.9321 36.6881 31.8331 36.3929 31.8331 36.1469H33.2191C33.2191 36.3437 33.2686 36.5897 33.2686 36.7865C33.1696 36.8357 33.1201 36.9341 33.1696 36.9833C33.2191 37.0325 33.2686 37.0817 33.3181 37.0325C33.5656 38.4616 34.2091 39.79 35.2014 40.8747L33.1696 42.8942C33.0211 42.7466 32.8726 42.5476 32.7241 42.3507V42.2031C32.7241 41.8587 32.4766 41.6619 32.3776 41.3667M30.5933 38.0188C30.459 37.4027 30.3763 36.7766 30.3458 36.1469H31.5339C31.4349 36.2945 31.1873 36.4421 31.1378 36.5897C31.0883 36.7373 30.7913 37.2293 30.9893 37.4261C31.4349 37.9181 30.8903 38.1172 30.5933 38.0188ZM30.8408 45.3073L30.5933 45.5533L30.2468 45.2089C30.4448 45.1105 30.6428 45.1597 30.8408 45.3073ZM33.9121 32.6491C33.8626 32.6491 33.8626 32.7006 33.8131 32.7006C33.6646 32.8482 33.2686 32.799 33.3181 32.9466C33.3676 33.0942 34.4094 32.5999 34.4094 32.7006C34.4094 32.8012 33.9616 32.9466 33.6669 33.0942C33.3721 33.2418 33.2686 33.4878 32.7736 33.4878C32.5261 33.4878 32.4271 33.6846 32.3281 33.8322C32.1944 34.0179 32.0784 34.2155 31.9816 34.4226C31.9876 34.73 31.9197 35.0344 31.7836 35.3105H30.3436C30.4429 32.7824 31.4447 30.3722 33.1696 28.5117L35.2014 30.5335C34.7072 31.1979 34.2756 31.9061 33.9121 32.6491ZM35.7954 31.1731L37.5796 32.9466H37.3816C37.1836 32.9466 37.1836 32.799 37.0351 32.799C36.7359 32.8482 36.6864 32.9466 36.6369 32.8974C36.4177 32.6946 36.1669 32.5285 35.8944 32.4054C35.5702 32.2966 35.2167 32.3133 34.9044 32.4523C34.8549 32.4523 34.8549 32.5015 34.8054 32.5015C35.1519 32.0587 35.4984 31.6159 35.7954 31.1731ZM33.3204 34.767C33.3204 34.9638 33.2686 35.1629 33.2686 35.3597H32.2291C32.1796 35.2121 32.2291 35.0622 32.3281 34.9146C32.4271 34.7178 32.6746 34.6194 32.9221 34.6686C33.0579 34.6837 33.1934 34.7168 33.3204 34.767ZM34.2091 37.0817L34.3104 37.2293C34.4094 37.3277 34.5084 37.4261 34.6074 37.3769C34.7064 37.3277 34.9539 37.3769 35.0034 37.3769C35.1519 37.4261 35.2509 37.5245 35.3499 37.6229C35.4489 37.7728 35.6469 37.6744 35.7954 37.7728C35.9439 37.8712 36.0924 37.9696 35.8944 38.068C35.6964 38.1664 36.0924 38.3632 36.1419 38.3632C36.1914 38.3632 36.2409 38.2648 36.2409 38.1172C36.2409 38.068 36.3399 37.8712 36.4884 37.9204C36.6369 37.9696 37.0846 38.5108 37.2309 38.314C37.3816 38.1172 37.2826 37.8712 37.3321 37.7728C37.3321 37.7236 37.3816 37.6744 37.4311 37.6744C37.5796 37.9204 37.6786 38.1172 37.8766 38.314L35.8449 40.3335C34.9846 39.4367 34.4148 38.3039 34.2091 37.0817ZM35.7954 30.0392L33.8154 28.022C35.6863 26.3093 38.1094 25.3144 40.6509 25.2152V28.0712C38.8666 28.1204 37.1836 28.8092 35.7954 30.0392ZM33.2191 27.4293L31.1896 25.412C33.7572 23.0052 37.1252 21.6203 40.6531 21.5207V24.3766C37.8853 24.4642 35.2439 25.5492 33.2214 27.4293M32.6274 27.9728C30.7442 29.9884 29.6539 32.6106 29.5561 35.3597H26.6783C26.7786 31.8531 28.1719 28.5054 30.5933 25.9533L32.6274 27.9728ZM29.5538 36.1469C29.5538 36.6881 29.6033 37.1801 29.7023 37.7236C29.6528 37.7236 29.6528 37.5737 29.5043 37.6229C29.3558 37.6721 28.8091 38.607 28.5616 39.0028C28.3636 39.3472 28.6606 40.0852 28.3636 40.3335C28.0766 40.4302 27.7757 40.48 27.4726 40.4811H27.4231C26.9399 39.1184 26.6719 37.6895 26.6288 36.2453L29.5538 36.1469ZM40.6014 53.6783C36.1018 53.5866 31.8028 51.8103 28.5638 48.7044L30.5933 46.6849C33.3034 49.2414 36.8668 50.7145 40.6014 50.8223V53.6783ZM40.6014 50.0329C37.0735 49.9333 33.7055 48.5483 31.1378 46.1415L31.4844 45.7993C31.5599 45.8593 31.6431 45.9089 31.7319 45.9469C31.9465 46.0545 32.1908 46.0891 32.4271 46.0453C32.6251 45.9961 33.0211 45.6517 33.2686 45.6517C33.5161 45.6517 33.9121 45.7501 34.1596 45.6025C34.4071 45.4549 34.0111 44.9607 33.8626 44.7147C33.8131 44.6655 33.8131 44.6163 33.7636 44.5671C35.7083 46.1986 38.1562 47.1196 40.7004 47.177L40.6014 50.0329ZM40.6014 46.3405C38.0591 46.2419 35.6351 45.247 33.7636 43.5338L35.7954 41.5143C36.7381 42.3507 37.8766 42.9904 39.1636 43.2878C38.7181 43.4846 38.5201 43.7798 38.5696 44.0258C38.6191 44.2718 38.2726 44.4194 38.2726 44.7147C38.2726 45.0099 38.6686 45.2067 38.7181 45.5041C38.7676 45.6517 39.1141 45.8977 39.4134 46.0945C39.8094 46.1929 40.2054 46.2421 40.5519 46.1929L40.6014 46.3405ZM40.5024 42.3999C40.3539 42.3015 40.2549 42.4984 40.0569 42.5968C38.6981 42.4009 37.4248 41.8201 36.3894 40.9239L38.4211 38.9044C39.0646 39.3964 39.8094 39.7408 40.6014 39.79C40.6014 39.8884 40.7004 39.9868 40.7004 40.1859C40.7004 40.3849 40.5519 40.4811 40.6014 40.5795C40.6509 40.6779 41.0964 40.5795 41.1459 40.4319C41.1954 40.2843 40.9974 40.1859 40.9479 40.036C40.8984 39.9376 40.8984 39.8884 40.8489 39.79H40.9996C41.1481 39.79 41.2966 39.79 41.4451 39.7408C41.4709 39.7392 41.4951 39.7284 41.5134 39.7103C41.5316 39.6921 41.5425 39.668 41.5441 39.6424C41.5441 39.5932 41.5936 39.544 41.5936 39.4948C41.5936 39.4456 41.6431 39.4456 41.6431 39.3964L41.6926 39.4456C41.7421 39.544 41.8434 39.8392 41.9401 39.79C42.0369 39.7408 42.0909 39.298 42.0414 39.1996C41.9932 39.1357 41.9671 39.0581 41.9671 38.9782C41.9671 38.8984 41.9932 38.8207 42.0414 38.7568C42.0414 38.7076 42.0909 38.4124 42.1899 38.4616C42.2889 38.5108 42.1899 38.7568 42.1899 38.8552C42.1899 39.0028 42.2889 39.1996 42.4374 39.1012C42.5364 39.052 42.6354 38.9044 42.7344 38.9536C42.8334 39.0028 42.4869 39.1012 42.4374 39.1996C42.3879 39.298 42.5859 39.3472 42.5364 39.3964C42.4869 39.4456 42.4374 39.3964 42.3879 39.4456C42.3384 39.4948 42.4869 39.79 42.3879 39.8392C42.2889 39.8884 41.9424 39.9868 41.8434 40.036C41.7444 40.0852 41.6431 39.9868 41.6926 39.9376C41.7421 39.8884 41.6926 39.6916 41.5936 39.6916C41.4946 39.6916 41.4946 39.7408 41.4946 39.8392C41.4946 39.9376 41.5936 40.0852 41.5936 40.1367C41.5936 40.1881 41.4451 40.2351 41.3461 40.2843C41.2471 40.4319 41.0986 40.5795 40.9501 40.6779C40.8016 40.7763 40.5046 40.7763 40.5046 40.8747C40.5046 40.9731 40.6531 40.9731 40.7026 41.0223C40.8016 41.1699 40.8511 41.3667 40.6531 41.4651C40.4551 41.5635 40.2076 41.3175 40.1086 41.3667C40.0096 41.4159 39.9601 41.6619 39.9106 41.9571C39.8611 42.2523 40.4551 42.3507 40.7521 42.2031C40.9501 42.1047 40.9006 41.8095 41.0986 41.7111C41.2966 41.6127 41.2471 41.4159 41.4451 41.4651C41.6431 41.5143 41.5936 41.3175 41.7939 41.3175C41.9941 41.3175 41.9919 41.4651 42.2394 41.5143C42.6354 41.6127 42.6354 41.9079 42.6849 41.7603C42.7344 41.6127 42.7839 41.5143 42.4869 41.4159C42.1899 41.3175 42.0414 40.9731 42.2889 41.0715C42.5859 41.2191 42.8334 41.2191 42.8829 41.3667C42.9324 41.5143 43.2294 41.4651 43.2789 41.6127C43.3284 41.8587 43.5264 41.6127 43.3779 41.4651C43.2294 41.3175 43.2789 41.2683 43.3779 41.1699C43.4769 41.0715 43.5264 41.2191 43.6749 41.0223C43.8234 40.8255 43.6254 40.8747 43.5759 40.7763C43.5264 40.6779 43.5759 40.1367 43.7739 40.2351C43.9719 40.3335 44.1699 40.1859 44.0709 40.1367C43.9719 40.0852 44.1204 39.79 44.1699 39.79C44.2194 39.79 44.1699 39.9868 44.2194 40.036C44.2689 40.0852 44.7662 39.8884 44.8157 40.1367C44.8652 40.3849 44.4692 40.5303 44.3702 40.5303C44.1699 40.5303 44.0214 40.7271 43.8752 40.9239C43.7244 41.1207 43.5759 41.1699 43.6749 41.3667C43.7739 41.5635 43.9719 41.5143 44.1699 41.4159C44.3679 41.3175 44.5187 41.1699 44.6177 41.1207C44.8157 41.0223 44.9642 41.6127 44.8652 41.7111C44.7662 41.8095 44.5682 41.8587 44.4692 41.9571C44.1699 42.1047 43.8729 42.2523 43.5264 42.2523C43.3284 42.3015 43.3284 42.3507 43.2789 42.5476C43.2294 42.7466 42.3384 42.5968 42.1404 42.5968C41.9424 42.5968 42.2889 42.1539 41.9919 42.2031L41.0986 42.3507C41.0491 42.3507 40.7499 42.5968 40.5024 42.3999ZM43.1304 46.9802C43.3779 47.0786 43.6254 47.2754 43.7739 47.4722C43.9224 47.7182 43.9719 47.8188 43.8729 48.0648C43.6254 48.5076 43.7244 48.8028 44.2194 48.9504C44.5187 49.0489 44.6177 49.3441 44.8157 49.5409C43.714 49.8285 42.5835 49.9935 41.4451 50.0329V47.177C41.9919 47.1278 42.5859 47.0786 43.1327 46.9802M41.4451 46.3897V46.0453C42.0909 45.9469 41.9401 46.3405 42.3879 46.1929C42.4565 46.1708 42.5301 46.1682 42.6001 46.1856C42.6701 46.203 42.7338 46.2397 42.7839 46.2913C42.3362 46.2996 41.8892 46.3324 41.4451 46.3897ZM41.4451 53.7275V50.8201C42.9465 50.7782 44.433 50.5128 45.8552 50.0329C45.9047 50.0843 45.9542 50.0843 46.0037 50.0843C46.2005 50.0707 46.3893 50.0016 46.5482 49.8853C47.0251 49.6989 47.4753 49.4507 47.8869 49.1473C49.1925 48.4873 50.3939 47.6412 51.4532 46.6357L53.4849 48.6552C50.2652 51.8086 45.9542 53.5799 41.4474 53.7275M49.4732 27.9728L50.1662 27.2817C50.3466 27.486 50.5905 27.6246 50.8592 27.6753C51.1067 27.7267 51.2057 27.8251 51.2552 28.0712C51.3047 28.3172 51.5522 28.4156 51.8019 28.4648C52.0517 28.514 52.1979 28.8092 52.3959 28.8092C52.5939 28.8092 53.2374 29.6948 53.4849 29.99C53.6334 30.1376 53.8314 30.3859 53.9799 30.1891C54.1284 29.99 54.1284 30.0392 54.2274 29.99C54.9826 31.6838 55.4035 33.5059 55.4672 35.3574H52.5939C52.5939 34.7178 52.4949 34.0782 52.3464 33.4386C52.4476 33.2406 52.4986 33.021 52.4949 32.799C52.4949 32.5999 52.2969 32.5015 52.1484 32.6491C52.0465 32.2781 51.914 31.9161 51.7524 31.5667C51.7007 31.3699 51.6512 31.1239 51.6017 30.9271C51.6017 30.8779 51.5027 30.8287 51.4037 30.7303C51.3047 30.5335 51.2552 30.3859 51.1562 30.2383C51.3047 30.1376 51.3542 29.8916 51.1562 29.9408C50.8592 29.99 51.0572 29.7932 50.9582 29.6948C50.8592 29.5964 50.8592 29.6948 50.8097 29.744C50.4245 29.1544 49.9942 28.5952 49.5227 28.0712V28.022C49.4237 28.022 49.4237 27.9728 49.4732 27.9728ZM51.2057 44.6655C51.1067 44.4686 51.0572 44.2226 50.9582 44.0258C50.9087 43.829 50.5127 43.829 50.5127 43.9274C50.5127 44.1242 50.5127 44.321 50.4632 44.5178V44.5671L49.4237 43.5338C51.3069 41.5181 52.3971 38.896 52.4949 36.1469H55.3682C55.277 39.6409 53.8815 42.9762 51.4532 45.5041L51.3047 45.3565C51.3425 45.1215 51.308 44.8806 51.2057 44.6655ZM48.8274 46.6357C48.9759 46.3897 49.2752 45.9469 49.4237 45.7009C49.5722 45.4549 49.0254 45.1105 48.7284 45.0099C48.4314 44.9092 48.4314 44.7639 48.4314 44.5178C48.5799 44.4194 48.7284 44.2718 48.8769 44.1242L50.9087 46.1437C50.2382 46.7709 49.508 47.3319 48.7284 47.8188C48.6789 47.7204 49.0254 47.3738 49.1244 47.2262C49.2234 47.0786 48.7284 46.8817 48.8274 46.6357ZM50.0649 34.8654C49.8174 34.521 50.1662 34.4718 50.5127 34.3242C50.7107 34.2258 50.9582 34.3734 50.9582 34.275C50.9582 34.1766 51.0572 33.9798 51.1562 33.9306C51.2552 33.8814 51.4037 33.783 51.4532 33.6846C51.4532 33.783 51.5027 33.8814 51.5027 33.9798C51.4079 34.1448 51.3568 34.331 51.3542 34.521C51.3542 34.6686 51.3542 34.8654 51.5027 34.521C51.5027 34.4718 51.5522 34.4718 51.5522 34.4226C51.6512 34.767 51.6512 35.0622 51.6512 35.3597H49.5227V35.3105C49.6712 35.0645 50.2157 35.1114 50.0672 34.8654M50.4632 30.8287C50.4632 30.8287 50.4632 30.8779 50.4137 30.8779C50.3642 30.9271 50.1167 30.5335 50.1167 30.8287C50.1167 31.1239 50.2157 31.2223 50.4137 31.2715C50.6117 31.3207 50.5127 31.4191 50.6612 31.4683C50.7107 31.4683 50.8097 31.5175 50.8592 31.5667C51.1067 32.1079 51.2552 32.6491 51.4037 33.2418C51.3292 33.2786 51.2621 33.3286 51.2057 33.3894C51.1067 33.4878 51.1562 33.6846 51.0572 33.8322C50.9087 34.0782 50.8592 34.2258 50.4632 34.1274C50.2157 34.029 50.4137 33.7338 50.4632 33.4878C50.5127 33.2418 50.6117 33.291 50.6117 33.1434C50.6117 32.9958 50.1167 32.4523 49.8692 32.6514C49.6217 32.8482 49.6712 33.045 49.4732 33.2418C49.3742 33.3402 49.2752 33.3402 49.1244 33.2418C48.9737 33.1434 48.9264 33.045 48.9759 32.9466C49.0254 32.8482 48.6294 32.4031 48.4809 32.2085C48.3866 32.0884 48.2667 31.9905 48.1297 31.9221C47.9927 31.8536 47.8422 31.8163 47.6889 31.8127C47.4196 31.3553 47.1036 30.9267 46.7462 30.5335L48.7779 28.514C49.4732 29.252 50.0154 29.99 50.4632 30.8287ZM47.0432 32.2063L46.9464 32.3539C46.8969 32.4523 46.6472 32.2555 46.5977 32.3047C46.5482 32.3539 46.9464 32.8482 46.5482 32.7006C46.1522 32.5507 46.3997 32.5507 46.3997 32.4031C46.3997 32.2555 46.0532 32.1571 46.2512 32.0587C46.4492 31.9603 46.2512 31.8127 46.4492 31.7635C46.6472 31.7143 46.5977 31.5175 46.3502 31.4683C46.1027 31.4191 46.1522 32.0095 46.0037 31.9111C45.8552 31.8619 45.7067 31.8619 45.5582 31.8619L46.2512 31.1731C46.3272 31.2127 46.4131 31.2298 46.4987 31.2223C46.5977 31.6159 46.8474 31.9111 47.0454 32.2063M46.2512 42.2031C46.5482 42.2523 46.8969 42.3015 47.1939 42.3999C47.3919 42.4984 47.5404 42.6974 47.6889 42.4492C47.9859 42.0063 48.1839 41.5143 48.2829 40.9731C48.3819 40.2351 48.2334 39.9891 48.1344 39.9891C48.0354 39.9891 47.8374 40.1859 47.6394 40.1859C47.5404 40.1859 47.5404 40.3827 47.5404 40.5303C47.5404 40.6779 47.3424 40.8255 47.2929 40.7271C47.2434 40.6287 47.1444 40.6779 47.1939 40.7763C47.2434 40.8747 46.7979 40.8255 46.5977 40.7271C46.3007 40.5795 46.9464 40.5795 47.2434 40.3335C47.4909 40.1367 47.7384 39.8884 47.9859 39.6424C48.1344 39.3964 48.1344 39.1012 48.3819 38.9044C48.6294 38.7076 49.0254 38.7568 49.0749 38.4616C49.1244 38.1664 49.1739 38.2156 49.3224 38.2648C49.4709 38.314 50.8592 38.2156 50.8592 37.7728C50.8592 37.5737 50.5622 37.3277 50.2652 37.2808C50.0672 37.2808 50.0177 36.8849 49.9187 36.6881C49.8219 36.481 49.7059 36.2834 49.5722 36.0977H51.6512C51.552 38.6247 50.551 41.034 48.8274 42.8942L48.7779 42.845V42.6482C48.8274 42.2523 48.5304 41.6127 48.4314 41.7111C48.3324 41.8095 48.4314 41.8095 48.1344 42.2523C48.0354 42.3999 47.8869 42.6482 47.6889 42.6482C47.4909 42.6482 47.4909 42.5476 47.1939 42.5968C46.9315 42.6462 46.6621 42.6462 46.3997 42.5968C45.9272 42.4444 45.4776 42.2293 45.0632 41.9571C45.1127 41.9079 45.2612 42.0063 45.2612 41.8587C45.2612 41.7111 46.0532 42.1539 46.2512 42.2031ZM54.0294 48.1632L51.9999 46.1437C54.5719 43.4501 56.054 39.9082 56.1625 36.1961H59.083C58.9859 40.6771 57.1795 44.954 54.0294 48.161M59.083 35.3597H56.1602C56.1148 33.2418 55.6081 31.1589 54.6752 29.2542L54.7247 29.2028C54.9227 29.006 53.7819 27.5277 53.5839 27.3801C53.3859 27.2325 53.1879 26.9865 52.9404 26.7405C52.5372 26.3495 52.1726 25.9212 51.8514 25.4612L53.9799 23.3433C57.1649 26.5524 58.9911 30.8528 59.083 35.3597ZM41.4451 17.8261C45.9585 17.9267 50.2709 19.7016 53.5344 22.8021L51.5544 24.7702C51.4532 24.721 51.3542 24.6718 51.4037 24.5734C51.5027 24.4258 51.2552 24.4258 51.2057 24.0322C51.0922 23.6353 50.8253 23.2992 50.4632 23.0973C50.2157 22.9497 50.0672 22.7529 49.8197 22.6523C49.5722 22.5539 49.0772 22.2587 48.8297 22.3571C48.6703 22.4134 48.5036 22.4465 48.3347 22.4555C46.2277 21.3357 43.8835 20.7287 41.4946 20.6842L41.4451 17.8261ZM41.4451 21.5207C43.5759 21.5699 45.6077 22.1111 47.5404 23.0481C47.5994 23.3705 47.7352 23.6742 47.9364 23.9338C48.0354 24.1798 48.1839 24.3766 48.3324 24.6226C48.4809 24.7702 48.3819 25.0654 48.4314 25.3136C48.4314 25.412 48.5304 25.5104 48.5799 25.6088V26.0025C48.5799 26.0517 48.7779 26.0517 48.9264 25.9533C49.0749 25.8549 49.1739 25.6581 49.3742 25.7073C49.5744 25.7565 49.8197 26.1501 49.9682 26.3961L49.0254 27.3309C48.9264 27.1341 48.8274 26.8881 48.8769 26.8881C48.9264 26.8881 49.0254 26.9373 49.0749 26.9373C49.2752 26.9373 48.9264 26.7897 48.9264 26.7405C48.7779 26.5929 48.7779 26.3961 48.5799 26.2485C48.3819 26.1009 48.0849 26.1993 47.9859 26.0025C47.7914 25.6518 47.5209 25.3485 47.1939 25.1146C47.1444 25.1146 47.5899 25.6581 47.4414 25.7565C47.2929 25.8549 46.7462 25.412 46.6989 25.5104C46.6472 25.6088 47.2929 25.8549 47.4909 26.0517C47.5899 26.1501 47.7879 26.4453 47.9859 26.6913C46.0967 25.27 43.8129 24.4618 41.4451 24.3766V21.5207ZM41.4451 25.166C43.9882 25.2641 46.4131 26.2591 48.2852 27.9728L46.2512 29.99C44.9196 28.8119 43.2252 28.1181 41.4451 28.022V25.166ZM41.4451 28.8584C43.0058 28.9373 44.4923 29.545 45.6572 30.5804L45.5582 30.6811L45.4592 30.6319C45.2117 30.5335 44.7167 31.0255 44.8157 31.0747C44.9147 31.1239 45.1127 30.8779 45.2117 30.9271H45.2612L44.4197 31.8127C44.1722 31.9111 43.9247 32.1079 43.9247 32.2555V32.3047L43.6254 32.5999L43.4769 32.4523C43.2422 32.2581 42.9738 32.1081 42.6849 32.0095C42.8334 31.9111 42.8829 31.7635 42.9324 31.5667C42.9324 31.2715 42.8334 31.3699 42.6849 31.5175C42.5364 31.6651 42.3879 31.7143 42.2889 31.8619C42.0353 31.7653 41.7662 31.7153 41.4946 31.7143V28.8584H41.4451ZM41.0986 32.5038C41.1481 32.5999 41.0986 32.7006 41.0491 32.7498C40.9501 32.8482 40.6531 32.5038 40.6036 32.799C40.5046 33.0942 40.8016 32.9466 40.8016 32.9958C40.9473 33.1827 41.1602 33.3062 41.3956 33.3402C41.5936 33.3402 41.8906 33.3402 41.8906 33.537C41.8906 33.6354 42.1381 33.6354 42.1899 33.7338C42.1899 33.8814 42.3384 34.1274 42.4374 34.0782C42.5364 34.029 42.6849 34.1274 42.7344 34.2258C42.7839 34.3242 42.7344 34.3734 42.6849 34.4718C42.5364 34.6194 42.8334 34.5702 42.8829 34.8654C42.9324 35.1606 42.6354 34.9638 42.5859 35.1629C42.4869 35.3105 42.3879 35.4089 42.2889 35.5565C42.2394 35.6057 42.3384 35.7041 42.3879 35.6549C42.4374 35.6057 42.5364 35.4581 42.6849 35.4581C42.8334 35.4581 42.9819 35.9993 43.1304 36.0485C43.2789 36.0977 43.2294 36.2945 43.2789 36.3437C43.3284 36.3929 43.0314 36.3437 43.0809 36.4421C43.1304 36.5405 43.4274 36.5897 43.4274 36.7373C43.3779 36.8849 43.2789 37.0325 43.0809 37.0325C42.9324 37.0325 42.6849 36.6881 42.6849 36.7865C42.6849 36.8849 42.7839 37.1801 42.9324 37.1801C43.0809 37.1801 43.4274 37.0325 43.2789 37.2293C43.1304 37.4261 43.1799 37.7213 43.0809 37.7213C42.9819 37.7213 42.9324 37.7213 43.0314 37.8712C43.0809 38.0188 43.0314 38.1664 42.9324 38.314C42.8334 38.4124 42.5859 38.314 42.5859 38.2648C42.5859 38.2156 42.8829 38.2156 42.8829 38.068C42.8829 37.9204 42.7344 37.8712 42.4374 37.9696C42.2889 38.0188 42.2394 37.9204 42.1404 37.9204C42.0414 37.9204 41.7444 38.2648 41.7444 38.314V38.56C41.7477 38.7357 41.6949 38.908 41.5936 39.052C41.3956 39.1012 41.2471 39.1012 41.0491 39.1012C40.2571 39.1012 39.4651 38.7568 38.8689 38.2648C38.9927 38.203 39.1287 38.1694 39.2671 38.1664C39.4156 38.2156 39.4651 38.1172 39.5641 38.068C39.6631 38.0188 39.9106 38.1664 40.0591 38.068C40.2076 37.9696 40.5541 37.33 40.5046 37.1801C40.4551 37.0303 40.8511 36.7865 40.8016 36.7373C40.7521 36.6881 40.7026 36.7865 40.7026 36.7373C40.7026 36.6881 40.8016 36.6881 40.7026 36.4913C40.6036 36.2945 40.4551 36.3929 40.3561 36.3929C40.2076 36.2945 39.9601 36.2453 39.9106 36.2945C39.8611 36.3437 39.7126 36.1961 39.6631 36.2453C39.6136 36.2453 39.5146 36.2945 39.5146 36.3929C39.4651 36.4913 39.5641 36.5897 39.5641 36.6881C39.5146 36.8849 39.2154 37.0325 39.2154 37.1801C39.2154 37.3277 39.0669 37.2293 39.0174 37.2785C38.9679 37.3277 39.0174 37.4261 38.9184 37.4261C38.8194 37.4261 38.6709 37.6721 38.5719 37.8712C38.4234 37.6744 38.2749 37.4261 38.1264 37.2293C38.2254 37.1801 38.3244 37.1309 38.3739 37.1801C38.5224 37.2785 39.1164 36.2453 39.0174 35.9501C38.9184 35.6549 38.7699 35.8517 38.6214 35.9009C38.4729 35.9501 38.4729 35.8025 38.5224 35.7533C38.5719 35.7041 39.2154 35.7041 38.8689 35.5073C38.7204 35.4089 38.3244 35.4089 38.3739 35.2613C38.4234 35.1137 38.6214 35.2613 38.6709 35.2613C38.9184 35.3597 39.0669 34.8654 39.2154 34.8654C39.4629 34.8654 39.3661 34.3734 39.1164 34.521C38.8666 34.6686 38.7699 34.6194 38.6709 34.767C38.5719 34.9146 38.3244 35.1114 38.3244 34.9146C38.3244 34.8162 38.8689 34.521 38.9679 34.3734C39.0783 34.2617 39.1628 34.1274 39.2154 33.9798C39.2671 33.8322 39.9579 33.7338 40.1086 33.6354C40.2076 33.537 40.3066 33.3894 40.3066 33.2418C40.3066 33.0942 40.1086 33.1434 40.0591 33.045C40.0096 32.9466 40.3066 33.045 40.3066 32.8974C40.3066 32.7498 40.0591 32.8974 39.9601 32.799C39.9601 32.7498 39.9601 32.7498 40.0096 32.7006C40.4551 32.5507 40.7521 32.5015 41.0986 32.5015H41.1976M40.6531 17.8283V20.6842C36.9185 20.7921 33.3551 22.2652 30.6451 24.8216L28.6133 22.8021C31.8529 19.6958 36.1528 17.9194 40.6531 17.8283ZM27.9676 23.3925L29.9993 25.412C27.4274 28.1057 25.9453 31.6476 25.8368 35.3597H22.9636C23.1005 30.8961 24.8812 26.6377 27.9676 23.3925Z" fill="#307CED"/>
<defs>
<filter id="filter0_d_2853_57" x="0.221924" y="0" width="80" height="80" filterUnits="userSpaceOnUse" color-interpolation-filters="sRGB">
<feFlood flood-opacity="0" result="BackgroundImageFix"/>
<feColorMatrix in="SourceAlpha" type="matrix" values="0 0 0 0 0 0 0 0 0 0 0 0 0 0 0 0 0 0 127 0" result="hardAlpha"/>
<feOffset dx="-1" dy="2"/>
<feGaussianBlur stdDeviation="2.5"/>
<feComposite in2="hardAlpha" operator="out"/>
<feColorMatrix type="matrix" values="0 0 0 0 0 0 0 0 0 0 0 0 0 0 0 0 0 0 0.25 0"/>
<feBlend mode="normal" in2="BackgroundImageFix" result="effect1_dropShadow_2853_57"/>
<feBlend mode="normal" in="SourceGraphic" in2="effect1_dropShadow_2853_57" result="shape"/>
</filter>
</defs>
</svg>
