<svg width="81" height="81" viewBox="0 0 81 81" fill="none" xmlns="http://www.w3.org/2000/svg">
<g filter="url(#filter0_d_1408_194)">
<circle cx="41.5276" cy="38.4873" r="35" fill="white"/>
</g>
<path d="M34.9275 18.4004C34.7311 18.4017 34.5382 18.4519 34.366 18.5464C33.8007 18.8597 33.5934 19.586 33.9066 20.1509L35.1828 22.4555C32.1079 24.3579 30.0704 27.6076 30.0704 31.3166V32.0057C29.4798 31.3262 28.6117 30.8972 27.6418 30.8972C25.8647 30.8972 24.4219 32.3401 24.4219 34.1171V44.0357C24.4219 45.8125 25.8649 47.2555 27.6418 47.2555C28.6117 47.2555 29.4798 46.8264 30.0703 46.1469V47.5363C30.0703 49.4095 31.603 50.9421 33.4762 50.9421H34.3404V55.3545C34.3404 57.1316 35.7834 58.5744 37.5604 58.5744C39.3373 58.5744 40.7802 57.1314 40.7802 55.3545V50.9421H42.2753V55.3545C42.2753 57.1316 43.7183 58.5744 45.4952 58.5744C47.2722 58.5744 48.7151 57.1314 48.7151 55.3545V50.9421H49.5794C51.4524 50.9421 52.9852 49.4095 52.9852 47.5363V46.1469C53.5757 46.8264 54.4439 47.2555 55.4138 47.2555C57.1907 47.2555 58.6336 45.8125 58.6336 44.0357V34.1171C58.6336 32.3401 57.1907 30.8972 55.4138 30.8972C54.4439 30.8972 53.5757 31.3262 52.9852 32.0057V31.4332V31.4003C52.9855 31.3655 52.9852 31.3376 52.9852 31.3166C52.9852 27.6083 50.943 24.3618 47.8691 22.4592L49.149 20.1509C49.4621 19.586 49.2549 18.8597 48.6896 18.5464C48.5174 18.4519 48.3245 18.4017 48.1281 18.4004C47.7106 18.3964 47.3009 18.6165 47.0851 19.0058L45.7468 21.4235C44.4382 20.9407 43.0144 20.676 41.5279 20.676C40.0427 20.676 38.6162 20.9378 37.3087 21.4198L35.9705 19.0058C35.7546 18.6165 35.345 18.3967 34.9275 18.4004Z" fill="#71910C"/>
<path d="M27.6384 31.7334C26.3125 31.7334 25.2573 32.7885 25.2573 34.1145V44.0332C25.2573 45.3592 26.3125 46.4143 27.6384 46.4143C28.9644 46.4143 30.0197 45.3592 30.0197 44.0332V34.1145C30.0197 32.7885 28.9644 31.7334 27.6384 31.7334V31.7334ZM55.4105 31.7334C54.0844 31.7334 53.0293 32.7885 53.0293 34.1145V44.0332C53.0293 45.3592 54.0844 46.4143 55.4105 46.4143C56.7365 46.4143 57.7916 45.3592 57.7916 44.0332V34.1145C57.7916 32.7885 56.7365 31.7334 55.4105 31.7334V31.7334Z" fill="#A4C639"/>
<path d="M37.5685 43.0557C36.2425 43.0557 35.1873 44.1108 35.1873 45.4369V55.3554C35.1873 56.6814 36.2425 57.7366 37.5685 57.7366C38.8945 57.7366 39.9496 56.6814 39.9496 55.3554V45.4369C39.9496 44.1108 38.8945 43.0557 37.5685 43.0557ZM45.5034 43.0557C44.1773 43.0557 43.1222 44.1108 43.1222 45.4369V55.3554C43.1222 56.6814 44.1773 57.7366 45.5034 57.7366C46.8294 57.7366 47.8845 56.6814 47.8845 55.3554V45.4369C47.8845 44.1108 46.8294 43.0557 45.5034 43.0557Z" fill="#A4C639"/>
<path d="M34.9439 19.2356C34.8876 19.2363 34.8324 19.2514 34.7835 19.2793C34.6137 19.3734 34.5579 19.5685 34.6521 19.7388L36.3297 22.7691C33.1025 24.4483 30.9225 27.6395 30.9182 31.302H52.1556C52.1512 27.6395 49.9714 24.4482 46.7442 22.7691L48.4216 19.7389C48.5159 19.5687 48.46 19.3734 48.2902 19.2793C48.2414 19.2513 48.1861 19.2363 48.1298 19.2356C48.0092 19.2343 47.8952 19.2946 47.8308 19.4107L46.1315 22.4737C44.7414 21.8572 43.1822 21.511 41.5369 21.511C39.8915 21.511 38.3325 21.8571 36.9423 22.4737L35.2429 19.4107C35.2139 19.3569 35.1707 19.3121 35.118 19.2813C35.0653 19.2504 35.0051 19.2346 34.944 19.2356H34.9439ZM30.9182 32.1407V47.5328C30.9175 47.8701 30.9834 48.2043 31.1122 48.516C31.2409 48.8278 31.43 49.1111 31.6685 49.3496C31.907 49.5881 32.1903 49.7772 32.5021 49.9059C32.8139 50.0347 33.148 50.1006 33.4854 50.0998H49.5885C49.9258 50.1006 50.26 50.0347 50.5718 49.9059C50.8836 49.7772 51.1669 49.5881 51.4054 49.3496C51.6439 49.111 51.833 48.8277 51.9617 48.5159C52.0905 48.2042 52.1564 47.87 52.1556 47.5327V32.1408H30.9182V32.1407Z" fill="#A4C639"/>
<path d="M36.6303 25.647C36.1455 25.647 35.7441 26.0482 35.7441 26.533C35.7441 27.0179 36.1455 27.4191 36.6303 27.4191C37.1152 27.4191 37.5164 27.0179 37.5164 26.533C37.5164 26.0482 37.1152 25.647 36.6303 25.647ZM46.4322 25.647C45.9473 25.647 45.5461 26.0482 45.5461 26.533C45.5461 27.0179 45.9473 27.4191 46.4322 27.4191C46.917 27.4191 47.3183 27.0179 47.3183 26.533C47.3183 26.0482 46.917 25.647 46.4322 25.647Z" fill="#71910C"/>
<defs>
<filter id="filter0_d_1408_194" x="0.527588" y="0.487305" width="80" height="80" filterUnits="userSpaceOnUse" color-interpolation-filters="sRGB">
<feFlood flood-opacity="0" result="BackgroundImageFix"/>
<feColorMatrix in="SourceAlpha" type="matrix" values="0 0 0 0 0 0 0 0 0 0 0 0 0 0 0 0 0 0 127 0" result="hardAlpha"/>
<feOffset dx="-1" dy="2"/>
<feGaussianBlur stdDeviation="2.5"/>
<feComposite in2="hardAlpha" operator="out"/>
<feColorMatrix type="matrix" values="0 0 0 0 0 0 0 0 0 0 0 0 0 0 0 0 0 0 0.25 0"/>
<feBlend mode="normal" in2="BackgroundImageFix" result="effect1_dropShadow_1408_194"/>
<feBlend mode="normal" in="SourceGraphic" in2="effect1_dropShadow_1408_194" result="shape"/>
</filter>
</defs>
</svg>
