<svg width="81" height="81" viewBox="0 0 81 81" fill="none" xmlns="http://www.w3.org/2000/svg">
<g filter="url(#filter0_d_1408_201)">
<circle cx="41.5276" cy="38.3904" r="35" fill="white"/>
</g>
<path d="M16.1875 41.3737C16.1875 41.6837 16.3337 41.9473 16.6261 42.1643C16.9185 42.3813 17.2677 42.4898 17.6738 42.4898H25.422C25.7957 42.4898 26.1205 42.403 26.3967 42.2294C26.6728 42.0558 26.8434 41.8326 26.9083 41.5597L29.2474 31.106L33.4627 57.2589C33.5277 57.5441 33.6942 57.7798 33.9622 57.9658C34.2302 58.1518 34.5429 58.2448 34.9003 58.2448C35.2901 58.2448 35.6231 58.1518 35.8992 57.9658C36.1754 57.7798 36.3459 57.5441 36.4109 57.2589L39.6515 38.0628L42.3561 43.6244C42.4536 43.8477 42.6282 44.0275 42.88 44.1639C43.1318 44.3003 43.412 44.3685 43.7206 44.3685H43.8424C44.151 44.3561 44.4313 44.2693 44.683 44.1081C44.9348 43.9469 45.1013 43.7423 45.1825 43.4942L49.1541 29.8784L51.0059 56.0313C51.0221 56.3165 51.1521 56.5614 51.3957 56.766C51.6394 56.9706 51.948 57.0853 52.3216 57.1101C52.6952 57.1349 53.0282 57.0667 53.3206 56.9055C53.613 56.7443 53.7998 56.5273 53.881 56.2545L58.1694 42.4898H65.3816C65.7877 42.4898 66.1369 42.3813 66.4293 42.1643C66.7217 41.9473 66.8679 41.6837 66.8679 41.3737C66.8679 41.0637 66.7217 40.7971 66.4293 40.5739C66.1369 40.3507 65.7877 40.2391 65.3816 40.2391H56.9998C56.6587 40.2391 56.3541 40.3197 56.0861 40.4809C55.8181 40.6421 55.6435 40.8467 55.5623 41.0947L53.3937 48.1259L51.5176 21.6009C51.5013 21.3157 51.3633 21.0708 51.1034 20.8662C50.8435 20.6616 50.5348 20.5531 50.1775 20.5407C49.8039 20.5159 49.4668 20.5872 49.1663 20.7546C48.8658 20.922 48.6749 21.1483 48.5937 21.4335L43.4038 39.2346L40.3825 32.9661C40.2688 32.7305 40.0617 32.5445 39.7612 32.4081C39.4607 32.2717 39.148 32.2159 38.8231 32.2407C38.482 32.2655 38.1937 32.3709 37.9581 32.5569C37.7226 32.7429 37.5723 32.9661 37.5074 33.2265L34.949 48.1259L30.9774 23.2192C30.9124 22.934 30.75 22.7015 30.4901 22.5217C30.2302 22.3419 29.9216 22.2458 29.5642 22.2334C29.1906 22.221 28.8617 22.3016 28.5774 22.4752C28.2931 22.6488 28.1185 22.8782 28.0535 23.1634L24.2038 40.2391H17.6738C17.2677 40.2391 16.9185 40.3507 16.6261 40.5739C16.3337 40.7971 16.1875 41.0637 16.1875 41.3737Z" fill="#FF3C3C"/>
<defs>
<filter id="filter0_d_1408_201" x="0.527588" y="0.390381" width="80" height="80" filterUnits="userSpaceOnUse" color-interpolation-filters="sRGB">
<feFlood flood-opacity="0" result="BackgroundImageFix"/>
<feColorMatrix in="SourceAlpha" type="matrix" values="0 0 0 0 0 0 0 0 0 0 0 0 0 0 0 0 0 0 127 0" result="hardAlpha"/>
<feOffset dx="-1" dy="2"/>
<feGaussianBlur stdDeviation="2.5"/>
<feComposite in2="hardAlpha" operator="out"/>
<feColorMatrix type="matrix" values="0 0 0 0 0 0 0 0 0 0 0 0 0 0 0 0 0 0 0.25 0"/>
<feBlend mode="normal" in2="BackgroundImageFix" result="effect1_dropShadow_1408_201"/>
<feBlend mode="normal" in="SourceGraphic" in2="effect1_dropShadow_1408_201" result="shape"/>
</filter>
</defs>
</svg>
