<svg width="81" height="81" viewBox="0 0 81 81" fill="none" xmlns="http://www.w3.org/2000/svg">
<g filter="url(#filter0_d_2512_82)">
<circle cx="41.6958" cy="38.938" r="35" fill="white"/>
</g>
<path d="M58.1952 22.1518C58.1955 23.0318 58.0004 23.9007 57.6239 24.6954C57.2475 25.49 56.6992 26.1904 56.0191 26.7454C55.3389 27.3004 54.544 27.696 53.6923 27.9036C52.8406 28.1111 51.9535 28.1253 51.0956 27.9451L48.0785 32.9551C49.0397 33.8408 49.8068 34.9176 50.3311 36.117C50.8554 37.3164 51.1253 38.6123 51.1239 39.9221V40.0594L54.1787 40.6747C54.8436 39.4288 55.9307 38.4632 57.2433 37.9524C58.5559 37.4416 60.0073 37.4195 61.3347 37.89C62.6622 38.3606 63.778 39.2928 64.4802 40.5178C65.1824 41.7428 65.4246 43.1797 65.1629 44.5684C64.9013 45.9572 64.1531 47.206 63.0538 48.0889C61.9545 48.9718 60.5767 49.4304 59.1697 49.3817C57.7628 49.3329 56.4197 48.7801 55.3836 47.8233C54.3475 46.8665 53.6868 45.5689 53.5211 44.1653L50.4097 43.5358C49.598 45.5024 48.152 47.1383 46.3036 48.1813L47.4704 51.7595H47.5882C48.991 51.7597 50.3477 52.2624 51.4144 53.1771C52.481 54.0918 53.1877 55.3585 53.4073 56.7495C53.627 58.1405 53.3451 59.5646 52.6125 60.7657C51.8799 61.9667 50.7446 62.866 49.4107 63.3018C48.0768 63.7376 46.6317 63.6814 45.3354 63.1432C44.0391 62.605 42.9765 61.6201 42.3388 60.3657C41.701 59.1113 41.5298 57.6696 41.8561 56.2999C42.1823 54.9301 42.9846 53.7221 44.1186 52.8931L42.9495 49.3054C41.2742 49.5325 39.569 49.3024 38.0128 48.6395C36.4567 47.9766 35.107 46.9052 34.1056 45.5379L29.8746 47.5424C30.0324 48.9469 29.6841 50.3617 28.8928 51.5308C28.1015 52.6998 26.9195 53.5458 25.5608 53.9156C24.202 54.2854 22.7563 54.1546 21.4852 53.5469C20.2142 52.9392 19.2019 51.8946 18.6315 50.6024C18.0612 49.3101 17.9704 47.8556 18.3757 46.502C18.7811 45.1484 19.6557 43.9852 20.8412 43.223C22.0268 42.4608 23.445 42.1499 24.8391 42.3466C26.2332 42.5434 27.5111 43.2347 28.4415 44.2955L32.5759 42.3336C32.1961 40.8806 32.1656 39.3577 32.4868 37.8905C32.8081 36.4233 33.472 35.0537 34.4238 33.8946L32.0879 31.2204C30.7798 31.7427 29.3287 31.7776 27.9972 31.3188C26.6657 30.86 25.5418 29.9377 24.8289 28.7189C24.116 27.5002 23.8612 26.0655 24.1107 24.6744C24.3602 23.2834 25.0974 22.028 26.189 21.1355C27.2805 20.2429 28.6542 19.7722 30.0615 19.8085C31.4688 19.8448 32.8167 20.3857 33.8611 21.3334C34.9056 22.281 35.5776 23.5727 35.7557 24.9748C35.9337 26.3768 35.6059 27.7965 34.8316 28.9769L37.1486 31.6274C38.541 30.8566 40.1055 30.4535 41.6955 30.456C42.8858 30.456 44.029 30.6761 45.0756 31.0831L48.0102 26.2081C47.3514 25.505 46.8741 24.6507 46.6197 23.7198C46.3653 22.7889 46.3417 21.8097 46.5508 20.8675C46.7599 19.9254 47.1955 19.0489 47.8195 18.3146C48.4435 17.5802 49.237 17.0103 50.1308 16.6546C51.0245 16.2988 51.9914 16.1681 52.9471 16.2737C53.9027 16.3793 54.8182 16.718 55.6135 17.2604C56.4088 17.8028 57.0599 18.5323 57.5099 19.3853C57.9599 20.2383 58.1952 21.1866 58.1952 22.1518Z" fill="#EA5455"/>
<defs>
<filter id="filter0_d_2512_82" x="0.695801" y="0.937988" width="80" height="80" filterUnits="userSpaceOnUse" color-interpolation-filters="sRGB">
<feFlood flood-opacity="0" result="BackgroundImageFix"/>
<feColorMatrix in="SourceAlpha" type="matrix" values="0 0 0 0 0 0 0 0 0 0 0 0 0 0 0 0 0 0 127 0" result="hardAlpha"/>
<feOffset dx="-1" dy="2"/>
<feGaussianBlur stdDeviation="2.5"/>
<feComposite in2="hardAlpha" operator="out"/>
<feColorMatrix type="matrix" values="0 0 0 0 0 0 0 0 0 0 0 0 0 0 0 0 0 0 0.25 0"/>
<feBlend mode="normal" in2="BackgroundImageFix" result="effect1_dropShadow_2512_82"/>
<feBlend mode="normal" in="SourceGraphic" in2="effect1_dropShadow_2512_82" result="shape"/>
</filter>
</defs>
</svg>
