<svg width="80" height="80" viewBox="0 0 80 80" fill="none" xmlns="http://www.w3.org/2000/svg">
<rect width="80" height="80" rx="40" fill="#8D24DF"/>
<path d="M57.5 26H22.5C21.837 26 21.2011 26.2634 20.7322 26.7322C20.2634 27.2011 20 27.837 20 28.5V53.5C20 54.163 20.2634 54.7989 20.7322 55.2678C21.2011 55.7366 21.837 56 22.5 56H57.5C58.163 56 58.7989 55.7366 59.2678 55.2678C59.7366 54.7989 60 54.163 60 53.5V28.5C60 27.837 59.7366 27.2011 59.2678 26.7322C58.7989 26.2634 58.163 26 57.5 26ZM55.575 53.5H24.575L33.325 44.45L31.525 42.7125L22.5 52.05V30.4L38.0375 45.8625C38.5059 46.3281 39.1395 46.5895 39.8 46.5895C40.4605 46.5895 41.0941 46.3281 41.5625 45.8625L57.5 30.0125V51.8875L48.3 42.6875L46.5375 44.45L55.575 53.5ZM24.1375 28.5H55.475L39.8 44.0875L24.1375 28.5Z" fill="white"/>
</svg>
