<svg width="81" height="80" viewBox="0 0 81 80" fill="none" xmlns="http://www.w3.org/2000/svg">
<g filter="url(#filter0_d_2853_60)">
<circle cx="41.459" cy="38" r="35" fill="white"/>
</g>
<path d="M44.4872 14.0817C45.2787 14.234 45.3321 14.3327 45.003 15.0343C44.6756 15.7313 44.6916 15.5741 44.6821 18.0961C44.6732 20.2093 44.6269 21.0143 44.5128 21.1272C44.5009 21.139 44.2668 21.2081 43.9929 21.2795C43.0898 21.5152 43.1136 21.4874 43.0066 22.5299C42.9742 22.8047 42.9478 23.0802 42.9276 23.3562C42.9323 23.3609 43.8586 23.557 44.9863 23.792L47.0379 24.2214L49.2618 25.467L50.0788 26.803C50.5268 27.5366 50.8999 28.1366 50.9094 28.1366C50.9166 28.1366 51.5547 27.8963 52.3229 27.6033C53.0935 27.3104 53.7317 27.0753 53.7412 27.0842C53.762 27.1048 54.4304 31.6638 54.4137 31.678C54.3187 31.7583 49.8091 33.0807 49.7021 33.06C49.6261 33.0459 48.8186 32.8061 47.906 32.5267C46.994 32.2479 46.2424 32.0282 46.2329 32.0353C46.2257 32.0448 46.1794 32.9768 46.133 34.1096C46.106 34.7989 46.0735 35.488 46.0356 36.1767C46.0308 36.1815 45.6571 36.4856 45.2097 36.8571L44.3922 37.5304L43.7517 37.5104C43.4011 37.4962 41.7417 37.4661 40.0662 37.4407L37.0211 37.3946L36.0348 36.788C35.6076 36.5252 35.1787 36.2624 34.7467 36.0013C34.3825 35.7822 34.3777 35.8927 34.7818 35.0162C34.9648 34.6122 35.118 34.2572 35.118 34.2271C35.118 34.1905 36.4389 33.7127 38.7198 32.9236C40.8112 32.1989 42.2728 31.6733 42.2039 31.6662C41.9092 31.6408 35.0973 31.4725 34.7324 31.4819C34.0456 31.4996 32.4978 30.7318 31.7248 29.9912C31.6387 29.9085 31.502 25.7417 31.5834 25.6678C32.6529 24.6992 33.3148 24.2255 34.4752 23.603L35.6474 22.9711L37.2623 23.0355C38.6711 23.091 38.8939 23.091 39.008 23.0355C39.0793 22.9982 39.8641 22.6734 40.753 22.3108L42.3709 21.651L40.8391 21.5542C40.3046 21.5179 39.7699 21.4848 39.2349 21.455C39.1333 21.4573 38.1607 20.1054 38.1167 19.9046C38.0208 19.3302 37.9303 18.7549 37.8452 18.1788L37.6105 16.6148L38.2997 15.4519C38.8363 14.5453 39.008 14.2866 39.0799 14.2842C39.131 14.2825 40.0382 14.2134 41.0964 14.1301C43.1439 13.9706 43.8491 13.9618 44.4872 14.0817ZM58.1207 23.8635C58.5984 23.9096 58.9121 23.9952 59.0695 24.1198C59.1646 24.196 59.2163 24.6939 59.3203 26.6134L59.3298 26.8077L57.271 27.6724C56.1362 28.1479 55.1754 28.5495 55.1356 28.5607C55.0477 28.5908 53.9408 27.0404 54.0056 26.9808C54.0264 26.9619 54.3466 26.8308 54.7156 26.6896C54.9486 26.6027 55.1807 26.5135 55.4119 26.4221C55.4262 26.4132 55.4119 26.0393 55.384 25.5917C55.3543 25.1416 55.3424 24.7542 55.3584 24.7311C55.3727 24.7057 55.5533 24.4795 55.7577 24.2303L56.1338 23.7737L56.9021 23.7991C57.3269 23.8109 57.8747 23.8405 58.1201 23.8641M56.2313 25.4529C56.2455 25.571 56.2824 25.9472 56.3127 26.2886C56.3424 26.6323 56.3727 26.9205 56.3798 26.93C56.3982 26.953 58.0999 26.4729 58.0969 26.4457C58.0951 26.4156 56.2847 25.2432 56.2408 25.2432C56.2217 25.2432 56.217 25.3371 56.2313 25.4529ZM44.372 29.0314C44.0161 29.7124 43.659 30.3904 43.3013 31.0691L43.0345 31.574L43.9073 30.8978L44.7802 30.2245L44.8057 29.9221C44.8194 29.7585 44.9144 29.2045 45.0166 28.6924C45.3018 27.2596 45.3006 27.2619 44.372 29.0314ZM34.5542 39.0424C35.2456 39.2441 35.9411 39.4318 36.6403 39.6053C37.2184 39.7459 37.7175 39.8728 37.7478 39.8888C37.7822 39.9071 37.6646 40.0778 37.4156 40.369L37.0282 40.8208L36.5684 41.9654L36.1067 43.1071L37.5042 43.0752C38.2742 43.0586 38.9058 43.0427 38.9081 43.038C38.9105 43.0356 38.9569 42.6021 39.0103 42.0759C39.0983 41.2059 39.1173 41.109 39.2076 41.0287C39.2629 40.9803 39.6324 40.7033 40.0311 40.4144L40.753 39.8912L41.5123 40.4263L42.2687 40.9596L42.3501 41.9743C42.3917 42.533 42.4315 42.9895 42.4356 42.9895L43.6566 42.976L44.8728 42.9618L44.1438 41.4598C43.7428 40.6365 43.4201 39.9538 43.4291 39.9467C43.4362 39.9372 43.9121 39.8841 44.4872 39.8268C45.4646 39.7293 45.5805 39.7087 46.2816 39.496C46.6921 39.372 47.0569 39.2704 47.0896 39.2704C47.1241 39.2704 47.985 40.2166 49.0064 41.3748C51.26 43.9263 51.276 43.9446 52.8125 45.3703C55.586 47.9478 55.9621 48.4298 56.3685 49.9181C56.6329 50.882 56.744 51.1543 57.6958 53.1642C58.1902 54.2066 58.6429 55.2431 58.8146 55.7275C58.9768 56.1881 59.0285 56.1031 58.3571 56.4953C58.1183 56.6341 57.921 56.7723 57.921 56.8024C57.9186 56.9754 58.5009 57.2152 60.4343 57.8407C62.9339 58.6481 63.3498 58.9499 62.7669 59.5358C62.3469 59.9563 62.0569 60 59.6453 60C57.1736 60 56.5052 59.9285 56.2289 59.6356C56.034 59.4301 55.9692 59.5659 56.9811 58.0575C57.4778 57.3215 57.8747 56.712 57.8675 56.7079C57.858 56.7008 57.0369 56.7723 56.0387 56.8644L54.2236 57.0375L52.8357 56.9193C52.0722 56.8555 51.4275 56.7858 51.4014 56.7675C51.3758 56.7492 50.522 55.0329 49.5007 52.9539L47.644 49.1751L44.8402 47.4033L42.0387 45.6314L40.8742 45.6592C40.3687 45.6686 39.8634 45.6864 39.3585 45.7123L39.008 45.7395L36.6634 48.3051L34.3225 50.8708L31.4046 53.6526L28.4873 56.438L27.6097 56.5484L26.7328 56.6571L24.9153 56.4008C23.9171 56.2602 23.0936 56.1492 23.0865 56.1562C23.0793 56.1633 23.5065 56.7492 24.0359 57.4574C24.5623 58.1679 24.9895 58.768 24.9824 58.7957C24.9759 58.8235 24.8178 59.0792 24.6342 59.3657L24.2979 59.8866L22.5292 59.8842C19.8376 59.8801 19.786 59.8571 20.1763 58.9109C20.3641 58.4585 20.4223 58.3941 21.1388 57.8496C22.3788 56.9063 22.8221 56.5301 22.9332 56.3198C22.9682 56.2578 22.8821 56.1657 22.4276 55.7895C22.1257 55.5379 21.8797 55.3004 21.8821 55.2609C21.894 55.037 28.0393 46.6992 29.0975 45.4743C29.8545 44.5843 30.592 43.678 31.3095 42.7563L32.4515 41.2779L32.8621 40.2396C33.031 39.8185 33.1926 39.3946 33.3469 38.968C33.4378 38.6845 33.3196 38.6757 34.5542 39.0424Z" fill="#323541"/>
<defs>
<filter id="filter0_d_2853_60" x="0.458984" y="0" width="80" height="80" filterUnits="userSpaceOnUse" color-interpolation-filters="sRGB">
<feFlood flood-opacity="0" result="BackgroundImageFix"/>
<feColorMatrix in="SourceAlpha" type="matrix" values="0 0 0 0 0 0 0 0 0 0 0 0 0 0 0 0 0 0 127 0" result="hardAlpha"/>
<feOffset dx="-1" dy="2"/>
<feGaussianBlur stdDeviation="2.5"/>
<feComposite in2="hardAlpha" operator="out"/>
<feColorMatrix type="matrix" values="0 0 0 0 0 0 0 0 0 0 0 0 0 0 0 0 0 0 0.25 0"/>
<feBlend mode="normal" in2="BackgroundImageFix" result="effect1_dropShadow_2853_60"/>
<feBlend mode="normal" in="SourceGraphic" in2="effect1_dropShadow_2853_60" result="shape"/>
</filter>
</defs>
</svg>
