<svg width="81" height="80" viewBox="0 0 81 80" fill="none" xmlns="http://www.w3.org/2000/svg">
<rect x="0.129883" width="80" height="80" rx="40" fill="#263140"/>
<path d="M57.6299 26H22.6299C21.9668 26 21.331 26.2634 20.8621 26.7322C20.3933 27.2011 20.1299 27.837 20.1299 28.5V53.5C20.1299 54.163 20.3933 54.7989 20.8621 55.2678C21.331 55.7366 21.9668 56 22.6299 56H57.6299C58.2929 56 58.9288 55.7366 59.3977 55.2678C59.8665 54.7989 60.1299 54.163 60.1299 53.5V28.5C60.1299 27.837 59.8665 27.2011 59.3977 26.7322C58.9288 26.2634 58.2929 26 57.6299 26V26ZM55.7049 53.5H24.7049L33.4549 44.45L31.6549 42.7125L22.6299 52.05V30.4L38.1674 45.8625C38.6358 46.3281 39.2694 46.5895 39.9299 46.5895C40.5903 46.5895 41.224 46.3281 41.6924 45.8625L57.6299 30.0125V51.8875L48.4299 42.6875L46.6674 44.45L55.7049 53.5ZM24.2674 28.5H55.6049L39.9299 44.0875L24.2674 28.5Z" fill="#8D24DF"/>
</svg>
