<svg width="101" height="100" viewBox="0 0 101 100" fill="none" xmlns="http://www.w3.org/2000/svg">
<rect x="0.751465" width="100" height="100" rx="50" fill="#8D24DF"/>
<path d="M35.5629 22.5L34.1058 24.0228L24.7742 33.3543L23.2515 34.8114L38.475 50.0328L27.8855 60.6224L27.752 61.2853L25.435 72.9338L24.7742 76.0429L27.8855 75.3821L39.534 73.0651L40.1947 72.9317L50.7843 62.3421L65.9401 77.5L67.3972 75.9772L76.7287 66.6457L78.2515 65.1886L63.0936 50.0328L73.5518 39.5746C74.362 38.7674 75.0049 37.8083 75.4435 36.7521C75.8821 35.6959 76.1079 34.5636 76.1079 33.4199C76.1079 32.2763 75.8821 31.1439 75.4435 30.0878C75.0049 29.0316 74.362 28.0724 73.5518 27.2653C72.7462 26.4512 71.7879 25.8041 70.7318 25.3611C69.6756 24.9181 68.5425 24.6878 67.3972 24.6836C66.2515 24.6876 65.118 24.9177 64.0614 25.3607C63.0049 25.8037 62.0463 26.451 61.2404 27.2653L50.7843 37.7235L35.5629 22.5ZM35.5629 28.5233L39.6653 32.6914L36.5541 35.8047L39.5996 38.8481L42.7108 35.7369L47.7387 40.767L41.4528 47.055L29.2091 34.8114L35.5629 28.5233ZM67.3951 28.7881C68.4964 28.7881 69.6146 29.2837 70.5719 30.2431C72.4844 32.1556 72.4844 34.6208 70.5719 36.5312L69.1847 37.9205L62.8945 31.6324L64.286 30.2431C65.2454 29.2837 66.298 28.7881 67.3972 28.7881H67.3951ZM59.9188 34.6123L66.2048 40.9004L40.5929 66.5102C39.191 63.8189 36.9949 61.6243 34.3027 60.2242L59.9188 34.6123ZM60.1158 53.0106L65.1458 58.0406L61.969 61.2175L65.0145 64.2631L68.1914 61.0862L72.2281 65.1229L65.8744 71.4767L53.7621 59.3643L60.1158 53.0106ZM31.5918 63.6002C34.1311 64.6673 36.1508 66.6877 37.217 69.2274L30.2003 70.6168L31.5918 63.6002Z" fill="white"/>
</svg>
