<svg width="81" height="80" viewBox="0 0 81 80" fill="none" xmlns="http://www.w3.org/2000/svg">
<rect x="0.129883" width="80" height="80" rx="40" fill="#8D24DF"/>
<path d="M53.9914 27.4877C51.4414 26.3377 48.7082 25.4877 45.8499 25.0044C45.8245 24.9995 45.7981 25.0027 45.7745 25.0134C45.751 25.0242 45.7313 25.042 45.7183 25.0644C45.3683 25.6794 44.9783 26.4811 44.705 27.1144C41.6736 26.6614 38.5917 26.6614 35.5602 27.1144C35.2558 26.4125 34.9125 25.7281 34.5319 25.0644C34.519 25.0417 34.4995 25.0235 34.476 25.0122C34.4525 25.0009 34.4261 24.997 34.4003 25.0011C31.5437 25.4844 28.8104 26.3344 26.2588 27.486C26.2369 27.4952 26.2183 27.5109 26.2055 27.531C21.019 35.1558 19.5974 42.5923 20.2957 49.9354C20.2976 49.9534 20.3032 49.9708 20.3121 49.9865C20.321 50.0023 20.333 50.0161 20.3473 50.027C23.3746 52.231 26.7511 53.91 30.3354 54.9936C30.3604 55.0013 30.3871 55.0012 30.4121 54.9935C30.437 54.9858 30.4591 54.9707 30.4754 54.9502C31.2454 53.9169 31.932 52.8253 32.5187 51.6787C32.5537 51.612 32.5203 51.532 32.4503 51.5053C31.3737 51.0999 30.3305 50.6106 29.3304 50.042C29.3124 50.0318 29.2973 50.0172 29.2863 49.9997C29.2754 49.9821 29.269 49.9621 29.2676 49.9415C29.2663 49.9208 29.2701 49.9002 29.2788 49.8814C29.2874 49.8625 29.3006 49.8462 29.3171 49.8337C29.5271 49.6787 29.7371 49.5171 29.9371 49.3554C29.9551 49.3409 29.9768 49.3316 29.9997 49.3287C30.0227 49.3257 30.046 49.3292 30.0671 49.3387C36.6119 52.2786 43.7 52.2786 50.1681 49.3387C50.1893 49.3286 50.2129 49.3247 50.2361 49.3273C50.2594 49.33 50.2815 49.3391 50.2998 49.3537C50.4998 49.5171 50.7081 49.6787 50.9198 49.8337C50.9365 49.8459 50.9499 49.8621 50.9588 49.8807C50.9677 49.8994 50.9718 49.9199 50.9708 49.9406C50.9698 49.9612 50.9637 49.9813 50.9531 49.999C50.9424 50.0167 50.9276 50.0315 50.9098 50.042C49.9132 50.6154 48.8765 51.1003 47.7882 51.5037C47.7715 51.5097 47.7563 51.5193 47.7436 51.5317C47.7308 51.5441 47.7209 51.5591 47.7144 51.5757C47.708 51.5923 47.7051 51.61 47.7061 51.6278C47.707 51.6455 47.7117 51.6629 47.7199 51.6787C48.3199 52.8236 49.0065 53.9136 49.7615 54.9486C49.7772 54.9698 49.7991 54.9857 49.8241 54.994C49.8492 55.0024 49.8762 55.0028 49.9015 54.9952C53.492 53.9147 56.874 52.2349 59.9045 50.027C59.9193 50.0167 59.9317 50.0033 59.9409 49.9878C59.9501 49.9723 59.9559 49.955 59.9579 49.937C60.7912 41.4473 58.5612 34.0708 54.043 27.5344C54.032 27.5131 54.0136 27.4966 53.9914 27.4877ZM33.497 45.4638C31.527 45.4638 29.9021 43.6822 29.9021 41.4973C29.9021 39.3107 31.4954 37.5307 33.497 37.5307C35.5136 37.5307 37.1235 39.3257 37.0919 41.4973C37.0919 43.6839 35.4986 45.4638 33.497 45.4638ZM46.7882 45.4638C44.8166 45.4638 43.1933 43.6822 43.1933 41.4973C43.1933 39.3107 44.785 37.5307 46.7882 37.5307C48.8049 37.5307 50.4148 39.3257 50.3831 41.4973C50.3831 43.6839 48.8065 45.4638 46.7882 45.4638Z" fill="#263140"/>
</svg>
