<svg width="81" height="81" viewBox="0 0 81 81" fill="none" xmlns="http://www.w3.org/2000/svg">
<g filter="url(#filter0_d_1357_73)">
<circle cx="41.5" cy="38.5" r="35" fill="white"/>
</g>
<path d="M35.8592 39.1489C35.2358 39.1489 34.638 39.3966 34.1972 39.8373C33.7564 40.2781 33.5088 40.8759 33.5088 41.4993C33.5088 42.1227 33.7564 42.7205 34.1972 43.1613C34.638 43.602 35.2358 43.8497 35.8592 43.8497C36.1678 43.8497 36.4735 43.7889 36.7586 43.6708C37.0438 43.5526 37.3029 43.3795 37.5211 43.1613C37.7394 42.943 37.9125 42.6839 38.0306 42.3987C38.1487 42.1136 38.2095 41.808 38.2095 41.4993C38.2095 41.1906 38.1487 40.885 38.0306 40.5999C37.9125 40.3147 37.7394 40.0556 37.5211 39.8373C37.3029 39.6191 37.0438 39.446 36.7586 39.3278C36.4735 39.2097 36.1678 39.1489 35.8592 39.1489ZM47.1409 39.1489C46.5176 39.1489 45.9197 39.3966 45.479 39.8373C45.0382 40.2781 44.7906 40.8759 44.7906 41.4993C44.7906 42.1227 45.0382 42.7205 45.479 43.1613C45.9197 43.602 46.5176 43.8497 47.1409 43.8497C47.7643 43.8497 48.3621 43.602 48.8029 43.1613C49.2437 42.7205 49.4913 42.1227 49.4913 41.4993C49.4913 40.8759 49.2437 40.2781 48.8029 39.8373C48.3621 39.3966 47.7643 39.1489 47.1409 39.1489ZM41.5 20.8161C39.0308 20.8161 36.5858 21.3024 34.3045 22.2474C32.0232 23.1923 29.9504 24.5773 28.2044 26.3233C24.6781 29.8496 22.6971 34.6322 22.6971 39.619C22.6971 44.6059 24.6781 49.3885 28.2044 52.9147C29.9504 54.6607 32.0232 56.0457 34.3045 56.9907C36.5858 57.9356 39.0308 58.4219 41.5 58.4219C46.4869 58.4219 51.2695 56.4409 54.7957 52.9147C58.322 49.3885 60.303 44.6059 60.303 39.619C60.303 37.1498 59.8166 34.7047 58.8717 32.4234C57.9268 30.1422 56.5417 28.0693 54.7957 26.3233C53.0497 24.5773 50.9769 23.1923 48.6956 22.2474C46.4143 21.3024 43.9693 20.8161 41.5 20.8161ZM41.5 54.6614C37.5106 54.6614 33.6845 53.0765 30.8635 50.2556C28.0425 47.4346 26.4577 43.6085 26.4577 39.619C26.4013 39.0815 26.4013 38.5395 26.4577 38.002C30.9365 36.0423 34.4815 32.4231 36.348 27.9048C38.0815 30.3625 40.38 32.3678 43.0501 33.752C45.7202 35.1361 48.6837 35.8585 51.6912 35.8584C53.1203 35.8584 54.5305 35.6892 55.9219 35.3695C58.2723 43.3796 53.722 51.7093 45.7495 54.0409C44.3205 54.4545 42.9291 54.6614 41.5 54.6614ZM18.9365 20.8161C18.9365 19.8187 19.3327 18.8622 20.038 18.1569C20.7432 17.4517 21.6997 17.0555 22.6971 17.0555H30.2183V20.8161H22.6971V28.3372H18.9365V20.8161ZM64.0636 58.4219C64.0636 59.4193 63.6674 60.3758 62.9621 61.0811C62.2569 61.7863 61.3004 62.1825 60.303 62.1825H52.7818V58.4219H60.303V50.9008H64.0636V58.4219ZM22.6971 62.1825C21.6997 62.1825 20.7432 61.7863 20.038 61.0811C19.3327 60.3758 18.9365 59.4193 18.9365 58.4219V50.9008H22.6971V58.4219H30.2183V62.1825H22.6971ZM60.303 17.0555C61.3004 17.0555 62.2569 17.4517 62.9621 18.1569C63.6674 18.8622 64.0636 19.8187 64.0636 20.8161V28.3372H60.303V20.8161H52.7818V17.0555H60.303Z" fill="#6B3CCF"/>
<defs>
<filter id="filter0_d_1357_73" x="0.5" y="0.5" width="80" height="80" filterUnits="userSpaceOnUse" color-interpolation-filters="sRGB">
<feFlood flood-opacity="0" result="BackgroundImageFix"/>
<feColorMatrix in="SourceAlpha" type="matrix" values="0 0 0 0 0 0 0 0 0 0 0 0 0 0 0 0 0 0 127 0" result="hardAlpha"/>
<feOffset dx="-1" dy="2"/>
<feGaussianBlur stdDeviation="2.5"/>
<feComposite in2="hardAlpha" operator="out"/>
<feColorMatrix type="matrix" values="0 0 0 0 0 0 0 0 0 0 0 0 0 0 0 0 0 0 0.25 0"/>
<feBlend mode="normal" in2="BackgroundImageFix" result="effect1_dropShadow_1357_73"/>
<feBlend mode="normal" in="SourceGraphic" in2="effect1_dropShadow_1357_73" result="shape"/>
</filter>
</defs>
</svg>
