<svg width="81" height="80" viewBox="0 0 81 80" fill="none" xmlns="http://www.w3.org/2000/svg">
<rect x="0.129883" width="80" height="80" rx="40" fill="#8D24DF"/>
<path fill-rule="evenodd" clip-rule="evenodd" d="M31.8844 20.12C34.0172 20.0218 34.6972 20 40.1299 20C45.5626 20 46.2426 20.0236 48.3735 20.12C50.5044 20.2164 51.959 20.5564 53.2317 21.0491C54.5644 21.5527 55.7735 22.34 56.7735 23.3582C57.7917 24.3564 58.5772 25.5636 59.079 26.8982C59.5735 28.1709 59.9117 29.6255 60.0099 31.7527C60.1081 33.8891 60.1299 34.5691 60.1299 40C60.1299 45.4327 60.1062 46.1127 60.0099 48.2455C59.9135 50.3727 59.5735 51.8273 59.079 53.1C58.5771 54.4347 57.7904 55.644 56.7735 56.6436C55.7735 57.6618 54.5644 58.4473 53.2317 58.9491C51.959 59.4436 50.5044 59.7818 48.3772 59.88C46.2426 59.9782 45.5626 60 40.1299 60C34.6972 60 34.0172 59.9764 31.8844 59.88C29.7572 59.7836 28.3026 59.4436 27.0299 58.9491C25.6952 58.4472 24.4859 57.6605 23.4862 56.6436C22.4688 55.6449 21.6814 54.4362 21.179 53.1018C20.6862 51.8291 20.3481 50.3745 20.2499 48.2473C20.1517 46.1109 20.1299 45.4309 20.1299 40C20.1299 34.5673 20.1535 33.8873 20.2499 31.7564C20.3462 29.6255 20.6862 28.1709 21.179 26.8982C21.6821 25.5638 22.4701 24.3551 23.4881 23.3564C24.4863 22.3391 25.6944 21.5517 27.0281 21.0491C28.3008 20.5564 29.7553 20.2182 31.8826 20.12H31.8844ZM48.2117 23.72C46.1026 23.6236 45.4699 23.6036 40.1299 23.6036C34.7899 23.6036 34.1572 23.6236 32.0481 23.72C30.0972 23.8091 29.039 24.1345 28.3335 24.4091C27.4008 24.7727 26.7335 25.2036 26.0335 25.9036C25.37 26.5492 24.8593 27.3351 24.539 28.2036C24.2644 28.9091 23.939 29.9673 23.8499 31.9182C23.7535 34.0273 23.7335 34.66 23.7335 40C23.7335 45.34 23.7535 45.9727 23.8499 48.0818C23.939 50.0327 24.2644 51.0909 24.539 51.7964C24.859 52.6636 25.3699 53.4509 26.0335 54.0964C26.679 54.76 27.4662 55.2709 28.3335 55.5909C29.039 55.8655 30.0972 56.1909 32.0481 56.28C34.1572 56.3764 34.7881 56.3964 40.1299 56.3964C45.4717 56.3964 46.1026 56.3764 48.2117 56.28C50.1626 56.1909 51.2208 55.8655 51.9262 55.5909C52.859 55.2273 53.5262 54.7964 54.2262 54.0964C54.8899 53.4509 55.4008 52.6636 55.7208 51.7964C55.9953 51.0909 56.3208 50.0327 56.4099 48.0818C56.5062 45.9727 56.5262 45.34 56.5262 40C56.5262 34.66 56.5062 34.0273 56.4099 31.9182C56.3208 29.9673 55.9953 28.9091 55.7208 28.2036C55.3572 27.2709 54.9262 26.6036 54.2262 25.9036C53.5807 25.2401 52.7948 24.7295 51.9262 24.4091C51.2208 24.1345 50.1626 23.8091 48.2117 23.72ZM37.5753 46.1655C39.002 46.7593 40.5906 46.8395 42.0698 46.3922C43.5489 45.945 44.827 44.998 45.6855 43.7132C46.5441 42.4283 46.93 40.8852 46.7772 39.3475C46.6245 37.8097 45.9426 36.3727 44.8481 35.2818C44.1503 34.5845 43.3066 34.0506 42.3778 33.7184C41.4489 33.3863 40.4579 33.2643 39.4762 33.3611C38.4945 33.4579 37.5465 33.7712 36.7004 34.2784C35.8543 34.7856 35.1312 35.4741 34.5832 36.2943C34.0351 37.1145 33.6757 38.046 33.5308 39.0217C33.386 39.9975 33.4592 40.9933 33.7454 41.9373C34.0316 42.8813 34.5235 43.7502 35.1857 44.4813C35.848 45.2124 36.6641 45.7876 37.5753 46.1655ZM32.8608 32.7309C33.8154 31.7763 34.9486 31.0191 36.1959 30.5025C37.4431 29.9859 38.7799 29.72 40.1299 29.72C41.4799 29.72 42.8167 29.9859 44.0639 30.5025C45.3111 31.0191 46.4444 31.7763 47.399 32.7309C48.3536 33.6855 49.1108 34.8188 49.6274 36.066C50.144 37.3132 50.4099 38.65 50.4099 40C50.4099 41.35 50.144 42.6868 49.6274 43.934C49.1108 45.1812 48.3536 46.3145 47.399 47.2691C45.4711 49.197 42.8563 50.28 40.1299 50.28C37.4034 50.28 34.7887 49.197 32.8608 47.2691C30.9329 45.3412 29.8498 42.7264 29.8498 40C29.8498 37.2736 30.9329 34.6588 32.8608 32.7309ZM52.6899 31.2509C52.9264 31.0278 53.1158 30.7594 53.2468 30.4618C53.3778 30.1641 53.4477 29.8432 53.4525 29.5181C53.4572 29.1929 53.3967 28.8701 53.2744 28.5687C53.1521 28.2674 52.9707 27.9937 52.7407 27.7637C52.5108 27.5338 52.237 27.3523 51.9357 27.23C51.6343 27.1078 51.3115 27.0472 50.9864 27.052C50.6612 27.0567 50.3403 27.1266 50.0427 27.2576C49.745 27.3886 49.4767 27.578 49.2535 27.8145C48.8195 28.2746 48.5819 28.8857 48.5912 29.5181C48.6004 30.1504 48.8557 30.7543 49.3029 31.2015C49.7501 31.6487 50.354 31.9041 50.9864 31.9133C51.6188 31.9225 52.2298 31.6849 52.6899 31.2509Z" fill="#263140"/>
</svg>
