<svg width="81" height="81" viewBox="0 0 81 81" fill="none" xmlns="http://www.w3.org/2000/svg">
<g filter="url(#filter0_d_1435_398)">
<circle cx="41.2219" cy="38.1321" r="35" fill="white"/>
</g>
<path d="M41.3591 25.6295L35.9589 30.9905L42.4352 37.4668L40.3612 39.5408L33.885 33.0645L30.4218 36.5276L36.8981 43.0039L34.8241 45.0779L28.3479 38.6016L24.4347 42.5147C23.8129 43.1171 23.4084 43.9086 23.2845 44.7654C23.1605 45.6221 23.3242 46.4958 23.7499 47.2496L25.7065 50.9476L21.3042 55.4281L24.063 58.1869L28.5435 53.7846L32.2414 55.7412C32.8378 56.0792 33.5125 56.2546 34.198 56.2499C34.7144 56.2503 35.2257 56.1485 35.7026 55.9504C36.1794 55.7523 36.6123 55.4617 36.9763 55.0955L53.8616 38.132L41.3591 25.6295ZM56.6203 32.6536L53.1181 29.1318L55.8964 26.373L58.6552 29.1318L61.4139 26.373L53.1181 18.0771L50.3593 20.8359L53.1181 23.6142L50.3593 26.373L46.8375 22.8708L43.433 19.4467L40.6743 22.2251L42.6895 24.2404V24.2599L55.2312 36.8015H55.2507L57.266 38.8168L60.0443 36.0581L56.6399 32.6536H56.6203Z" fill="#FF9A00"/>
<defs>
<filter id="filter0_d_1435_398" x="0.221924" y="0.13208" width="80" height="80" filterUnits="userSpaceOnUse" color-interpolation-filters="sRGB">
<feFlood flood-opacity="0" result="BackgroundImageFix"/>
<feColorMatrix in="SourceAlpha" type="matrix" values="0 0 0 0 0 0 0 0 0 0 0 0 0 0 0 0 0 0 127 0" result="hardAlpha"/>
<feOffset dx="-1" dy="2"/>
<feGaussianBlur stdDeviation="2.5"/>
<feComposite in2="hardAlpha" operator="out"/>
<feColorMatrix type="matrix" values="0 0 0 0 0 0 0 0 0 0 0 0 0 0 0 0 0 0 0.25 0"/>
<feBlend mode="normal" in2="BackgroundImageFix" result="effect1_dropShadow_1435_398"/>
<feBlend mode="normal" in="SourceGraphic" in2="effect1_dropShadow_1435_398" result="shape"/>
</filter>
</defs>
</svg>
