<svg width="81" height="81" viewBox="0 0 81 81" fill="none" xmlns="http://www.w3.org/2000/svg">
<g filter="url(#filter0_d_1435_406)">
<circle cx="41.6958" cy="38.1321" r="35" fill="white"/>
</g>
<path d="M35.5542 44.2737C35.1493 44.2737 34.7535 44.3937 34.4168 44.6187C34.0802 44.8436 33.8178 45.1634 33.6628 45.5374C33.5079 45.9115 33.4673 46.3231 33.5463 46.7202C33.6253 47.1173 33.8203 47.4821 34.1066 47.7684C34.3929 48.0547 34.7577 48.2497 35.1548 48.3287C35.5519 48.4077 35.9635 48.3671 36.3376 48.2122C36.7117 48.0572 37.0314 47.7949 37.2563 47.4582C37.4813 47.1215 37.6013 46.7257 37.6013 46.3208C37.6013 45.7779 37.3856 45.2572 37.0017 44.8733C36.6178 44.4894 36.0971 44.2737 35.5542 44.2737ZM21.2239 42.2265C20.681 42.2265 20.1603 42.4422 19.7764 42.8261C19.3924 43.21 19.1768 43.7307 19.1768 44.2737V48.368C19.1768 48.911 19.3924 49.4317 19.7764 49.8156C20.1603 50.1995 20.681 50.4152 21.2239 50.4152C21.7669 50.4152 22.2876 50.1995 22.6715 49.8156C23.0554 49.4317 23.2711 48.911 23.2711 48.368V44.2737C23.2711 43.7307 23.0554 43.21 22.6715 42.8261C22.2876 42.4422 21.7669 42.2265 21.2239 42.2265ZM62.1674 42.2265C61.6245 42.2265 61.1038 42.4422 60.7199 42.8261C60.3359 43.21 60.1203 43.7307 60.1203 44.2737V48.368C60.1203 48.911 60.3359 49.4317 60.7199 49.8156C61.1038 50.1995 61.6245 50.4152 62.1674 50.4152C62.7104 50.4152 63.2311 50.1995 63.615 49.8156C63.9989 49.4317 64.2146 48.911 64.2146 48.368V44.2737C64.2146 43.7307 63.9989 43.21 63.615 42.8261C63.2311 42.4422 62.7104 42.2265 62.1674 42.2265ZM51.9316 27.8963H43.7429V25.2759C44.3617 24.9186 44.8762 24.4057 45.2354 23.7879C45.5945 23.1702 45.7857 22.4693 45.79 21.7548C45.79 20.6689 45.3587 19.6274 44.5908 18.8596C43.823 18.0918 42.7816 17.6604 41.6957 17.6604C40.6098 17.6604 39.5684 18.0918 38.8005 18.8596C38.0327 19.6274 37.6013 20.6689 37.6013 21.7548C37.6056 22.4693 37.7969 23.1702 38.156 23.7879C38.5152 24.4057 39.0297 24.9186 39.6485 25.2759V27.8963H31.4598C29.831 27.8963 28.2689 28.5433 27.1171 29.6951C25.9653 30.8468 25.3183 32.409 25.3183 34.0378V52.4624C25.3183 54.0912 25.9653 55.6533 27.1171 56.8051C28.2689 57.9568 29.831 58.6039 31.4598 58.6039H51.9316C53.5604 58.6039 55.1225 57.9568 56.2743 56.8051C57.426 55.6533 58.0731 54.0912 58.0731 52.4624V34.0378C58.0731 32.409 57.426 30.8468 56.2743 29.6951C55.1225 28.5433 53.5604 27.8963 51.9316 27.8963ZM45.2168 31.9906L44.1932 36.085H39.1981L38.1745 31.9906H45.2168ZM53.9787 52.4624C53.9787 53.0053 53.763 53.526 53.3791 53.9099C52.9952 54.2939 52.4745 54.5095 51.9316 54.5095H31.4598C30.9169 54.5095 30.3962 54.2939 30.0122 53.9099C29.6283 53.526 29.4126 53.0053 29.4126 52.4624V34.0378C29.4126 33.4949 29.6283 32.9741 30.0122 32.5902C30.3962 32.2063 30.9169 31.9906 31.4598 31.9906H33.9574L35.5542 38.6235C35.6662 39.0777 35.9305 39.4798 36.303 39.7629C36.6755 40.046 37.1337 40.1929 37.6013 40.1793H45.79C46.2577 40.1929 46.7159 40.046 47.0884 39.7629C47.4608 39.4798 47.7251 39.0777 47.8372 38.6235L49.434 31.9906H51.9316C52.4745 31.9906 52.9952 32.2063 53.3791 32.5902C53.763 32.9741 53.9787 33.4949 53.9787 34.0378V52.4624ZM47.8372 44.2737C47.4323 44.2737 47.0365 44.3937 46.6999 44.6187C46.3632 44.8436 46.1008 45.1634 45.9459 45.5374C45.7909 45.9115 45.7504 46.3231 45.8294 46.7202C45.9084 47.1173 46.1033 47.4821 46.3896 47.7684C46.6759 48.0547 47.0407 48.2497 47.4378 48.3287C47.8349 48.4077 48.2466 48.3671 48.6206 48.2122C48.9947 48.0572 49.3144 47.7949 49.5394 47.4582C49.7643 47.1215 49.8844 46.7257 49.8844 46.3208C49.8844 45.7779 49.6687 45.2572 49.2848 44.8733C48.9009 44.4894 48.3802 44.2737 47.8372 44.2737Z" fill="#8D24DF"/>
<defs>
<filter id="filter0_d_1435_406" x="0.695801" y="0.13208" width="80" height="80" filterUnits="userSpaceOnUse" color-interpolation-filters="sRGB">
<feFlood flood-opacity="0" result="BackgroundImageFix"/>
<feColorMatrix in="SourceAlpha" type="matrix" values="0 0 0 0 0 0 0 0 0 0 0 0 0 0 0 0 0 0 127 0" result="hardAlpha"/>
<feOffset dx="-1" dy="2"/>
<feGaussianBlur stdDeviation="2.5"/>
<feComposite in2="hardAlpha" operator="out"/>
<feColorMatrix type="matrix" values="0 0 0 0 0 0 0 0 0 0 0 0 0 0 0 0 0 0 0.25 0"/>
<feBlend mode="normal" in2="BackgroundImageFix" result="effect1_dropShadow_1435_406"/>
<feBlend mode="normal" in="SourceGraphic" in2="effect1_dropShadow_1435_406" result="shape"/>
</filter>
</defs>
</svg>
