<svg width="81" height="81" viewBox="0 0 81 81" fill="none" xmlns="http://www.w3.org/2000/svg">
<g filter="url(#filter0_d_2321_116)">
<circle cx="41.6958" cy="38.035" r="35" fill="white"/>
</g>
<path d="M39.8694 23.7522H43.5224V25.5376H39.8694V23.7522Z" fill="#EA5455"/>
<path d="M36.2164 25.5376C37.2251 25.5376 38.0429 24.7382 38.0429 23.7522C38.0429 22.7662 37.2251 21.9669 36.2164 21.9669C35.2076 21.9669 34.3899 22.7662 34.3899 23.7522C34.3899 24.7382 35.2076 25.5376 36.2164 25.5376Z" fill="#EA5455"/>
<path d="M47.1755 25.5376C48.1842 25.5376 49.002 24.7382 49.002 23.7522C49.002 22.7662 48.1842 21.9669 47.1755 21.9669C46.1667 21.9669 45.3489 22.7662 45.3489 23.7522C45.3489 24.7382 46.1667 25.5376 47.1755 25.5376Z" fill="#EA5455"/>
<path d="M52.655 34.4643H43.5224V30.8936L49.002 30.8758C50.4521 30.8758 51.843 30.3139 52.8701 29.3133C53.8972 28.3127 54.4767 26.955 54.4815 25.5376V21.9669C54.4772 20.5477 53.8985 19.1878 52.8718 18.1843C51.8451 17.1807 50.4539 16.6151 49.002 16.6108H34.3899C32.938 16.6151 31.5467 17.1807 30.5201 18.1843C29.4934 19.1878 28.9147 20.5477 28.9103 21.9669V25.5376C28.9147 26.9568 29.4934 28.3166 30.5201 29.3202C31.5467 30.3237 32.938 30.8894 34.3899 30.8936H39.8694V34.4643H30.7369C29.2849 34.4685 27.8937 35.0342 26.867 36.0377C25.8404 37.0413 25.2617 38.4011 25.2573 39.8203V54.1031C25.2617 55.5223 25.8404 56.8822 26.867 57.8857C27.8937 58.8892 29.2849 59.4549 30.7369 59.4591H52.655C54.1069 59.4549 55.4981 58.8892 56.5248 57.8857C57.5515 56.8822 58.1302 55.5223 58.1345 54.1031V39.8203C58.1302 38.4011 57.5515 37.0413 56.5248 36.0377C55.4981 35.0342 54.1069 34.4685 52.655 34.4643ZM34.3899 27.3229C33.9059 27.3215 33.4422 27.1329 33.0999 26.7984C32.7577 26.4639 32.5648 26.0106 32.5634 25.5376V21.9669C32.5648 21.4938 32.7577 21.0405 33.0999 20.706C33.4422 20.3715 33.9059 20.1829 34.3899 20.1815H48.9837C49.4695 20.1824 49.9355 20.3703 50.2807 20.7044C50.6259 21.0385 50.8227 21.492 50.8285 21.9669V25.5376C50.8227 26.0124 50.6259 26.466 50.2807 26.8001C49.9355 27.1342 49.4695 27.322 48.9837 27.3229H34.3899ZM42.4905 52.4463L41.6959 53.2104L40.9014 52.4392C38.0794 49.7129 36.2164 47.9151 36.2164 45.7084C36.1953 45.3034 36.2569 44.8984 36.3975 44.5169C36.5381 44.1355 36.7549 43.7851 37.0354 43.4864C37.3159 43.1876 37.6544 42.9464 38.0312 42.7768C38.408 42.6072 38.8155 42.5125 39.2301 42.4984C39.7085 42.5071 40.1788 42.6212 40.6057 42.8324C41.0327 43.0435 41.4053 43.3462 41.6959 43.7177C41.9865 43.3462 42.3592 43.0435 42.7861 42.8324C43.2131 42.6212 43.6833 42.5071 44.1617 42.4984C44.5763 42.5125 44.9839 42.6072 45.3606 42.7768C45.7374 42.9464 46.0759 43.1876 46.3564 43.4864C46.6369 43.7851 46.8538 44.1355 46.9944 44.5169C47.135 44.8984 47.1965 45.3034 47.1755 45.7084C47.1755 47.9151 45.3124 49.7129 42.4905 52.4463Z" fill="#EA5455"/>
<defs>
<filter id="filter0_d_2321_116" x="0.695801" y="0.0350342" width="80" height="80" filterUnits="userSpaceOnUse" color-interpolation-filters="sRGB">
<feFlood flood-opacity="0" result="BackgroundImageFix"/>
<feColorMatrix in="SourceAlpha" type="matrix" values="0 0 0 0 0 0 0 0 0 0 0 0 0 0 0 0 0 0 127 0" result="hardAlpha"/>
<feOffset dx="-1" dy="2"/>
<feGaussianBlur stdDeviation="2.5"/>
<feComposite in2="hardAlpha" operator="out"/>
<feColorMatrix type="matrix" values="0 0 0 0 0 0 0 0 0 0 0 0 0 0 0 0 0 0 0.25 0"/>
<feBlend mode="normal" in2="BackgroundImageFix" result="effect1_dropShadow_2321_116"/>
<feBlend mode="normal" in="SourceGraphic" in2="effect1_dropShadow_2321_116" result="shape"/>
</filter>
</defs>
</svg>
