<svg width="80" height="80" viewBox="0 0 80 80" fill="none" xmlns="http://www.w3.org/2000/svg">
<rect width="80" height="80" rx="40" fill="#8D24DF"/>
<path fill-rule="evenodd" clip-rule="evenodd" d="M31.7545 20.12C33.8873 20.0218 34.5673 20 40 20C45.4327 20 46.1127 20.0236 48.2436 20.12C50.3745 20.2164 51.8291 20.5564 53.1018 21.0491C54.4345 21.5527 55.6436 22.34 56.6436 23.3582C57.6618 24.3564 58.4473 25.5636 58.9491 26.8982C59.4436 28.1709 59.7818 29.6255 59.88 31.7527C59.9782 33.8891 60 34.5691 60 40C60 45.4327 59.9764 46.1127 59.88 48.2455C59.7836 50.3727 59.4436 51.8273 58.9491 53.1C58.4473 54.4347 57.6605 55.644 56.6436 56.6436C55.6436 57.6618 54.4345 58.4473 53.1018 58.9491C51.8291 59.4436 50.3745 59.7818 48.2473 59.88C46.1127 59.9782 45.4327 60 40 60C34.5673 60 33.8873 59.9764 31.7545 59.88C29.6273 59.7836 28.1727 59.4436 26.9 58.9491C25.5653 58.4472 24.356 57.6605 23.3564 56.6436C22.3389 55.6449 21.5515 54.4362 21.0491 53.1018C20.5564 51.8291 20.2182 50.3745 20.12 48.2473C20.0218 46.1109 20 45.4309 20 40C20 34.5673 20.0236 33.8873 20.12 31.7564C20.2164 29.6255 20.5564 28.1709 21.0491 26.8982C21.5522 25.5638 22.3402 24.3551 23.3582 23.3564C24.3564 22.3391 25.5645 21.5517 26.8982 21.0491C28.1709 20.5564 29.6255 20.2182 31.7527 20.12H31.7545ZM48.0818 23.72C45.9727 23.6236 45.34 23.6036 40 23.6036C34.66 23.6036 34.0273 23.6236 31.9182 23.72C29.9673 23.8091 28.9091 24.1345 28.2036 24.4091C27.2709 24.7727 26.6036 25.2036 25.9036 25.9036C25.2401 26.5492 24.7294 27.3351 24.4091 28.2036C24.1345 28.9091 23.8091 29.9673 23.72 31.9182C23.6236 34.0273 23.6036 34.66 23.6036 40C23.6036 45.34 23.6236 45.9727 23.72 48.0818C23.8091 50.0327 24.1345 51.0909 24.4091 51.7964C24.7291 52.6636 25.24 53.4509 25.9036 54.0964C26.5491 54.76 27.3364 55.2709 28.2036 55.5909C28.9091 55.8655 29.9673 56.1909 31.9182 56.28C34.0273 56.3764 34.6582 56.3964 40 56.3964C45.3418 56.3964 45.9727 56.3764 48.0818 56.28C50.0327 56.1909 51.0909 55.8655 51.7964 55.5909C52.7291 55.2273 53.3964 54.7964 54.0964 54.0964C54.76 53.4509 55.2709 52.6636 55.5909 51.7964C55.8655 51.0909 56.1909 50.0327 56.28 48.0818C56.3764 45.9727 56.3964 45.34 56.3964 40C56.3964 34.66 56.3764 34.0273 56.28 31.9182C56.1909 29.9673 55.8655 28.9091 55.5909 28.2036C55.2273 27.2709 54.7964 26.6036 54.0964 25.9036C53.4508 25.2401 52.6649 24.7295 51.7964 24.4091C51.0909 24.1345 50.0327 23.8091 48.0818 23.72ZM37.4455 46.1655C38.8721 46.7593 40.4607 46.8395 41.9399 46.3922C43.4191 45.945 44.6971 44.998 45.5557 43.7132C46.4142 42.4283 46.8001 40.8852 46.6474 39.3475C46.4946 37.8097 45.8127 36.3727 44.7182 35.2818C44.0204 34.5845 43.1768 34.0506 42.2479 33.7184C41.319 33.3863 40.3281 33.2643 39.3464 33.3611C38.3647 33.4579 37.4166 33.7712 36.5706 34.2784C35.7245 34.7856 35.0014 35.4741 34.4533 36.2943C33.9052 37.1145 33.5458 38.046 33.4009 39.0217C33.2561 39.9975 33.3294 40.9933 33.6155 41.9373C33.9017 42.8813 34.3936 43.7502 35.0559 44.4813C35.7181 45.2124 36.5342 45.7876 37.4455 46.1655ZM32.7309 32.7309C33.6855 31.7763 34.8188 31.0191 36.066 30.5025C37.3132 29.9859 38.65 29.72 40 29.72C41.35 29.72 42.6868 29.9859 43.934 30.5025C45.1812 31.0191 46.3145 31.7763 47.2691 32.7309C48.2237 33.6855 48.9809 34.8188 49.4975 36.066C50.0141 37.3132 50.28 38.65 50.28 40C50.28 41.35 50.0141 42.6868 49.4975 43.934C48.9809 45.1812 48.2237 46.3145 47.2691 47.2691C45.3412 49.197 42.7264 50.28 40 50.28C37.2736 50.28 34.6588 49.197 32.7309 47.2691C30.803 45.3412 29.72 42.7264 29.72 40C29.72 37.2736 30.803 34.6588 32.7309 32.7309ZM52.56 31.2509C52.7966 31.0278 52.9859 30.7594 53.1169 30.4618C53.2479 30.1641 53.3178 29.8432 53.3226 29.5181C53.3273 29.1929 53.2668 28.8701 53.1445 28.5687C53.0223 28.2674 52.8408 27.9937 52.6108 27.7637C52.3809 27.5338 52.1071 27.3523 51.8058 27.23C51.5045 27.1078 51.1817 27.0472 50.8565 27.052C50.5313 27.0567 50.2104 27.1266 49.9128 27.2576C49.6151 27.3886 49.3468 27.578 49.1236 27.8145C48.6897 28.2746 48.4521 28.8857 48.4613 29.5181C48.4705 30.1504 48.7258 30.7543 49.173 31.2015C49.6202 31.6487 50.2241 31.9041 50.8565 31.9133C51.4889 31.9225 52.0999 31.6849 52.56 31.2509Z" fill="white"/>
</svg>
