<svg width="81" height="80" viewBox="0 0 81 80" fill="none" xmlns="http://www.w3.org/2000/svg">
<rect x="0.129883" width="80" height="80" rx="40" fill="#8D24DF"/>
<path d="M46.4905 44.6267L55.1019 53.25H25.2943L33.6346 44.6238L33.8085 44.4439L33.6285 44.2701L31.8285 42.5326L31.6488 42.3591L31.4751 42.5388L22.8799 51.4316V31.0015L37.991 46.0397L37.9911 46.0398C38.5064 46.552 39.2034 46.8395 39.9299 46.8395C40.6564 46.8395 41.3534 46.552 41.8686 46.0398L41.8687 46.0398L57.3799 30.6137V51.2839L48.6067 42.5107L48.4299 42.3339L48.2531 42.5107L46.4906 44.2732L46.314 44.4499L46.4905 44.6267ZM57.6299 25.75H22.6299C21.9005 25.75 21.2011 26.0397 20.6853 26.5555C20.1696 27.0712 19.8799 27.7707 19.8799 28.5V53.5C19.8799 54.2293 20.1696 54.9288 20.6853 55.4445C21.2011 55.9603 21.9005 56.25 22.6299 56.25H57.6299C58.3592 56.25 59.0587 55.9603 59.5744 55.4445C60.0902 54.9288 60.3799 54.2293 60.3799 53.5V28.5C60.3799 27.7707 60.0902 27.0712 59.5744 26.5555C59.0587 26.0397 58.3592 25.75 57.6299 25.75ZM39.93 43.7349L24.873 28.75H54.9989L39.93 43.7349Z" fill="#263140" stroke="black" stroke-width="0.5"/>
</svg>
