<svg width="81" height="81" viewBox="0 0 81 81" fill="none" xmlns="http://www.w3.org/2000/svg">
<g filter="url(#filter0_d_1408_212)">
<circle cx="41.0015" cy="38.2933" r="35" fill="white"/>
</g>
<path d="M32.653 53.0089C32.653 56.1714 29.4476 58.7329 25.498 58.7329C21.5485 58.7329 18.343 56.1714 18.343 53.0089C18.343 49.8493 21.5485 47.2849 25.498 47.2849C29.4476 47.2849 32.653 49.8493 32.653 53.0089ZM58.4111 47.2849C58.4111 50.4474 55.2057 53.0089 51.2561 53.0089C47.3065 53.0089 44.1011 50.4474 44.1011 47.2849C44.1011 44.1224 47.3065 41.5609 51.2561 41.5609C55.2057 41.5609 58.4111 44.1224 58.4111 47.2849Z" fill="#FF9A00"/>
<path fill-rule="evenodd" clip-rule="evenodd" d="M55.5491 47.2849V21.5269H58.4111V47.2849H55.5491ZM32.653 24.3889V53.0089H29.791V24.3889H32.653Z" fill="#FF9A00"/>
<path d="M29.791 24.117C29.791 23.4075 30.0546 22.7233 30.5305 22.1971C31.0065 21.6709 31.6609 21.3402 32.3668 21.2693L55.2629 18.9797C55.6609 18.9397 56.0628 18.9835 56.4428 19.1084C56.8228 19.2333 57.1724 19.4365 57.469 19.7048C57.7656 19.9731 58.0027 20.3007 58.165 20.6663C58.3273 21.0318 58.4111 21.4274 58.4111 21.8274V24.3889L29.791 27.2509V24.117Z" fill="#FF9A00"/>
<defs>
<filter id="filter0_d_1408_212" x="0.00146484" y="0.293335" width="80" height="80" filterUnits="userSpaceOnUse" color-interpolation-filters="sRGB">
<feFlood flood-opacity="0" result="BackgroundImageFix"/>
<feColorMatrix in="SourceAlpha" type="matrix" values="0 0 0 0 0 0 0 0 0 0 0 0 0 0 0 0 0 0 127 0" result="hardAlpha"/>
<feOffset dx="-1" dy="2"/>
<feGaussianBlur stdDeviation="2.5"/>
<feComposite in2="hardAlpha" operator="out"/>
<feColorMatrix type="matrix" values="0 0 0 0 0 0 0 0 0 0 0 0 0 0 0 0 0 0 0.25 0"/>
<feBlend mode="normal" in2="BackgroundImageFix" result="effect1_dropShadow_1408_212"/>
<feBlend mode="normal" in="SourceGraphic" in2="effect1_dropShadow_1408_212" result="shape"/>
</filter>
</defs>
</svg>
