<svg width="81" height="81" viewBox="0 0 81 81" fill="none" xmlns="http://www.w3.org/2000/svg">
<g filter="url(#filter0_d_2512_98)">
<circle cx="41.696" cy="38.3653" r="35" fill="white"/>
</g>
<path d="M38.8007 42.7113V19.2513H43.4927V42.7113H38.8007ZM41.1467 61.4793C38.2533 61.4793 35.5257 60.9217 32.9639 59.8066C30.402 58.6915 28.164 57.1767 26.2496 55.2624C24.3337 53.3465 22.8182 51.1076 21.7031 48.5458C20.5879 45.984 20.0312 43.2571 20.0327 40.3653C20.0327 37.2373 20.6779 34.2852 21.9682 31.5091C23.2585 28.733 25.0766 26.3284 27.4226 24.2952L30.707 27.5796C28.8302 29.1436 27.364 31.0399 26.3083 33.2686C25.2526 35.4973 24.7247 37.8629 24.7247 40.3653C24.7247 44.9009 26.3278 48.7718 29.534 51.978C32.7402 55.1842 36.6111 56.7873 41.1467 56.7873C45.7214 56.7873 49.6025 55.1842 52.7899 51.978C55.9774 48.7718 57.5703 44.9009 57.5687 40.3653C57.5687 37.8629 57.0503 35.4973 56.0133 33.2686C54.9764 31.0399 53.5008 29.1436 51.5864 27.5796L54.8708 24.2952C57.2168 26.3284 59.035 28.733 60.3253 31.5091C61.6156 34.2852 62.2607 37.2373 62.2607 40.3653C62.2607 43.2587 61.7032 45.9863 60.588 48.5481C59.4729 51.11 57.9676 53.3481 56.072 55.2624C54.1764 57.1783 51.9477 58.6938 49.3859 59.809C46.8241 60.9241 44.0777 61.4809 41.1467 61.4793Z" fill="#307CED"/>
<defs>
<filter id="filter0_d_2512_98" x="0.696045" y="0.365295" width="80" height="80" filterUnits="userSpaceOnUse" color-interpolation-filters="sRGB">
<feFlood flood-opacity="0" result="BackgroundImageFix"/>
<feColorMatrix in="SourceAlpha" type="matrix" values="0 0 0 0 0 0 0 0 0 0 0 0 0 0 0 0 0 0 127 0" result="hardAlpha"/>
<feOffset dx="-1" dy="2"/>
<feGaussianBlur stdDeviation="2.5"/>
<feComposite in2="hardAlpha" operator="out"/>
<feColorMatrix type="matrix" values="0 0 0 0 0 0 0 0 0 0 0 0 0 0 0 0 0 0 0.25 0"/>
<feBlend mode="normal" in2="BackgroundImageFix" result="effect1_dropShadow_2512_98"/>
<feBlend mode="normal" in="SourceGraphic" in2="effect1_dropShadow_2512_98" result="shape"/>
</filter>
</defs>
</svg>
