<svg width="81" height="81" viewBox="0 0 81 81" fill="none" xmlns="http://www.w3.org/2000/svg">
<g filter="url(#filter0_d_1408_188)">
<circle cx="41.5276" cy="38.5842" r="35" fill="white"/>
</g>
<path d="M48.2793 37.6464L50.7175 40.0846L47.6792 43.1229C47.4541 43.3479 47.4541 43.573 47.6792 43.798L48.3168 44.4357C48.5419 44.6608 48.7669 44.6608 48.992 44.4357L52.0303 41.3974L56.719 46.0861L53.6807 49.1244C53.4557 49.3495 53.4557 49.5621 53.6807 49.7621L54.3184 50.4373C54.5435 50.6623 54.7685 50.6623 54.9936 50.4373L58.0319 47.399L60.395 49.7621C60.62 49.9872 60.7326 50.2622 60.7326 50.5873C60.7326 50.9124 60.62 51.2 60.395 51.4501L54.3934 57.4516C54.1433 57.6767 53.8558 57.7892 53.5307 57.7892C53.2056 57.7892 52.9305 57.6767 52.7055 57.4516L40.5898 45.336L33.5379 52.3878C33.1378 52.7879 32.6502 52.988 32.0751 52.988C31.4999 52.988 31.0123 52.7879 30.6122 52.3878L27.7614 49.4995C27.3613 49.0994 27.1613 48.6181 27.1613 48.0554C27.1613 47.4928 27.3613 47.0114 27.7614 46.6113L34.8133 39.5594L22.6601 27.4063C22.435 27.1812 22.3225 26.9061 22.3225 26.581C22.3225 26.256 22.435 25.9809 22.6601 25.7558L28.6617 19.7167C28.9117 19.4917 29.1993 19.3792 29.5244 19.3792C29.8495 19.3792 30.1246 19.4917 30.3496 19.7167L32.7127 22.0799L29.6744 25.1182C29.4494 25.3432 29.4494 25.5683 29.6744 25.7933L30.3121 26.431C30.5372 26.6561 30.7622 26.6561 30.9873 26.431L34.0256 23.3927L38.7143 28.0814L35.676 31.1197C35.4509 31.3448 35.4509 31.5698 35.676 31.7949L36.3137 32.4326C36.5387 32.6576 36.7638 32.6576 36.9889 32.4326L40.0271 29.3943L42.4653 31.8699L54.3559 19.9793C54.756 19.5792 55.2374 19.3792 55.8 19.3792C56.3627 19.3792 56.8441 19.5792 57.2442 19.9793L60.1324 22.8676C60.5325 23.2677 60.7326 23.749 60.7326 24.3117C60.7326 24.8743 60.5325 25.3557 60.1324 25.7558L48.2793 37.6464ZM24.7982 49.6871C24.8482 49.8871 24.9357 50.0497 25.0607 50.1747L29.937 55.051C30.062 55.176 30.2246 55.2636 30.4246 55.3136C30.2996 55.5636 30.1996 55.7137 30.1246 55.7637L23.5228 57.7892C22.9227 57.7892 22.5726 57.7392 22.4725 57.6392C22.3725 57.5391 22.3225 57.1891 22.3225 56.5889L24.348 49.9872C24.3981 49.9372 24.5481 49.8371 24.7982 49.6871Z" fill="#EA5455"/>
<defs>
<filter id="filter0_d_1408_188" x="0.527588" y="0.584229" width="80" height="80" filterUnits="userSpaceOnUse" color-interpolation-filters="sRGB">
<feFlood flood-opacity="0" result="BackgroundImageFix"/>
<feColorMatrix in="SourceAlpha" type="matrix" values="0 0 0 0 0 0 0 0 0 0 0 0 0 0 0 0 0 0 127 0" result="hardAlpha"/>
<feOffset dx="-1" dy="2"/>
<feGaussianBlur stdDeviation="2.5"/>
<feComposite in2="hardAlpha" operator="out"/>
<feColorMatrix type="matrix" values="0 0 0 0 0 0 0 0 0 0 0 0 0 0 0 0 0 0 0.25 0"/>
<feBlend mode="normal" in2="BackgroundImageFix" result="effect1_dropShadow_1408_188"/>
<feBlend mode="normal" in="SourceGraphic" in2="effect1_dropShadow_1408_188" result="shape"/>
</filter>
</defs>
</svg>
