<svg width="81" height="81" viewBox="0 0 81 81" fill="none" xmlns="http://www.w3.org/2000/svg">
<g filter="url(#filter0_d_1357_69)">
<circle cx="41.5" cy="38.5" r="35" fill="white"/>
</g>
<path d="M61.2018 28.3466C60.8459 28.2755 60.5789 28.24 60.401 28.24C59.0839 28.24 57.9449 28.6841 56.9838 29.5724C54.8125 28.6131 52.7836 27.8313 50.897 27.2273C47.8003 26.2324 44.5611 25.4151 41.1796 24.7755C40.8592 23.9227 40.3787 23.2121 39.738 22.6436C40.6278 18.4507 41.8203 14.6487 43.3153 11.2376C47.8003 11.5574 51.9204 12.8543 55.6757 15.1284C59.431 17.4025 62.4655 20.3873 64.7792 24.0826C63.4621 25.5039 62.2697 26.9253 61.2018 28.3466ZM36.4276 21.4177C35.5021 21.4177 34.6301 21.6664 33.8114 22.1639C30.9282 20.0319 28.0272 18.2198 25.1084 16.7274C29.5222 13.3873 34.4699 11.5574 39.9515 11.2376C38.5633 14.3289 37.4421 17.7223 36.5878 21.4177H36.4276ZM17.9003 24.7222C19.1106 22.6969 20.6412 20.7781 22.4921 18.966C24.9126 20.2096 27.422 21.7375 30.0205 23.5497C25.4287 23.4431 21.3887 23.8339 17.9003 24.7222ZM31.3019 26.8542C31.3731 27.9557 31.7557 28.924 32.4499 29.759C33.144 30.594 34.0071 31.1536 35.0394 31.4379C34.8258 33.9252 34.719 36.2881 34.719 38.5266C34.719 40.0901 34.7724 41.8845 34.8792 43.9098C34.0961 44.1586 33.402 44.585 32.7969 45.189C30.8748 44.4428 29.0238 43.59 27.2441 42.6307C27.6356 41.8489 27.8314 41.0495 27.8314 40.2322C27.8314 38.8109 27.3331 37.6028 26.3364 36.6079C25.3397 35.613 24.1295 35.1155 22.7057 35.1155C21.1395 35.1155 19.8403 35.7196 18.808 36.9277C17.313 35.5774 15.9782 34.1739 14.8036 32.7171C15.1239 31.1892 15.6044 29.679 16.2452 28.1867C20.5878 26.9786 25.6067 26.5344 31.3019 26.8542ZM17.6334 40.6586C17.7402 41.9733 18.283 43.0837 19.2618 43.9898C20.2407 44.8959 21.3887 45.3489 22.7057 45.3489C23.0972 45.3489 23.5244 45.2778 23.9871 45.1357C26.2652 46.4504 28.7035 47.5875 31.3019 48.5468V48.76C31.3019 50.1458 31.7735 51.3273 32.7168 52.3044C33.6601 53.2816 34.8258 53.8057 36.214 53.8767C37.1039 58.2117 38.3498 62.1736 39.9515 65.7624C36.392 65.5492 33.0283 64.6875 29.8603 63.1774C26.6923 61.6673 23.9604 59.7041 21.6645 57.2879C19.3686 54.8716 17.5444 52.029 16.1918 48.76C14.8391 45.491 14.1628 42.0799 14.1628 38.5266C14.1628 38.4911 14.1806 38.0114 14.2162 37.0876C15.2129 38.3312 16.3519 39.5216 17.6334 40.6586ZM40.9126 51.1585C43.4755 51.6204 46.0561 51.9224 48.6546 52.0646C48.9037 52.7752 49.2953 53.4326 49.8292 54.0366C49.0105 57.7676 48.5122 61.3919 48.3342 64.9096C46.5188 65.3715 44.8459 65.6558 43.3153 65.7624C41.6423 61.9604 40.3431 57.661 39.4176 52.8641C40.0583 52.4377 40.5567 51.8691 40.9126 51.1585ZM57.4644 53.7168C57.9271 53.1483 58.2474 52.5443 58.4254 51.9047C61.0239 51.6915 63.5333 51.3539 65.9538 50.892C64.2452 54.2321 61.896 57.128 58.906 59.5797C58.5856 57.732 58.1051 55.7777 57.4644 53.7168ZM48.7613 48.6534C46.2697 48.5113 43.8136 48.1915 41.3931 47.6941C41.0016 45.9174 39.9871 44.6916 38.3498 44.0164C38.2074 41.92 38.1362 40.0901 38.1362 38.5266C38.1362 36.1815 38.243 33.7475 38.4565 31.2247C38.5277 31.2247 38.6167 31.1892 38.7235 31.1181C38.8303 31.047 38.9015 31.0115 38.9371 31.0115C40.3253 32.3617 41.5355 33.6054 42.5678 34.7424C45.6646 38.1536 48.2986 42.0266 50.4699 46.3616C49.6868 46.9656 49.1173 47.7296 48.7613 48.6534ZM53.5133 55.5823C53.5845 55.5823 53.7803 55.5645 54.1006 55.529C54.7057 57.6965 55.1507 59.8462 55.4354 61.9782C54.4032 62.5822 53.1573 63.1863 51.6979 63.7903C51.9471 61.0188 52.3742 58.265 52.9794 55.529C53.2641 55.5645 53.4421 55.5823 53.5133 55.5823ZM53.2463 42.8439C53.2107 42.9149 53.1662 43.0215 53.1128 43.1637C53.0595 43.3058 53.015 43.4124 52.9794 43.4834C50.7369 39.4327 48.1028 35.7551 45.0772 32.4506C43.9738 31.2069 42.6568 29.8567 41.1262 28.3999C41.1618 28.3999 41.1885 28.3732 41.2063 28.3199L41.233 28.24C44.223 28.844 47.0884 29.5902 49.8292 30.4785C51.5022 31.0115 53.3353 31.7222 55.3286 32.6105C55.2575 32.9658 55.2219 33.2323 55.2219 33.41C55.2219 34.4759 55.5422 35.4531 56.1829 36.3414C55.0083 38.5799 54.0294 40.7474 53.2463 42.8439ZM55.7558 45.9352C56.1829 44.6916 56.3965 44.052 56.3965 44.0164C57.1084 42.2398 57.9983 40.3388 59.0661 38.3135C59.5289 38.4556 59.9738 38.5266 60.401 38.5266C61.6112 38.5266 62.6968 38.118 63.6579 37.3008C65.4021 38.5089 67.1106 39.8591 68.7836 41.3515C68.57 43.3768 68.1429 45.3311 67.5022 47.2144C64.5834 47.8184 61.5044 48.2448 58.2652 48.4935C57.8025 47.3565 56.966 46.5037 55.7558 45.9352ZM65.5267 33.3567C65.5267 32.1841 65.1351 31.1181 64.352 30.1587C65.0995 29.1993 65.847 28.3288 66.5945 27.5471C67.8759 30.4607 68.6234 33.4633 68.837 36.5546C67.6624 35.6663 66.5233 34.8668 65.4199 34.1561C65.4911 33.8363 65.5267 33.5698 65.5267 33.3567Z" fill="#FF3C3C"/>
<defs>
<filter id="filter0_d_1357_69" x="0.5" y="0.5" width="80" height="80" filterUnits="userSpaceOnUse" color-interpolation-filters="sRGB">
<feFlood flood-opacity="0" result="BackgroundImageFix"/>
<feColorMatrix in="SourceAlpha" type="matrix" values="0 0 0 0 0 0 0 0 0 0 0 0 0 0 0 0 0 0 127 0" result="hardAlpha"/>
<feOffset dx="-1" dy="2"/>
<feGaussianBlur stdDeviation="2.5"/>
<feComposite in2="hardAlpha" operator="out"/>
<feColorMatrix type="matrix" values="0 0 0 0 0 0 0 0 0 0 0 0 0 0 0 0 0 0 0.25 0"/>
<feBlend mode="normal" in2="BackgroundImageFix" result="effect1_dropShadow_1357_69"/>
<feBlend mode="normal" in="SourceGraphic" in2="effect1_dropShadow_1357_69" result="shape"/>
</filter>
</defs>
</svg>
