<svg width="81" height="80" viewBox="0 0 81 80" fill="none" xmlns="http://www.w3.org/2000/svg">
<g filter="url(#filter0_d_2853_63)">
<circle cx="41.696" cy="38" r="35" fill="white"/>
</g>
<path d="M56.1186 19.2343L58.7138 16.6412C59.1245 16.2307 59.6814 16 60.2621 16C60.8428 16 61.3998 16.2307 61.8105 16.6412L63.3588 18.1897C63.7694 18.6004 64 19.1573 64 19.7381C64 20.3188 63.7694 20.8758 63.3588 21.2865L60.7636 23.8818L56.1186 19.2343ZM53.7972 21.5581L45.4291 29.9244L45.0787 29.5783C44.404 28.9035 43.5787 28.3987 42.6707 28.1055C41.7627 27.8123 40.798 27.739 39.8561 27.8917C38.9142 28.0444 38.0221 28.4187 37.2533 28.9838C36.4844 29.549 35.8608 30.2887 35.4339 31.1421L34.5228 32.9664C34.3924 33.2284 34.1792 33.4401 33.9164 33.5687C33.6535 33.6974 33.3556 33.7359 33.0687 33.6782L32.911 33.6454C31.0031 33.2637 29.0261 33.4298 27.2086 34.1243C25.3911 34.8187 23.8071 36.0134 22.6398 37.5701C20.7334 40.1121 19.808 43.2564 20.0332 46.4259C20.2585 49.5953 21.6195 52.5772 23.8662 54.8239L25.178 56.1336C27.4247 58.3805 30.4063 59.7415 33.5756 59.9668C36.7449 60.1921 39.8891 59.2665 42.431 57.3601C43.9876 56.1927 45.1822 54.6087 45.8767 52.791C46.5711 50.9734 46.7371 48.9964 46.3555 47.0884L46.3227 46.9307C46.2655 46.6441 46.3043 46.3466 46.4329 46.0842C46.5615 45.8218 46.7729 45.609 47.0344 45.4786L48.8565 44.5675C49.7104 44.1409 50.4507 43.5174 51.0162 42.7484C51.5818 41.9794 51.9565 41.087 52.1095 40.1447C52.2624 39.2025 52.1892 38.2374 51.8958 37.3289C51.6025 36.4205 51.0975 35.5949 50.4224 34.92L50.072 34.5718L58.44 26.2055L53.7972 21.5581ZM36.2924 43.6126C35.9872 43.3075 35.7452 42.9452 35.58 42.5465C35.4149 42.1478 35.3299 41.7205 35.3299 41.2889C35.3299 40.4174 35.6761 39.5815 36.2924 38.9652C36.9086 38.3489 37.7445 38.0027 38.616 38.0027C39.4875 38.0027 40.3233 38.3489 40.9396 38.9652C41.2446 39.2704 41.4865 39.6326 41.6515 40.0312C41.8165 40.4299 41.9014 40.8571 41.9013 41.2886C41.9012 41.7201 41.8161 42.1473 41.6509 42.5458C41.4857 42.9444 41.2436 43.3065 40.9385 43.6115C40.6334 43.9166 40.2711 44.1585 39.8725 44.3235C39.4739 44.4885 39.0466 44.5734 38.6152 44.5733C38.1838 44.5732 37.7566 44.4881 37.358 44.3229C36.9595 44.1577 36.5974 43.9178 36.2924 43.6126Z" fill="#FF9A00"/>
<defs>
<filter id="filter0_d_2853_63" x="0.696045" y="0" width="80" height="80" filterUnits="userSpaceOnUse" color-interpolation-filters="sRGB">
<feFlood flood-opacity="0" result="BackgroundImageFix"/>
<feColorMatrix in="SourceAlpha" type="matrix" values="0 0 0 0 0 0 0 0 0 0 0 0 0 0 0 0 0 0 127 0" result="hardAlpha"/>
<feOffset dx="-1" dy="2"/>
<feGaussianBlur stdDeviation="2.5"/>
<feComposite in2="hardAlpha" operator="out"/>
<feColorMatrix type="matrix" values="0 0 0 0 0 0 0 0 0 0 0 0 0 0 0 0 0 0 0.25 0"/>
<feBlend mode="normal" in2="BackgroundImageFix" result="effect1_dropShadow_2853_63"/>
<feBlend mode="normal" in="SourceGraphic" in2="effect1_dropShadow_2853_63" result="shape"/>
</filter>
</defs>
</svg>
