<svg width="81" height="81" viewBox="0 0 81 81" fill="none" xmlns="http://www.w3.org/2000/svg">
<g filter="url(#filter0_d_1357_72)">
<circle cx="41.5" cy="38.5" r="35" fill="white"/>
</g>
<path d="M28.847 59.5884H60.4797V55.3707H28.8723C27.8981 55.3454 26.7382 54.9595 26.7382 53.2619C26.7382 51.5643 27.8981 51.1783 28.8723 51.153H60.4797V21.6292C60.4797 19.3032 58.588 17.4116 56.262 17.4116H28.847C26.3038 17.4116 22.5205 19.0965 22.5205 23.7381V53.2619C22.5205 57.9034 26.3038 59.5884 28.847 59.5884ZM26.7382 23.7381C26.7382 22.0405 27.8981 21.6546 28.847 21.6292H56.262V46.9354H26.7382V23.7381Z" fill="#FFB400"/>
<path d="M33.0647 25.8469H52.0443V30.0646H33.0647V25.8469Z" fill="#FFB400"/>
<defs>
<filter id="filter0_d_1357_72" x="0.5" y="0.5" width="80" height="80" filterUnits="userSpaceOnUse" color-interpolation-filters="sRGB">
<feFlood flood-opacity="0" result="BackgroundImageFix"/>
<feColorMatrix in="SourceAlpha" type="matrix" values="0 0 0 0 0 0 0 0 0 0 0 0 0 0 0 0 0 0 127 0" result="hardAlpha"/>
<feOffset dx="-1" dy="2"/>
<feGaussianBlur stdDeviation="2.5"/>
<feComposite in2="hardAlpha" operator="out"/>
<feColorMatrix type="matrix" values="0 0 0 0 0 0 0 0 0 0 0 0 0 0 0 0 0 0 0.25 0"/>
<feBlend mode="normal" in2="BackgroundImageFix" result="effect1_dropShadow_1357_72"/>
<feBlend mode="normal" in="SourceGraphic" in2="effect1_dropShadow_1357_72" result="shape"/>
</filter>
</defs>
</svg>
