<svg width="81" height="81" viewBox="0 0 81 81" fill="none" xmlns="http://www.w3.org/2000/svg">
<g filter="url(#filter0_d_2321_112)">
<circle cx="41.2219" cy="38.035" r="35" fill="white"/>
</g>
<path d="M25.4753 34.5427L23.3383 29.9312L18.7268 27.7942L23.3383 25.6571L25.4753 21.0457L27.6124 25.6571L32.2239 27.7942L27.6124 29.9312L25.4753 34.5427ZM54.7189 27.7942L53.313 24.7011L50.2199 23.2952L53.313 21.8892L54.7189 18.7961L56.1249 21.8892L59.218 23.2952L56.1249 24.7011L54.7189 27.7942ZM59.218 36.7922L57.812 33.6991L54.7189 32.2932L57.812 30.8873L59.218 27.7942L60.6239 30.8873L63.717 32.2932L60.6239 33.6991L59.218 36.7922ZM41.2219 45.7902C39.3473 45.7902 37.7539 45.1341 36.4417 43.8219C35.1295 42.5097 34.4734 40.9163 34.4734 39.0417V25.5447C34.4734 23.6701 35.1295 22.0767 36.4417 20.7645C37.7539 19.4522 39.3473 18.7961 41.2219 18.7961C43.0965 18.7961 44.6899 19.4522 46.0021 20.7645C47.3143 22.0767 47.9704 23.6701 47.9704 25.5447V39.0417C47.9704 40.9163 47.3143 42.5097 46.0021 43.8219C44.6899 45.1341 43.0965 45.7902 41.2219 45.7902ZM38.9724 61.5368V54.6196C35.0732 54.0947 31.8489 52.3513 29.2995 49.3895C26.7501 46.4276 25.4753 42.9784 25.4753 39.0417H29.9743C29.9743 42.1535 31.0714 44.8065 33.2654 47.0005C35.4594 49.1945 38.1116 50.2908 41.2219 50.2893C44.3337 50.2893 46.9866 49.1923 49.1807 46.9982C51.3747 44.8042 52.4709 42.152 52.4694 39.0417H56.9684C56.9684 42.9784 55.6937 46.4276 53.1443 49.3895C50.5948 52.3513 47.3705 54.0947 43.4714 54.6196V61.5368H38.9724Z" fill="#212A68"/>
<defs>
<filter id="filter0_d_2321_112" x="0.221924" y="0.0350342" width="80" height="80" filterUnits="userSpaceOnUse" color-interpolation-filters="sRGB">
<feFlood flood-opacity="0" result="BackgroundImageFix"/>
<feColorMatrix in="SourceAlpha" type="matrix" values="0 0 0 0 0 0 0 0 0 0 0 0 0 0 0 0 0 0 127 0" result="hardAlpha"/>
<feOffset dx="-1" dy="2"/>
<feGaussianBlur stdDeviation="2.5"/>
<feComposite in2="hardAlpha" operator="out"/>
<feColorMatrix type="matrix" values="0 0 0 0 0 0 0 0 0 0 0 0 0 0 0 0 0 0 0.25 0"/>
<feBlend mode="normal" in2="BackgroundImageFix" result="effect1_dropShadow_2321_112"/>
<feBlend mode="normal" in="SourceGraphic" in2="effect1_dropShadow_2321_112" result="shape"/>
</filter>
</defs>
</svg>
