<svg width="81" height="81" viewBox="0 0 81 81" fill="none" xmlns="http://www.w3.org/2000/svg">
<g filter="url(#filter0_d_1357_74)">
<circle cx="41.5" cy="38.5" r="35" fill="white"/>
</g>
<path d="M42.2725 19.0377C50.5203 19.0377 55.2013 24.4971 55.8807 31.0917H56.089C57.35 31.0896 58.599 31.336 59.7648 31.8169C60.9305 32.2977 61.99 33.0035 62.8829 33.8939C63.7758 34.7844 64.4844 35.842 64.9684 37.0064C65.4524 38.1708 65.7022 39.4192 65.7035 40.6801C65.7018 41.9407 65.4519 43.1886 64.9679 44.3525C64.4839 45.5164 63.7754 46.5737 62.8829 47.4638C61.9903 48.3539 60.9312 49.0595 59.766 49.5403C58.6007 50.0212 57.3522 50.2677 56.0916 50.266H54.5764L54.5686 50.2764H53.8813C53.8276 50.4298 53.755 50.5758 53.6652 50.7112L51.0618 54.6164C50.7719 55.041 50.3262 55.3342 49.8215 55.4322C49.3168 55.5303 48.7938 55.4253 48.366 55.1401C47.9382 54.8549 47.6402 54.4125 47.5366 53.9089C47.433 53.4054 47.5322 52.8812 47.8127 52.4503L49.268 50.266H44.5037L44.4985 50.2764H43.4649C43.4112 50.4289 43.3386 50.5741 43.2488 50.7086L40.6454 54.6138C40.507 54.8354 40.3256 55.027 40.1119 55.1772C39.8982 55.3274 39.6565 55.4332 39.4011 55.4883C39.1458 55.5435 38.882 55.5468 38.6253 55.4981C38.3686 55.4494 38.1244 55.3498 37.9069 55.205C37.6895 55.0602 37.5033 54.8732 37.3594 54.6552C37.2155 54.4372 37.1168 54.1925 37.0692 53.9356C37.0216 53.6787 37.026 53.4149 37.0822 53.1598C37.1384 52.9047 37.2452 52.6634 37.3963 52.4503L38.8542 50.266H34.4258L34.4232 50.2764H33.0512C32.9967 50.4299 32.9232 50.576 32.8325 50.7112L30.229 54.6164C29.9391 55.041 29.4935 55.3342 28.9888 55.4322C28.4841 55.5303 27.9611 55.4253 27.5333 55.1401C27.1055 54.8549 26.8074 54.4125 26.7038 53.9089C26.6002 53.4054 26.6994 52.8812 26.9799 52.4503L28.4378 50.266C25.8948 50.2653 23.4559 49.2555 21.6567 47.4583C19.8575 45.661 18.845 43.2232 18.8416 40.6801C18.8426 39.4189 19.0921 38.1703 19.576 37.0056C20.0598 35.8409 20.7684 34.7829 21.6613 33.8922C22.5542 33.0015 23.6139 32.2955 24.7797 31.8145C25.9456 31.3335 27.1949 31.087 28.4561 31.0891H28.6643C29.3464 24.4503 34.0222 19.0377 42.2725 19.0377Z" fill="#56BBC9"/>
<path d="M29.5832 60.2581C29.4376 60.4714 29.3358 60.7114 29.2836 60.9643C29.2314 61.2172 29.2298 61.4779 29.2791 61.7314C29.3283 61.9849 29.4274 62.2261 29.5705 62.441C29.7136 62.656 29.8979 62.8404 30.1127 62.9837C30.3276 63.1269 30.5687 63.2261 30.8222 63.2755C31.0756 63.3249 31.3364 63.3236 31.5893 63.2715C31.8422 63.2195 32.0823 63.1178 32.2957 62.9724C32.509 62.8269 32.6914 62.6406 32.8323 62.4242L35.4357 58.519C35.5813 58.3057 35.6832 58.0657 35.7354 57.8128C35.7876 57.5599 35.7891 57.2992 35.7398 57.0457C35.6906 56.7922 35.5916 56.551 35.4485 56.3361C35.3054 56.1211 35.121 55.9367 34.9062 55.7935C34.6913 55.6502 34.4502 55.551 34.1968 55.5016C33.9433 55.4522 33.6826 55.4536 33.4296 55.5056C33.1767 55.5576 32.9366 55.6593 32.7233 55.8048C32.5099 55.9502 32.3275 56.1365 32.1866 56.3529L29.5832 60.2581Z" fill="#56BBC9"/>
<path d="M40.5385 62.9657C40.1077 62.6784 39.8086 62.2318 39.707 61.724C39.6055 61.2163 39.7098 60.689 39.997 60.2581L42.6004 56.3529C42.7413 56.1365 42.9237 55.9502 43.137 55.8048C43.3504 55.6593 43.5905 55.5576 43.8434 55.5056C44.0964 55.4536 44.3571 55.4522 44.6105 55.5016C44.864 55.551 45.1051 55.6502 45.32 55.7935C45.5348 55.9367 45.7191 56.1211 45.8622 56.3361C46.0053 56.551 46.1044 56.7922 46.1536 57.0457C46.2029 57.2992 46.2014 57.5599 46.1492 57.8128C46.097 58.0657 45.9951 58.3057 45.8495 58.519L43.2461 62.4242C42.9588 62.855 42.5122 63.1541 42.0044 63.2556C41.4967 63.3572 40.9694 63.2529 40.5385 62.9657Z" fill="#56BBC9"/>
<defs>
<filter id="filter0_d_1357_74" x="0.5" y="0.5" width="80" height="80" filterUnits="userSpaceOnUse" color-interpolation-filters="sRGB">
<feFlood flood-opacity="0" result="BackgroundImageFix"/>
<feColorMatrix in="SourceAlpha" type="matrix" values="0 0 0 0 0 0 0 0 0 0 0 0 0 0 0 0 0 0 127 0" result="hardAlpha"/>
<feOffset dx="-1" dy="2"/>
<feGaussianBlur stdDeviation="2.5"/>
<feComposite in2="hardAlpha" operator="out"/>
<feColorMatrix type="matrix" values="0 0 0 0 0 0 0 0 0 0 0 0 0 0 0 0 0 0 0.25 0"/>
<feBlend mode="normal" in2="BackgroundImageFix" result="effect1_dropShadow_1357_74"/>
<feBlend mode="normal" in="SourceGraphic" in2="effect1_dropShadow_1357_74" result="shape"/>
</filter>
</defs>
</svg>
