<svg width="81" height="81" viewBox="0 0 81 81" fill="none" xmlns="http://www.w3.org/2000/svg">
<g filter="url(#filter0_d_1435_403)">
<circle cx="41.459" cy="38.1321" r="35" fill="white"/>
</g>
<path d="M31.6067 27.1031C33.9495 27.1031 35.8487 25.1654 35.8487 22.7752C35.8487 20.385 33.9495 18.4474 31.6067 18.4474C29.2639 18.4474 27.3647 20.385 27.3647 22.7752C27.3647 25.1654 29.2639 27.1031 31.6067 27.1031Z" fill="#2E1D96"/>
<path d="M51.3113 18.4474C48.9685 18.4474 47.0693 20.385 47.0693 22.7752C47.0693 25.1654 48.9685 27.1031 51.3113 27.1031C53.654 27.1031 55.5532 25.1654 55.5532 22.7752C55.5532 20.385 53.654 18.4474 51.3113 18.4474Z" fill="#2E1D96"/>
<path d="M31.6067 33.8042C29.2639 33.8042 27.3647 35.7419 27.3647 38.1321C27.3647 40.5223 29.2639 42.4599 31.6067 42.4599C33.9495 42.4599 35.8487 40.5223 35.8487 38.1321C35.8487 35.7419 33.9495 33.8042 31.6067 33.8042Z" fill="#2E1D96"/>
<path d="M51.3113 42.4599C53.654 42.4599 55.5532 40.5223 55.5532 38.1321C55.5532 35.7419 53.654 33.8042 51.3113 33.8042C48.9685 33.8042 47.0693 35.7419 47.0693 38.1321C47.0693 40.5223 48.9685 42.4599 51.3113 42.4599Z" fill="#2E1D96"/>
<path d="M31.6067 57.8167C33.9495 57.8167 35.8487 55.8791 35.8487 53.4889C35.8487 51.0987 33.9495 49.1611 31.6067 49.1611C29.2639 49.1611 27.3647 51.0987 27.3647 53.4889C27.3647 55.8791 29.2639 57.8167 31.6067 57.8167Z" fill="#2E1D96"/>
<path d="M51.3113 49.1611C48.9685 49.1611 47.0693 51.0987 47.0693 53.4889C47.0693 55.8791 48.9685 57.8167 51.3113 57.8167C53.654 57.8167 55.5532 55.8791 55.5532 53.4889C55.5532 51.0987 53.654 49.1611 51.3113 49.1611Z" fill="#2E1D96"/>
<defs>
<filter id="filter0_d_1435_403" x="0.458984" y="0.13208" width="80" height="80" filterUnits="userSpaceOnUse" color-interpolation-filters="sRGB">
<feFlood flood-opacity="0" result="BackgroundImageFix"/>
<feColorMatrix in="SourceAlpha" type="matrix" values="0 0 0 0 0 0 0 0 0 0 0 0 0 0 0 0 0 0 127 0" result="hardAlpha"/>
<feOffset dx="-1" dy="2"/>
<feGaussianBlur stdDeviation="2.5"/>
<feComposite in2="hardAlpha" operator="out"/>
<feColorMatrix type="matrix" values="0 0 0 0 0 0 0 0 0 0 0 0 0 0 0 0 0 0 0.25 0"/>
<feBlend mode="normal" in2="BackgroundImageFix" result="effect1_dropShadow_1435_403"/>
<feBlend mode="normal" in="SourceGraphic" in2="effect1_dropShadow_1435_403" result="shape"/>
</filter>
</defs>
</svg>
