<svg width="81" height="81" viewBox="0 0 81 81" fill="none" xmlns="http://www.w3.org/2000/svg">
<g filter="url(#filter0_d_1357_71)">
<circle cx="41.5" cy="38.5" r="35" fill="white"/>
</g>
<path d="M29.2721 15.9365C26.7197 15.9365 24.2718 16.9504 22.467 18.7553C20.6621 20.5601 19.6482 23.008 19.6482 25.5604V34.408C20.6461 33.7394 21.7238 33.1984 22.8561 32.7976V25.5604C22.8561 23.8588 23.5321 22.2269 24.7353 21.0236C25.9386 19.8204 27.5705 19.1444 29.2721 19.1444H54.936C56.6376 19.1444 58.2695 19.8204 59.4727 21.0236C60.676 22.2269 61.3519 23.8588 61.3519 25.5604V51.2243C61.3519 52.4208 61.0247 53.5404 60.4537 54.4964L45.4756 39.7782C44.7658 39.0804 43.857 38.62 42.8746 38.4603C41.8921 38.3005 40.8843 38.4494 39.99 38.8864C40.545 39.7942 41.0037 40.7695 41.3502 41.796C41.651 41.6357 41.9951 41.5753 42.3326 41.6238C42.67 41.6722 42.9833 41.827 43.2268 42.0655L58.1825 56.758C57.1986 57.3369 56.0775 57.6416 54.936 57.6402H45.7002L47.1117 59.0517C47.6346 59.5746 48.0131 60.1906 48.2473 60.8482H54.936C57.4884 60.8482 59.9363 59.8343 61.7411 58.0294C63.546 56.2246 64.5599 53.7767 64.5599 51.2243V25.5604C64.5599 23.008 63.546 20.5601 61.7411 18.7553C59.9363 16.9504 57.4884 15.9365 54.936 15.9365H29.2721Z" fill="#16D993"/>
<path d="M50.124 35.1844C51.4002 35.1844 52.6242 34.6774 53.5266 33.775C54.429 32.8725 54.936 31.6486 54.936 30.3724C54.936 29.0962 54.429 27.8722 53.5266 26.9698C52.6242 26.0674 51.4002 25.5604 50.124 25.5604C48.8478 25.5604 47.6238 26.0674 46.7214 26.9698C45.819 27.8722 45.312 29.0962 45.312 30.3724C45.312 31.6486 45.819 32.8725 46.7214 33.775C47.6238 34.6774 48.8478 35.1844 50.124 35.1844ZM50.124 31.9764C49.6986 31.9764 49.2906 31.8074 48.9898 31.5066C48.689 31.2058 48.52 30.7978 48.52 30.3724C48.52 29.947 48.689 29.539 48.9898 29.2382C49.2906 28.9374 49.6986 28.7684 50.124 28.7684C50.5494 28.7684 50.9574 28.9374 51.2582 29.2382C51.559 29.539 51.728 29.947 51.728 30.3724C51.728 30.7978 51.559 31.2058 51.2582 31.5066C50.9574 31.8074 50.5494 31.9764 50.124 31.9764Z" fill="#16D993"/>
<path d="M36.6601 53.1362C38.3601 50.8629 39.1358 48.03 38.8313 45.2077C38.5267 42.3854 37.1644 39.7832 35.0186 37.9249C32.8728 36.0665 30.1028 35.0899 27.2659 35.1916C24.4291 35.2933 21.736 36.4657 19.7288 38.4729C17.7215 40.4802 16.5491 43.1732 16.4474 46.0101C16.3457 48.8469 17.3223 51.617 19.1807 53.7628C21.0391 55.9086 23.6412 57.2709 26.4635 57.5754C29.2858 57.88 32.1187 57.1042 34.3921 55.4043L42.5724 63.5846C42.8732 63.8858 43.2813 64.0552 43.7069 64.0555C44.1325 64.0558 44.5409 63.887 44.8421 63.5862C45.1432 63.2855 45.3126 62.8774 45.3129 62.4517C45.3132 62.0261 45.1444 61.6178 44.8437 61.3166L36.6601 53.1362ZM27.6681 54.4323C25.5411 54.4323 23.5012 53.5873 21.9972 52.0833C20.4931 50.5792 19.6482 48.5393 19.6482 46.4123C19.6482 44.2853 20.4931 42.2454 21.9972 40.7413C23.5012 39.2373 25.5411 38.3923 27.6681 38.3923C29.7951 38.3923 31.8351 39.2373 33.3391 40.7413C34.8431 42.2454 35.6881 44.2853 35.6881 46.4123C35.6881 48.5393 34.8431 50.5792 33.3391 52.0833C31.8351 53.5873 29.7951 54.4323 27.6681 54.4323Z" fill="#16D993"/>
<defs>
<filter id="filter0_d_1357_71" x="0.5" y="0.5" width="80" height="80" filterUnits="userSpaceOnUse" color-interpolation-filters="sRGB">
<feFlood flood-opacity="0" result="BackgroundImageFix"/>
<feColorMatrix in="SourceAlpha" type="matrix" values="0 0 0 0 0 0 0 0 0 0 0 0 0 0 0 0 0 0 127 0" result="hardAlpha"/>
<feOffset dx="-1" dy="2"/>
<feGaussianBlur stdDeviation="2.5"/>
<feComposite in2="hardAlpha" operator="out"/>
<feColorMatrix type="matrix" values="0 0 0 0 0 0 0 0 0 0 0 0 0 0 0 0 0 0 0.25 0"/>
<feBlend mode="normal" in2="BackgroundImageFix" result="effect1_dropShadow_1357_71"/>
<feBlend mode="normal" in="SourceGraphic" in2="effect1_dropShadow_1357_71" result="shape"/>
</filter>
</defs>
</svg>
