<svg width="81" height="81" viewBox="0 0 81 81" fill="none" xmlns="http://www.w3.org/2000/svg">
<g filter="url(#filter0_d_2512_78)">
<circle cx="41.2219" cy="38.938" r="35" fill="white"/>
</g>
<path d="M50.0933 20.7789C55.3841 20.7789 59.6167 25.0115 59.6167 30.3023C59.6167 32.1647 59.0876 33.9 58.1564 35.3603L64.717 41.942L61.733 44.8836L55.1513 38.3654C53.691 39.2966 51.9557 39.8257 50.0933 39.8257C44.8025 39.8257 40.5699 35.5931 40.5699 30.3023C40.5699 25.0115 44.8025 20.7789 50.0933 20.7789ZM50.0933 25.0115C48.6901 25.0115 47.3444 25.569 46.3522 26.5612C45.36 27.5534 44.8025 28.8991 44.8025 30.3023C44.8025 31.7055 45.36 33.0512 46.3522 34.0434C47.3444 35.0356 48.6901 35.5931 50.0933 35.5931C51.4965 35.5931 52.8422 35.0356 53.8344 34.0434C54.8266 33.0512 55.3841 31.7055 55.3841 30.3023C55.3841 28.8991 54.8266 27.5534 53.8344 26.5612C52.8422 25.569 51.4965 25.0115 50.0933 25.0115ZM25.7558 25.0115H37.3955C36.7394 26.6834 36.3373 28.4823 36.3373 30.3023C36.3373 33.9506 37.7866 37.4495 40.3664 40.0293C42.9461 42.609 46.445 44.0583 50.0933 44.0583C51.5324 44.0583 52.908 43.8255 54.2413 43.4022L59.6167 48.7776V50.4072C59.6167 51.5298 59.1707 52.6063 58.377 53.4001C57.5832 54.1939 56.5066 54.6398 55.3841 54.6398H46.7072L38.8769 62.4913C38.4536 62.8722 37.9457 63.105 37.3955 63.105H36.3373C35.776 63.105 35.2378 62.8821 34.8409 62.4852C34.444 62.0883 34.221 61.55 34.221 60.9887V54.6398H25.7558C24.6332 54.6398 23.5567 54.1939 22.7629 53.4001C21.9691 52.6063 21.5232 51.5298 21.5232 50.4072V29.2442C21.5232 28.1216 21.9691 27.045 22.7629 26.2512C23.5567 25.4575 24.6332 25.0115 25.7558 25.0115Z" fill="#A30A7C"/>
<defs>
<filter id="filter0_d_2512_78" x="0.221924" y="0.937988" width="80" height="80" filterUnits="userSpaceOnUse" color-interpolation-filters="sRGB">
<feFlood flood-opacity="0" result="BackgroundImageFix"/>
<feColorMatrix in="SourceAlpha" type="matrix" values="0 0 0 0 0 0 0 0 0 0 0 0 0 0 0 0 0 0 127 0" result="hardAlpha"/>
<feOffset dx="-1" dy="2"/>
<feGaussianBlur stdDeviation="2.5"/>
<feComposite in2="hardAlpha" operator="out"/>
<feColorMatrix type="matrix" values="0 0 0 0 0 0 0 0 0 0 0 0 0 0 0 0 0 0 0.25 0"/>
<feBlend mode="normal" in2="BackgroundImageFix" result="effect1_dropShadow_2512_78"/>
<feBlend mode="normal" in="SourceGraphic" in2="effect1_dropShadow_2512_78" result="shape"/>
</filter>
</defs>
</svg>
