<svg width="80" height="80" viewBox="0 0 80 80" fill="none" xmlns="http://www.w3.org/2000/svg">
<rect width="80" height="80" rx="40" fill="#8D24DF"/>
<path d="M53.8615 27.4877C51.3116 26.3377 48.5783 25.4877 45.7201 25.0044C45.6946 24.9995 45.6683 25.0027 45.6447 25.0134C45.6211 25.0242 45.6014 25.042 45.5884 25.0644C45.2384 25.6794 44.8484 26.4811 44.5751 27.1144C41.5437 26.6614 38.4618 26.6614 35.4304 27.1144C35.1259 26.4125 34.7826 25.7281 34.4021 25.0644C34.3892 25.0417 34.3696 25.0235 34.3461 25.0122C34.3226 25.0009 34.2962 24.997 34.2704 25.0011C31.4138 25.4844 28.6806 26.3344 26.129 27.486C26.107 27.4952 26.0884 27.5109 26.0756 27.531C20.8891 35.1558 19.4675 42.5923 20.1658 49.9354C20.1677 49.9534 20.1733 49.9708 20.1822 49.9865C20.1911 50.0023 20.2031 50.0161 20.2175 50.027C23.2447 52.231 26.6212 53.91 30.2055 54.9936C30.2305 55.0013 30.2572 55.0012 30.2822 54.9935C30.3072 54.9858 30.3292 54.9707 30.3455 54.9502C31.1155 53.9169 31.8021 52.8253 32.3888 51.6787C32.4238 51.612 32.3904 51.532 32.3204 51.5053C31.2438 51.0999 30.2006 50.6106 29.2005 50.042C29.1826 50.0318 29.1674 50.0172 29.1565 49.9997C29.1455 49.9821 29.1391 49.9621 29.1378 49.9415C29.1364 49.9208 29.1403 49.9002 29.1489 49.8814C29.1575 49.8625 29.1707 49.8462 29.1872 49.8337C29.3972 49.6787 29.6072 49.5171 29.8072 49.3554C29.8252 49.3409 29.8469 49.3316 29.8698 49.3287C29.8928 49.3257 29.9161 49.3292 29.9372 49.3387C36.482 52.2786 43.5701 52.2786 50.0383 49.3387C50.0594 49.3286 50.083 49.3247 50.1062 49.3273C50.1295 49.33 50.1516 49.3391 50.1699 49.3537C50.3699 49.5171 50.5783 49.6787 50.7899 49.8337C50.8066 49.8459 50.82 49.8621 50.8289 49.8807C50.8378 49.8994 50.8419 49.9199 50.8409 49.9406C50.8399 49.9612 50.8338 49.9813 50.8232 49.999C50.8125 50.0167 50.7977 50.0315 50.7799 50.042C49.7833 50.6154 48.7466 51.1003 47.6583 51.5037C47.6416 51.5097 47.6264 51.5193 47.6137 51.5317C47.6009 51.5441 47.591 51.5591 47.5846 51.5757C47.5781 51.5923 47.5752 51.61 47.5762 51.6278C47.5771 51.6455 47.5818 51.6629 47.59 51.6787C48.19 52.8236 48.8766 53.9136 49.6316 54.9486C49.6473 54.9698 49.6692 54.9857 49.6942 54.994C49.7193 55.0024 49.7463 55.0028 49.7716 54.9952C53.3621 53.9147 56.7441 52.2349 59.7747 50.027C59.7894 50.0167 59.8018 50.0033 59.811 49.9878C59.8202 49.9723 59.826 49.955 59.828 49.937C60.6613 41.4473 58.4314 34.0708 53.9132 27.5344C53.9021 27.5131 53.8837 27.4966 53.8615 27.4877ZM33.3671 45.4638C31.3971 45.4638 29.7722 43.6822 29.7722 41.4973C29.7722 39.3107 31.3655 37.5307 33.3671 37.5307C35.3837 37.5307 36.9936 39.3257 36.962 41.4973C36.962 43.6839 35.3687 45.4638 33.3671 45.4638ZM46.6584 45.4638C44.6868 45.4638 43.0635 43.6822 43.0635 41.4973C43.0635 39.3107 44.6551 37.5307 46.6584 37.5307C48.675 37.5307 50.2849 39.3257 50.2533 41.4973C50.2533 43.6839 48.6766 45.4638 46.6584 45.4638Z" fill="white"/>
</svg>
