<svg width="322" height="301" viewBox="0 0 322 301" fill="none" xmlns="http://www.w3.org/2000/svg">
<g filter="url(#filter0_d_2512_68)">
<rect x="25.5854" y="25.4483" width="271" height="250" rx="15" fill="white"/>
</g>
<path d="M220.64 92.3308C220.642 95.507 219.937 98.6435 218.578 101.512C217.219 104.38 215.24 106.908 212.785 108.911C210.33 110.915 207.461 112.343 204.387 113.092C201.313 113.841 198.11 113.892 195.014 113.242L184.124 131.325C187.593 134.523 190.362 138.409 192.254 142.739C194.147 147.068 195.121 151.745 195.116 156.473V156.969L206.143 159.19C208.542 154.693 212.466 151.207 217.204 149.364C221.942 147.52 227.181 147.44 231.973 149.139C236.764 150.837 240.792 154.202 243.326 158.623C245.861 163.045 246.735 168.232 245.791 173.245C244.846 178.257 242.146 182.765 238.178 185.952C234.21 189.139 229.236 190.794 224.158 190.618C219.08 190.442 214.232 188.447 210.492 184.993C206.752 181.54 204.367 176.856 203.769 171.789L192.538 169.517C189.608 176.616 184.389 182.521 177.717 186.285L181.929 199.201H182.354C187.417 199.202 192.314 201.016 196.165 204.318C200.015 207.619 202.565 212.192 203.358 217.213C204.151 222.234 203.134 227.374 200.489 231.709C197.845 236.044 193.747 239.29 188.932 240.863C184.117 242.437 178.901 242.234 174.222 240.291C169.543 238.348 165.708 234.793 163.406 230.266C161.104 225.738 160.486 220.534 161.663 215.59C162.841 210.645 165.737 206.285 169.83 203.293L165.61 190.343C159.563 191.162 153.408 190.332 147.791 187.939C142.174 185.546 137.302 181.679 133.688 176.744L118.416 183.979C118.985 189.049 117.728 194.156 114.872 198.375C112.016 202.595 107.749 205.649 102.845 206.984C97.9402 208.319 92.7218 207.846 88.1339 205.653C83.5461 203.459 79.8921 199.689 77.8333 195.024C75.7745 190.36 75.447 185.11 76.9101 180.224C78.3731 175.338 81.53 171.139 85.8094 168.388C90.0888 165.637 95.2078 164.515 100.24 165.225C105.272 165.935 109.885 168.43 113.243 172.259L128.166 165.178C126.795 159.933 126.685 154.436 127.845 149.14C129.004 143.844 131.401 138.901 134.836 134.717L126.405 125.064C121.683 126.95 116.445 127.075 111.639 125.419C106.833 123.763 102.776 120.434 100.203 116.035C97.6298 111.636 96.7102 106.457 97.6107 101.436C98.5112 96.4153 101.172 91.8839 105.112 88.6622C109.052 85.4405 114.011 83.7414 119.09 83.8725C124.17 84.0035 129.035 85.9559 132.805 89.3765C136.575 92.797 139.001 97.4596 139.644 102.52C140.286 107.581 139.103 112.705 136.308 116.966L144.672 126.533C149.697 123.751 155.345 122.296 161.084 122.305C165.38 122.305 169.507 123.099 173.284 124.569L183.877 106.972C181.499 104.434 179.776 101.351 178.858 97.9905C177.94 94.6305 177.854 91.0959 178.609 87.6951C179.364 84.2943 180.936 81.1306 183.189 78.4799C185.441 75.8293 188.305 73.7722 191.531 72.4882C194.757 71.2041 198.247 70.7321 201.697 71.1132C205.146 71.4944 208.451 72.7172 211.321 74.6749C214.192 76.6326 216.542 79.2658 218.167 82.3448C219.791 85.4238 220.64 88.8466 220.64 92.3308Z" fill="#EA5455"/>
<defs>
<filter id="filter0_d_2512_68" x="0.585449" y="0.448334" width="321" height="300" filterUnits="userSpaceOnUse" color-interpolation-filters="sRGB">
<feFlood flood-opacity="0" result="BackgroundImageFix"/>
<feColorMatrix in="SourceAlpha" type="matrix" values="0 0 0 0 0 0 0 0 0 0 0 0 0 0 0 0 0 0 127 0" result="hardAlpha"/>
<feOffset/>
<feGaussianBlur stdDeviation="12.5"/>
<feComposite in2="hardAlpha" operator="out"/>
<feColorMatrix type="matrix" values="0 0 0 0 0 0 0 0 0 0 0 0 0 0 0 0 0 0 0.25 0"/>
<feBlend mode="normal" in2="BackgroundImageFix" result="effect1_dropShadow_2512_68"/>
<feBlend mode="normal" in="SourceGraphic" in2="effect1_dropShadow_2512_68" result="shape"/>
</filter>
</defs>
</svg>
