<svg width="322" height="300" viewBox="0 0 322 300" fill="none" xmlns="http://www.w3.org/2000/svg">
<g filter="url(#filter0_d_2853_34)">
<rect x="25.5854" y="25" width="271" height="250" rx="15" fill="white"/>
</g>
<path d="M220.266 79.2023L230.056 69.4192C231.606 67.8702 233.707 67 235.898 67C238.089 67 240.19 67.8702 241.739 69.4192L247.581 75.261C249.13 76.8105 250 78.9118 250 81.1027C250 83.2937 249.13 85.395 247.581 86.9445L237.79 96.7359L220.266 79.2023ZM211.508 87.9691L179.937 119.533L178.615 118.227C176.07 115.682 172.956 113.777 169.53 112.671C166.105 111.564 162.465 111.288 158.912 111.864C155.358 112.44 151.993 113.853 149.092 115.985C146.191 118.117 143.839 120.907 142.228 124.127L138.791 131.01C138.298 131.998 137.494 132.797 136.503 133.282C135.511 133.767 134.387 133.913 133.305 133.695L132.71 133.571C125.512 132.131 118.053 132.758 111.196 135.378C104.339 137.998 98.3632 142.505 93.9593 148.378C86.7671 157.968 83.2755 169.831 84.1254 181.789C84.9753 193.746 90.1098 204.996 98.5862 213.472L103.535 218.413C112.011 226.89 123.26 232.025 135.217 232.875C147.174 233.725 159.036 230.233 168.626 223.04C174.499 218.636 179.006 212.66 181.626 205.803C184.246 198.945 184.872 191.486 183.432 184.288L183.308 183.693C183.093 182.612 183.239 181.49 183.724 180.5C184.209 179.51 185.007 178.707 185.993 178.215L192.868 174.778C196.089 173.168 198.882 170.815 201.016 167.914C203.15 165.013 204.563 161.646 205.14 158.091C205.717 154.537 205.441 150.895 204.334 147.468C203.228 144.041 201.322 140.926 198.775 138.38L197.453 137.066L229.024 105.503L211.508 87.9691ZM145.467 171.175C144.315 170.024 143.402 168.657 142.779 167.153C142.156 165.649 141.836 164.036 141.836 162.408C141.836 159.12 143.142 155.967 145.467 153.641C147.792 151.316 150.945 150.01 154.233 150.01C157.521 150.01 160.674 151.316 162.999 153.641C164.15 154.793 165.063 156.159 165.685 157.663C166.308 159.167 166.628 160.779 166.628 162.407C166.627 164.035 166.306 165.646 165.683 167.15C165.06 168.654 164.146 170.02 162.995 171.171C161.844 172.322 160.477 173.234 158.974 173.857C157.47 174.479 155.858 174.8 154.23 174.799C152.602 174.799 150.991 174.478 149.487 173.855C147.983 173.231 146.617 172.326 145.467 171.175Z" fill="#FF9A00"/>
<defs>
<filter id="filter0_d_2853_34" x="0.585449" y="0" width="321" height="300" filterUnits="userSpaceOnUse" color-interpolation-filters="sRGB">
<feFlood flood-opacity="0" result="BackgroundImageFix"/>
<feColorMatrix in="SourceAlpha" type="matrix" values="0 0 0 0 0 0 0 0 0 0 0 0 0 0 0 0 0 0 127 0" result="hardAlpha"/>
<feOffset/>
<feGaussianBlur stdDeviation="12.5"/>
<feComposite in2="hardAlpha" operator="out"/>
<feColorMatrix type="matrix" values="0 0 0 0 0 0 0 0 0 0 0 0 0 0 0 0 0 0 0.25 0"/>
<feBlend mode="normal" in2="BackgroundImageFix" result="effect1_dropShadow_2853_34"/>
<feBlend mode="normal" in="SourceGraphic" in2="effect1_dropShadow_2853_34" result="shape"/>
</filter>
</defs>
</svg>
