<svg width="322" height="300" viewBox="0 0 322 300" fill="none" xmlns="http://www.w3.org/2000/svg">
<g filter="url(#filter0_d_1401_73)">
<rect x="25.8693" y="25" width="271" height="250" rx="15" fill="white"/>
</g>
<path d="M224.431 124.319C223.291 124.092 222.437 123.978 221.867 123.978C217.652 123.978 214.006 125.4 210.93 128.243C203.98 125.172 197.486 122.67 191.447 120.737C181.535 117.552 171.167 114.936 160.344 112.889C159.318 110.16 157.78 107.885 155.73 106.065C158.578 92.645 162.395 80.4757 167.18 69.5574C181.535 70.581 194.723 74.7322 206.743 82.011C218.763 89.2899 228.475 98.8434 235.881 110.672C231.665 115.221 227.849 119.77 224.431 124.319ZM145.134 102.142C142.172 102.142 139.38 102.938 136.76 104.53C127.531 97.7061 118.246 91.9057 108.903 87.129C123.031 76.4382 138.868 70.581 156.413 69.5574C151.97 79.4521 148.381 90.3135 145.647 102.142H145.134ZM85.8322 112.719C89.7059 106.236 94.6049 100.094 100.529 94.2941C108.277 98.2747 116.309 103.165 124.626 108.966C109.929 108.624 96.9975 109.875 85.8322 112.719ZM128.728 119.543C128.956 123.068 130.18 126.168 132.402 128.84C134.624 131.513 137.387 133.304 140.691 134.214C140.007 142.175 139.665 149.738 139.665 156.904C139.665 161.908 139.836 167.651 140.178 174.134C137.671 174.93 135.45 176.295 133.513 178.228C127.36 175.84 121.436 173.11 115.739 170.04C116.993 167.538 117.619 164.979 117.619 162.363C117.619 157.813 116.024 153.947 112.834 150.762C109.644 147.578 105.77 145.985 101.213 145.985C96.2 145.985 92.0415 147.919 88.7374 151.786C83.9523 147.464 79.6798 142.971 75.92 138.308C76.9454 133.418 78.4835 128.584 80.5343 123.808C94.434 119.941 110.498 118.519 128.728 119.543ZM84.9777 163.728C85.3195 167.936 87.0569 171.49 90.1901 174.39C93.3232 177.29 96.9975 178.74 101.213 178.74C102.466 178.74 103.833 178.513 105.315 178.058C112.606 182.266 120.411 185.905 128.728 188.976V189.658C128.728 194.094 130.237 197.876 133.256 201.003C136.276 204.131 140.007 205.808 144.45 206.036C147.299 219.911 151.286 232.592 156.413 244.079C145.02 243.397 134.253 240.639 124.113 235.805C113.973 230.972 105.229 224.688 97.8805 216.954C90.5319 209.22 84.6928 200.122 80.3634 189.658C76.034 179.195 73.8693 168.277 73.8693 156.904C73.8693 156.79 73.9262 155.254 74.0402 152.297C77.2303 156.278 80.8761 160.088 84.9777 163.728ZM159.489 197.335C167.693 198.814 175.953 199.781 184.27 200.236C185.067 202.51 186.32 204.614 188.029 206.548C185.409 218.49 183.814 230.09 183.244 241.35C177.434 242.828 172.079 243.738 167.18 244.079C161.825 231.91 157.666 218.148 154.704 202.794C156.755 201.43 158.35 199.61 159.489 197.335ZM212.468 205.524C213.949 203.704 214.974 201.771 215.544 199.724C223.861 199.041 231.893 197.961 239.641 196.482C234.172 207.173 226.652 216.442 217.082 224.29C216.057 218.376 214.519 212.121 212.468 205.524ZM184.611 189.317C176.636 188.862 168.775 187.839 161.027 186.246C159.774 180.56 156.527 176.636 151.286 174.475C150.831 167.765 150.603 161.908 150.603 156.904C150.603 149.397 150.944 141.607 151.628 133.532C151.856 133.532 152.141 133.418 152.483 133.19C152.824 132.963 153.052 132.849 153.166 132.849C157.609 137.171 161.483 141.152 164.787 144.791C174.699 155.709 183.13 168.106 190.08 181.982C187.574 183.915 185.751 186.36 184.611 189.317ZM199.821 211.495C200.049 211.495 200.676 211.438 201.701 211.324C203.638 218.262 205.062 225.143 205.974 231.967C202.67 233.9 198.682 235.834 194.011 237.767C194.808 228.896 196.176 220.082 198.112 211.324C199.024 211.438 199.594 211.495 199.821 211.495ZM198.967 170.722C198.853 170.95 198.711 171.291 198.54 171.746C198.369 172.201 198.226 172.542 198.112 172.769C190.935 159.804 182.504 148.032 172.819 137.455C169.288 133.475 165.072 129.153 160.173 124.49C160.287 124.49 160.372 124.405 160.429 124.234L160.515 123.978C170.085 125.912 179.257 128.3 188.029 131.143C193.384 132.849 199.252 135.124 205.632 137.967C205.404 139.105 205.29 139.958 205.29 140.526C205.29 143.938 206.316 147.066 208.366 149.909C204.607 157.074 201.473 164.012 198.967 170.722ZM206.999 180.617C208.366 176.636 209.05 174.589 209.05 174.475C211.329 168.789 214.177 162.704 217.595 156.221C219.076 156.676 220.5 156.904 221.867 156.904C225.741 156.904 229.216 155.596 232.292 152.98C237.875 156.847 243.344 161.169 248.698 165.945C248.015 172.428 246.648 178.683 244.597 184.711C235.254 186.645 225.399 188.009 215.031 188.805C213.55 185.166 210.873 182.436 206.999 180.617ZM238.274 140.356C238.274 136.602 237.02 133.19 234.514 130.12C236.906 127.049 239.299 124.262 241.692 121.76C245.793 131.086 248.186 140.697 248.869 150.591C245.109 147.748 241.464 145.189 237.932 142.915C238.16 141.891 238.274 141.038 238.274 140.356Z" fill="#FF3C3C"/>
<defs>
<filter id="filter0_d_1401_73" x="0.869263" y="0" width="321" height="300" filterUnits="userSpaceOnUse" color-interpolation-filters="sRGB">
<feFlood flood-opacity="0" result="BackgroundImageFix"/>
<feColorMatrix in="SourceAlpha" type="matrix" values="0 0 0 0 0 0 0 0 0 0 0 0 0 0 0 0 0 0 127 0" result="hardAlpha"/>
<feOffset/>
<feGaussianBlur stdDeviation="12.5"/>
<feComposite in2="hardAlpha" operator="out"/>
<feColorMatrix type="matrix" values="0 0 0 0 0 0 0 0 0 0 0 0 0 0 0 0 0 0 0.25 0"/>
<feBlend mode="normal" in2="BackgroundImageFix" result="effect1_dropShadow_1401_73"/>
<feBlend mode="normal" in="SourceGraphic" in2="effect1_dropShadow_1401_73" result="shape"/>
</filter>
</defs>
</svg>
