<svg width="322" height="301" viewBox="0 0 322 301" fill="none" xmlns="http://www.w3.org/2000/svg">
<g filter="url(#filter0_d_1401_92)">
<rect x="25.8696" y="25.3624" width="271" height="250" rx="15" fill="white"/>
</g>
<path d="M245.542 230.738L220.374 205.725V109.496L208.487 87.6355C207.61 85.9688 206.295 84.5733 204.683 83.5998C203.07 82.6263 201.223 82.1118 199.34 82.1118C197.456 82.1118 195.609 82.6263 193.997 83.5998C192.385 84.5733 191.069 85.9688 190.192 87.6355L179.029 109.548V164.587L84.506 70.5293C83.7831 69.8004 82.8596 69.3034 81.8532 69.1015C80.8467 68.8995 79.8029 69.0019 78.8549 69.3956C77.9068 69.7892 77.0975 70.4562 76.53 71.3116C75.9626 72.1671 75.6627 73.1721 75.6687 74.1986V115.956H86.8833V124.225H75.6687V157.301H86.8833V165.569H75.6687V199.937H86.8833V208.206H75.6687V234.408C75.6687 235.778 76.2132 237.093 77.1823 238.062C78.1515 239.031 79.4661 239.576 80.8367 239.576H241.873C242.899 239.582 243.904 239.282 244.76 238.714C245.615 238.147 246.282 237.337 246.676 236.389C247.069 235.441 247.172 234.398 246.97 233.391C246.768 232.385 246.271 231.461 245.542 230.738ZM117.013 198.645V151.822L163.887 198.645H117.013ZM210.038 209.549H189.365V196.991H210.038V209.549ZM210.038 188.877H189.365V112.08L199.391 92.5968L210.038 112.132V188.877Z" fill="#EA5455"/>
<defs>
<filter id="filter0_d_1401_92" x="0.869629" y="0.362427" width="321" height="300" filterUnits="userSpaceOnUse" color-interpolation-filters="sRGB">
<feFlood flood-opacity="0" result="BackgroundImageFix"/>
<feColorMatrix in="SourceAlpha" type="matrix" values="0 0 0 0 0 0 0 0 0 0 0 0 0 0 0 0 0 0 127 0" result="hardAlpha"/>
<feOffset/>
<feGaussianBlur stdDeviation="12.5"/>
<feComposite in2="hardAlpha" operator="out"/>
<feColorMatrix type="matrix" values="0 0 0 0 0 0 0 0 0 0 0 0 0 0 0 0 0 0 0.25 0"/>
<feBlend mode="normal" in2="BackgroundImageFix" result="effect1_dropShadow_1401_92"/>
<feBlend mode="normal" in="SourceGraphic" in2="effect1_dropShadow_1401_92" result="shape"/>
</filter>
</defs>
</svg>
