<svg width="322" height="301" viewBox="0 0 322 301" fill="none" xmlns="http://www.w3.org/2000/svg">
<g filter="url(#filter0_d_1435_454)">
<rect x="25.5854" y="25.0808" width="271" height="250" rx="15" fill="white"/>
</g>
<path d="M166.816 221.537H80.8599C77.8204 221.537 74.9053 220.329 72.756 218.18C70.6066 216.031 69.3992 213.116 69.3992 210.076V95.4681C69.3992 92.4286 70.6066 89.5135 72.756 87.3641C74.9053 85.2148 77.8204 84.0074 80.8599 84.0074H241.311C244.35 84.0074 247.266 85.2148 249.415 87.3641C251.564 89.5135 252.772 92.4286 252.772 95.4681V154.892C245.137 145.169 234.033 138.782 221.789 137.073C209.546 135.364 197.117 138.466 187.112 145.727C177.107 152.988 170.304 163.843 168.133 176.013C165.962 188.183 168.592 200.72 175.469 210.993L170.139 217.525L166.816 221.537ZM98.0511 118.39V127.558H195.468V118.39H98.0511ZM98.0511 150.48H161.085V141.311H98.0511V150.48ZM98.0511 190.593H155.355V181.424H98.0511V190.593Z" fill="#8D24DF"/>
<path d="M251.797 184.805C251.813 178.763 250.328 172.811 247.476 167.484C244.625 162.158 240.495 157.622 235.459 154.284C230.422 150.947 224.636 148.911 218.619 148.361C212.602 147.811 206.542 148.763 200.984 151.132C195.425 153.501 190.542 157.213 186.771 161.934C183.001 166.655 180.462 172.239 179.381 178.184C178.3 184.128 178.712 190.248 180.58 195.995C182.447 201.741 185.712 206.934 190.081 211.107L178.964 224.688L184.122 245.375L205.095 219.818C211.734 221.781 218.799 221.781 225.438 219.818L246.411 245.375L251.568 224.688L240.451 211.107C244.026 207.721 246.876 203.643 248.826 199.122C250.777 194.6 251.787 189.729 251.797 184.805ZM190.253 184.805C190.185 179.838 191.595 174.963 194.305 170.8C197.015 166.637 200.902 163.374 205.471 161.426C210.04 159.477 215.086 158.932 219.966 159.859C224.846 160.786 229.34 163.144 232.877 166.632C236.414 170.12 238.833 174.581 239.827 179.448C240.822 184.315 240.346 189.367 238.462 193.963C236.577 198.559 233.368 202.49 229.242 205.258C225.117 208.025 220.262 209.502 215.295 209.503C208.713 209.518 202.393 206.93 197.712 202.303C193.032 197.676 190.371 191.386 190.31 184.805H190.253Z" fill="#8D24DF"/>
<defs>
<filter id="filter0_d_1435_454" x="0.585449" y="0.0808105" width="321" height="300" filterUnits="userSpaceOnUse" color-interpolation-filters="sRGB">
<feFlood flood-opacity="0" result="BackgroundImageFix"/>
<feColorMatrix in="SourceAlpha" type="matrix" values="0 0 0 0 0 0 0 0 0 0 0 0 0 0 0 0 0 0 127 0" result="hardAlpha"/>
<feOffset/>
<feGaussianBlur stdDeviation="12.5"/>
<feComposite in2="hardAlpha" operator="out"/>
<feColorMatrix type="matrix" values="0 0 0 0 0 0 0 0 0 0 0 0 0 0 0 0 0 0 0.25 0"/>
<feBlend mode="normal" in2="BackgroundImageFix" result="effect1_dropShadow_1435_454"/>
<feBlend mode="normal" in="SourceGraphic" in2="effect1_dropShadow_1435_454" result="shape"/>
</filter>
</defs>
</svg>
