<svg width="322" height="301" viewBox="0 0 322 301" fill="none" xmlns="http://www.w3.org/2000/svg">
<g filter="url(#filter0_d_1401_96)">
<rect x="25.5853" y="25.3622" width="271" height="250" rx="15" fill="white"/>
</g>
<path d="M161.085 71.6583C194.272 71.6583 213.106 93.6253 215.84 120.16H216.678C221.752 120.151 226.778 121.143 231.468 123.078C236.159 125.012 240.422 127.852 244.015 131.435C247.607 135.018 250.459 139.273 252.406 143.959C254.354 148.644 255.359 153.667 255.364 158.741C255.357 163.813 254.352 168.834 252.404 173.517C250.457 178.2 247.606 182.454 244.015 186.036C240.424 189.617 236.162 192.457 231.473 194.391C226.785 196.326 221.761 197.318 216.689 197.311H210.592L210.561 197.353H207.795C207.579 197.97 207.287 198.558 206.926 199.103L196.45 214.816C195.284 216.524 193.491 217.704 191.46 218.098C189.429 218.493 187.325 218.071 185.604 216.923C183.882 215.776 182.683 213.995 182.266 211.969C181.849 209.943 182.249 207.834 183.377 206.1L189.233 197.311H170.063L170.042 197.353H165.883C165.667 197.967 165.375 198.551 165.014 199.092L154.538 214.805C153.982 215.697 153.252 216.468 152.392 217.072C151.532 217.677 150.559 218.102 149.532 218.324C148.504 218.546 147.443 218.559 146.41 218.363C145.377 218.168 144.394 217.767 143.519 217.184C142.644 216.601 141.895 215.849 141.316 214.972C140.737 214.094 140.34 213.11 140.149 212.076C139.957 211.043 139.975 209.981 140.201 208.955C140.427 207.928 140.857 206.958 141.465 206.1L147.331 197.311H129.512L129.502 197.353H123.981C123.762 197.971 123.467 198.558 123.101 199.103L112.626 214.816C111.46 216.524 109.666 217.704 107.636 218.098C105.605 218.493 103.5 218.071 101.779 216.923C100.058 215.776 98.8586 213.995 98.4418 211.969C98.0249 209.943 98.4241 207.834 99.5526 206.1L105.419 197.311C95.1863 197.308 85.373 193.245 78.1336 186.014C70.8942 178.782 66.8203 168.973 66.8064 158.741C66.8105 153.666 67.8147 148.642 69.7614 143.955C71.7082 139.269 74.5594 135.012 78.1521 131.428C81.7448 127.844 86.0086 125.003 90.6998 123.068C95.3909 121.133 100.418 120.141 105.492 120.149H106.33C109.075 93.4368 127.889 71.6583 161.085 71.6583Z" fill="#56BBC9"/>
<path d="M110.027 237.516C109.442 238.374 109.032 239.34 108.822 240.358C108.612 241.375 108.606 242.424 108.804 243.444C109.002 244.464 109.4 245.435 109.976 246.3C110.552 247.165 111.294 247.907 112.158 248.483C113.023 249.059 113.993 249.458 115.013 249.657C116.032 249.856 117.082 249.851 118.099 249.641C119.117 249.432 120.083 249.023 120.942 248.438C121.8 247.852 122.534 247.103 123.101 246.232L133.576 230.519C134.162 229.661 134.572 228.695 134.782 227.677C134.992 226.66 134.998 225.61 134.8 224.591C134.602 223.571 134.203 222.6 133.627 221.735C133.052 220.87 132.31 220.128 131.445 219.552C130.581 218.976 129.611 218.576 128.591 218.378C127.571 218.179 126.522 218.184 125.504 218.394C124.487 218.603 123.521 219.012 122.662 219.597C121.804 220.183 121.07 220.932 120.503 221.803L110.027 237.516Z" fill="#56BBC9"/>
<path d="M154.108 248.411C152.375 247.255 151.171 245.458 150.763 243.415C150.354 241.372 150.774 239.25 151.929 237.516L162.405 221.803C162.971 220.932 163.705 220.183 164.564 219.597C165.422 219.012 166.388 218.603 167.406 218.394C168.424 218.184 169.473 218.179 170.493 218.378C171.513 218.576 172.483 218.976 173.347 219.552C174.212 220.128 174.953 220.87 175.529 221.735C176.105 222.6 176.503 223.571 176.702 224.591C176.9 225.61 176.894 226.66 176.684 227.677C176.474 228.695 176.064 229.661 175.478 230.519L165.003 246.232C163.847 247.965 162.05 249.169 160.007 249.577C157.963 249.986 155.842 249.566 154.108 248.411Z" fill="#56BBC9"/>
<defs>
<filter id="filter0_d_1401_96" x="0.585327" y="0.362183" width="321" height="300" filterUnits="userSpaceOnUse" color-interpolation-filters="sRGB">
<feFlood flood-opacity="0" result="BackgroundImageFix"/>
<feColorMatrix in="SourceAlpha" type="matrix" values="0 0 0 0 0 0 0 0 0 0 0 0 0 0 0 0 0 0 127 0" result="hardAlpha"/>
<feOffset/>
<feGaussianBlur stdDeviation="12.5"/>
<feComposite in2="hardAlpha" operator="out"/>
<feColorMatrix type="matrix" values="0 0 0 0 0 0 0 0 0 0 0 0 0 0 0 0 0 0 0.25 0"/>
<feBlend mode="normal" in2="BackgroundImageFix" result="effect1_dropShadow_1401_96"/>
<feBlend mode="normal" in="SourceGraphic" in2="effect1_dropShadow_1401_96" result="shape"/>
</filter>
</defs>
</svg>
