<svg width="322" height="301" viewBox="0 0 322 301" fill="none" xmlns="http://www.w3.org/2000/svg">
<g filter="url(#filter0_d_1401_98)">
<rect x="25.8691" y="25.043" width="271" height="250" rx="15" fill="white"/>
</g>
<path d="M133.354 70.7643C132.521 70.7696 131.702 70.9825 130.971 71.3837C128.572 72.7137 127.692 75.7963 129.021 78.194L134.438 87.9758C121.386 96.0506 112.738 109.844 112.738 125.587V128.512C110.231 125.628 106.547 123.807 102.43 123.807C94.8874 123.807 88.7632 129.931 88.7632 137.473V179.573C88.7632 187.115 94.8879 193.24 102.43 193.24C106.547 193.24 110.231 191.418 112.738 188.534V194.431C112.738 202.382 119.244 208.887 127.194 208.887H130.862V227.615C130.862 235.158 136.987 241.283 144.529 241.283C152.072 241.283 158.196 235.158 158.196 227.615V208.887H164.542V227.615C164.542 235.158 170.667 241.283 178.209 241.283C185.751 241.283 191.876 235.158 191.876 227.615V208.887H195.544C203.494 208.887 210 202.382 210 194.431V188.534C212.506 191.418 216.191 193.24 220.308 193.24C227.85 193.24 233.975 187.115 233.975 179.573V137.473C233.975 129.931 227.85 123.807 220.308 123.807C216.191 123.807 212.506 125.628 210 128.512V126.082V125.942C210.001 125.794 210 125.676 210 125.587C210 109.847 201.332 96.0671 188.285 87.9918L193.717 78.194C195.046 75.7963 194.167 72.7137 191.767 71.3837C191.037 70.9825 190.218 70.7696 189.384 70.7643C187.612 70.7472 185.873 71.6812 184.957 73.3337L179.277 83.5957C173.723 81.5462 167.679 80.4227 161.37 80.4227C155.066 80.4227 149.011 81.5342 143.461 83.5798L137.781 73.3337C136.865 71.6812 135.126 70.7483 133.354 70.7643Z" fill="#71910C"/>
<path d="M102.415 127.356C96.787 127.356 92.3085 131.835 92.3085 137.463V179.562C92.3085 185.191 96.787 189.669 102.415 189.669C108.043 189.669 112.522 185.191 112.522 179.562V137.463C112.522 131.835 108.043 127.356 102.415 127.356V127.356ZM220.294 127.356C214.665 127.356 210.186 131.835 210.186 137.463V179.562C210.186 185.191 214.665 189.669 220.294 189.669C225.922 189.669 230.4 185.191 230.4 179.562V137.463C230.4 131.835 225.922 127.356 220.294 127.356V127.356Z" fill="#A4C639"/>
<path d="M144.564 175.413C138.936 175.413 134.457 179.892 134.457 185.52V227.619C134.457 233.248 138.936 237.726 144.564 237.726C150.192 237.726 154.671 233.248 154.671 227.619V185.52C154.671 179.892 150.192 175.413 144.564 175.413ZM178.244 175.413C172.615 175.413 168.137 179.892 168.137 185.52V227.619C168.137 233.248 172.615 237.726 178.244 237.726C183.872 237.726 188.35 233.248 188.35 227.619V185.52C188.35 179.892 183.872 175.413 178.244 175.413Z" fill="#A4C639"/>
<path d="M133.424 74.3094C133.185 74.3123 132.951 74.3761 132.743 74.4948C132.022 74.8942 131.786 75.7224 132.186 76.4448L139.306 89.307C125.608 96.4347 116.355 109.979 116.337 125.525H206.479C206.46 109.979 197.208 96.4341 183.51 89.307L190.63 76.4454C191.03 75.723 190.793 74.8942 190.072 74.4948C189.865 74.376 189.631 74.3122 189.392 74.3094C188.88 74.3037 188.396 74.5597 188.122 75.0523L180.91 88.0533C175.009 85.4366 168.392 83.9673 161.408 83.9673C154.424 83.9673 147.807 85.436 141.906 88.0533L134.693 75.0523C134.57 74.8241 134.387 74.6341 134.163 74.5031C133.939 74.3721 133.684 74.3051 133.425 74.3094H133.424ZM116.337 129.085V194.417C116.334 195.848 116.614 197.267 117.16 198.59C117.707 199.913 118.509 201.116 119.522 202.128C120.534 203.14 121.736 203.943 123.06 204.489C124.383 205.036 125.801 205.315 127.233 205.312H195.583C197.015 205.315 198.433 205.036 199.756 204.489C201.08 203.943 202.282 203.14 203.295 202.128C204.307 201.115 205.11 199.913 205.656 198.59C206.203 197.266 206.482 195.848 206.479 194.416V129.085H116.337V129.085Z" fill="#A4C639"/>
<path d="M140.582 101.522C138.524 101.522 136.82 103.225 136.82 105.283C136.82 107.341 138.524 109.044 140.582 109.044C142.64 109.044 144.343 107.341 144.343 105.283C144.343 103.225 142.64 101.522 140.582 101.522ZM182.186 101.522C180.128 101.522 178.425 103.225 178.425 105.283C178.425 107.341 180.128 109.044 182.186 109.044C184.243 109.044 185.947 107.341 185.947 105.283C185.947 103.225 184.243 101.522 182.186 101.522Z" fill="#71910C"/>
<defs>
<filter id="filter0_d_1401_98" x="0.869141" y="0.0429688" width="321" height="300" filterUnits="userSpaceOnUse" color-interpolation-filters="sRGB">
<feFlood flood-opacity="0" result="BackgroundImageFix"/>
<feColorMatrix in="SourceAlpha" type="matrix" values="0 0 0 0 0 0 0 0 0 0 0 0 0 0 0 0 0 0 127 0" result="hardAlpha"/>
<feOffset/>
<feGaussianBlur stdDeviation="12.5"/>
<feComposite in2="hardAlpha" operator="out"/>
<feColorMatrix type="matrix" values="0 0 0 0 0 0 0 0 0 0 0 0 0 0 0 0 0 0 0.25 0"/>
<feBlend mode="normal" in2="BackgroundImageFix" result="effect1_dropShadow_1401_98"/>
<feBlend mode="normal" in="SourceGraphic" in2="effect1_dropShadow_1401_98" result="shape"/>
</filter>
</defs>
</svg>
