<svg width="322" height="301" viewBox="0 0 322 301" fill="none" xmlns="http://www.w3.org/2000/svg">
<g filter="url(#filter0_d_1401_92)">
<rect x="25.8696" y="25.3621" width="271" height="250" rx="15" fill="white"/>
</g>
<path d="M190.028 154.079L200.376 164.428L187.48 177.324C186.525 178.279 186.525 179.235 187.48 180.19L190.187 182.896C191.142 183.852 192.097 183.852 193.053 182.896L205.949 170L225.85 189.902L212.954 202.798C211.999 203.753 211.999 204.655 212.954 205.504L215.66 208.37C216.616 209.325 217.571 209.325 218.526 208.37L231.422 195.474L241.452 205.504C242.408 206.46 242.885 207.627 242.885 209.007C242.885 210.387 242.408 211.607 241.452 212.669L215.979 238.142C214.917 239.098 213.697 239.575 212.317 239.575C210.937 239.575 209.77 239.098 208.814 238.142L157.389 186.717L127.458 216.649C125.76 218.347 123.69 219.196 121.249 219.196C118.807 219.196 116.738 218.347 115.039 216.649L102.94 204.39C101.241 202.692 100.392 200.648 100.392 198.26C100.392 195.872 101.241 193.829 102.94 192.131L132.871 162.199L81.2869 110.615C80.3316 109.66 79.854 108.492 79.854 107.112C79.854 105.733 80.3316 104.565 81.2869 103.61L106.761 77.9768C107.822 77.0216 109.043 76.5439 110.422 76.5439C111.802 76.5439 112.97 77.0216 113.925 77.9768L123.955 88.0071L111.059 100.903C110.104 101.858 110.104 102.814 111.059 103.769L113.766 106.475C114.721 107.431 115.676 107.431 116.632 106.475L129.528 93.5795L149.429 113.481L136.533 126.377C135.578 127.332 135.578 128.287 136.533 129.243L139.239 131.949C140.195 132.904 141.15 132.904 142.105 131.949L155.001 119.053L165.35 129.561L215.82 79.0913C217.518 77.3931 219.561 76.5439 221.949 76.5439C224.337 76.5439 226.381 77.3931 228.079 79.0913L240.338 91.3505C242.036 93.0487 242.885 95.0919 242.885 97.4801C242.885 99.8683 242.036 101.911 240.338 103.61L190.028 154.079ZM90.3619 205.186C90.5742 206.035 90.9457 206.725 91.4764 207.256L112.174 227.953C112.704 228.484 113.394 228.855 114.243 229.067C113.713 230.129 113.288 230.766 112.97 230.978L84.9487 239.575C82.4014 239.575 80.9154 239.363 80.4908 238.938C80.0663 238.514 79.854 237.028 79.854 234.481L88.4514 206.46C88.6636 206.247 89.3005 205.823 90.3619 205.186Z" fill="#EA5455"/>
<defs>
<filter id="filter0_d_1401_92" x="0.869629" y="0.362061" width="321" height="300" filterUnits="userSpaceOnUse" color-interpolation-filters="sRGB">
<feFlood flood-opacity="0" result="BackgroundImageFix"/>
<feColorMatrix in="SourceAlpha" type="matrix" values="0 0 0 0 0 0 0 0 0 0 0 0 0 0 0 0 0 0 127 0" result="hardAlpha"/>
<feOffset/>
<feGaussianBlur stdDeviation="12.5"/>
<feComposite in2="hardAlpha" operator="out"/>
<feColorMatrix type="matrix" values="0 0 0 0 0 0 0 0 0 0 0 0 0 0 0 0 0 0 0.25 0"/>
<feBlend mode="normal" in2="BackgroundImageFix" result="effect1_dropShadow_1401_92"/>
<feBlend mode="normal" in="SourceGraphic" in2="effect1_dropShadow_1401_92" result="shape"/>
</filter>
</defs>
</svg>
