<svg width="322" height="301" viewBox="0 0 322 301" fill="none" xmlns="http://www.w3.org/2000/svg">
<g filter="url(#filter0_d_1408_150)">
<rect x="25.8669" y="25.7244" width="271" height="250" rx="15" fill="white"/>
</g>
<path d="M62.3152 163.168C62.3152 164.484 62.8866 165.603 64.0295 166.524C65.1724 167.445 66.5376 167.905 68.1249 167.905H98.4118C99.8722 167.905 101.142 167.537 102.221 166.8C103.301 166.063 103.968 165.116 104.222 163.958L113.365 119.587L129.842 230.593C130.096 231.804 130.746 232.804 131.794 233.593C132.842 234.383 134.064 234.777 135.461 234.777C136.985 234.777 138.286 234.383 139.366 233.593C140.445 232.804 141.112 231.804 141.366 230.593L154.033 149.115L164.605 172.721C164.986 173.669 165.668 174.432 166.652 175.011C167.637 175.59 168.732 175.88 169.938 175.88H170.415C171.621 175.827 172.716 175.458 173.7 174.774C174.685 174.09 175.335 173.222 175.653 172.169L191.177 114.376L198.416 225.382C198.479 226.593 198.987 227.632 199.939 228.501C200.892 229.369 202.098 229.856 203.559 229.961C205.019 230.067 206.321 229.777 207.464 229.093C208.606 228.409 209.337 227.488 209.654 226.33L226.417 167.905H254.608C256.196 167.905 257.561 167.445 258.704 166.524C259.847 165.603 260.418 164.484 260.418 163.168C260.418 161.852 259.847 160.721 258.704 159.773C257.561 158.826 256.196 158.352 254.608 158.352H221.845C220.512 158.352 219.321 158.694 218.273 159.379C217.226 160.063 216.543 160.931 216.226 161.984L207.749 191.828L200.416 79.2428C200.352 78.0322 199.812 76.9927 198.797 76.1242C197.781 75.2557 196.574 74.7952 195.177 74.7425C193.717 74.6373 192.399 74.9399 191.225 75.6505C190.05 76.3611 189.304 77.3216 188.987 78.5322L168.7 154.089L156.89 127.482C156.446 126.482 155.636 125.693 154.462 125.114C153.287 124.535 152.065 124.298 150.795 124.403C149.461 124.508 148.334 124.956 147.414 125.745C146.493 126.535 145.906 127.482 145.652 128.588L135.651 191.828L120.127 86.1116C119.873 84.901 119.238 83.9141 118.222 83.1509C117.206 82.3877 116 81.9798 114.603 81.9271C113.143 81.8745 111.857 82.2166 110.746 82.9535C109.634 83.6904 108.952 84.6641 108.698 85.8747L93.6497 158.352H68.1249C66.5376 158.352 65.1724 158.826 64.0295 159.773C62.8866 160.721 62.3152 161.852 62.3152 163.168Z" fill="#FF3C3C"/>
<defs>
<filter id="filter0_d_1408_150" x="0.866943" y="0.724365" width="321" height="300" filterUnits="userSpaceOnUse" color-interpolation-filters="sRGB">
<feFlood flood-opacity="0" result="BackgroundImageFix"/>
<feColorMatrix in="SourceAlpha" type="matrix" values="0 0 0 0 0 0 0 0 0 0 0 0 0 0 0 0 0 0 127 0" result="hardAlpha"/>
<feOffset/>
<feGaussianBlur stdDeviation="12.5"/>
<feComposite in2="hardAlpha" operator="out"/>
<feColorMatrix type="matrix" values="0 0 0 0 0 0 0 0 0 0 0 0 0 0 0 0 0 0 0.25 0"/>
<feBlend mode="normal" in2="BackgroundImageFix" result="effect1_dropShadow_1408_150"/>
<feBlend mode="normal" in="SourceGraphic" in2="effect1_dropShadow_1408_150" result="shape"/>
</filter>
</defs>
</svg>
