<svg width="322" height="300" viewBox="0 0 322 300" fill="none" xmlns="http://www.w3.org/2000/svg">
<g filter="url(#filter0_d_2853_31)">
<rect x="25.2251" y="25" width="271" height="250" rx="15" fill="white"/>
</g>
<path d="M170.448 77.2592C172.951 77.7428 173.12 78.0558 172.079 80.2828C171.044 82.4948 171.094 81.9962 171.064 90.0006C171.036 96.7079 170.89 99.2629 170.529 99.621C170.491 99.6585 169.751 99.8778 168.885 100.105C166.028 100.853 166.103 100.764 165.765 104.073C165.663 104.945 165.579 105.82 165.515 106.696C165.53 106.711 168.46 107.333 172.027 108.079L178.515 109.442L185.549 113.395L188.133 117.636C189.55 119.964 190.73 121.868 190.76 121.868C190.783 121.868 192.801 121.106 195.231 120.176C197.668 119.246 199.686 118.5 199.716 118.528C199.782 118.594 201.896 133.063 201.843 133.108C201.543 133.363 187.28 137.561 186.942 137.495C186.701 137.45 184.147 136.689 181.261 135.802C178.376 134.917 175.999 134.22 175.969 134.243C175.946 134.273 175.8 137.231 175.653 140.826C175.568 143.014 175.465 145.201 175.345 147.387C175.33 147.402 174.148 148.367 172.733 149.547L170.147 151.684L168.122 151.62C167.013 151.575 161.764 151.479 156.465 151.399L146.834 151.252L143.715 149.327C142.364 148.493 141.007 147.659 139.641 146.83C138.489 146.135 138.474 146.485 139.752 143.704C140.33 142.421 140.815 141.295 140.815 141.199C140.815 141.083 144.993 139.566 152.207 137.062C158.822 134.762 163.444 133.093 163.226 133.071C162.294 132.99 140.749 132.456 139.596 132.486C137.423 132.542 132.528 130.105 130.083 127.755C129.811 127.492 129.379 114.267 129.636 114.033C133.019 110.958 135.112 109.455 138.782 107.479L142.49 105.473L147.597 105.678C152.053 105.854 152.757 105.854 153.118 105.678C153.344 105.56 155.826 104.529 158.637 103.378L163.754 101.284L158.91 100.976C157.219 100.861 155.528 100.756 153.836 100.661C153.515 100.669 150.439 96.378 150.299 95.7406C149.996 93.9175 149.71 92.0916 149.441 90.2631L148.698 85.2992L150.878 81.6082C152.575 78.7307 153.118 77.9096 153.346 77.9021C153.507 77.8965 156.377 77.6772 159.724 77.4129C166.199 76.9067 168.43 76.8786 170.448 77.2592ZM213.568 108.306C215.079 108.452 216.071 108.724 216.569 109.119C216.869 109.361 217.033 110.942 217.362 117.034L217.392 117.651L210.88 120.395C207.291 121.904 204.253 123.179 204.127 123.214C203.849 123.31 200.348 118.389 200.552 118.2C200.618 118.14 201.631 117.724 202.798 117.276C203.535 117 204.269 116.717 205 116.427C205.046 116.398 205 115.212 204.912 113.791C204.818 112.362 204.781 111.133 204.831 111.06C204.876 110.979 205.448 110.261 206.094 109.47L207.284 108.021L209.713 108.102C211.057 108.139 212.79 108.233 213.566 108.308M207.592 113.35C207.637 113.725 207.753 114.919 207.849 116.003C207.943 117.094 208.039 118.009 208.062 118.039C208.12 118.112 213.502 116.588 213.492 116.502C213.487 116.406 207.761 112.685 207.622 112.685C207.562 112.685 207.547 112.983 207.592 113.35ZM170.083 124.708C168.958 126.87 167.828 129.022 166.697 131.176L165.853 132.778L168.614 130.632L171.374 128.495L171.455 127.535C171.498 127.016 171.799 125.258 172.122 123.632C173.024 119.085 173.021 119.092 170.083 124.708ZM139.032 156.483C141.219 157.123 143.418 157.718 145.63 158.269C147.458 158.715 149.037 159.118 149.132 159.169C149.241 159.227 148.869 159.769 148.082 160.693L146.857 162.127L145.402 165.76L143.942 169.383L148.362 169.282C150.797 169.23 152.795 169.179 152.803 169.164C152.81 169.157 152.957 167.781 153.126 166.11C153.404 163.349 153.464 163.042 153.75 162.787C153.924 162.633 155.093 161.754 156.354 160.837L158.637 159.176L161.039 160.875L163.431 162.567L163.689 165.788C163.82 167.561 163.946 169.01 163.959 169.01L167.821 168.967L171.668 168.922L169.362 164.155C168.093 161.542 167.073 159.375 167.101 159.352C167.124 159.322 168.629 159.154 170.448 158.972C173.539 158.663 173.906 158.597 176.123 157.922C177.422 157.529 178.575 157.206 178.679 157.206C178.788 157.206 181.511 160.209 184.741 163.885C191.869 171.983 191.92 172.041 196.779 176.567C205.551 184.747 206.741 186.277 208.026 191.001C208.862 194.06 209.214 194.924 212.224 201.304C213.788 204.612 215.219 207.902 215.763 209.439C216.276 210.901 216.439 210.632 214.316 211.876C213.56 212.317 212.936 212.755 212.936 212.851C212.929 213.4 214.77 214.161 220.885 216.147C228.791 218.709 230.106 219.667 228.263 221.527C226.934 222.861 226.017 223 218.39 223C210.572 223 208.458 222.773 207.584 221.843C206.968 221.191 206.763 221.622 209.963 216.835C211.534 214.499 212.79 212.564 212.767 212.551C212.737 212.529 210.14 212.755 206.983 213.048L201.242 213.597L196.852 213.222C194.438 213.02 192.399 212.799 192.316 212.74C192.235 212.682 189.535 207.235 186.305 200.636L180.432 188.643L171.564 183.019L162.704 177.395L159.021 177.483C157.422 177.513 155.824 177.57 154.227 177.652L153.118 177.738L145.703 185.881L138.299 194.025L129.07 202.854L119.844 211.694L117.068 212.045L114.294 212.39L108.546 211.576C105.389 211.13 102.784 210.778 102.762 210.8C102.739 210.823 104.09 212.682 105.765 214.93C107.43 217.185 108.781 219.09 108.758 219.178C108.738 219.266 108.238 220.078 107.657 220.987L106.593 222.64L100.999 222.633C92.4865 222.619 92.323 222.546 93.5576 219.543C94.1514 218.107 94.3356 217.903 96.6019 216.175C100.524 213.181 101.926 211.987 102.277 211.32C102.388 211.123 102.115 210.83 100.678 209.636C99.7232 208.838 98.9452 208.084 98.9528 207.958C98.9903 207.248 118.427 180.785 121.774 176.897C124.168 174.072 126.5 171.195 128.77 168.27L132.381 163.578L133.68 160.282C134.214 158.946 134.725 157.6 135.213 156.246C135.501 155.347 135.127 155.318 139.032 156.483Z" fill="#323541"/>
<defs>
<filter id="filter0_d_2853_31" x="0.225098" y="0" width="321" height="300" filterUnits="userSpaceOnUse" color-interpolation-filters="sRGB">
<feFlood flood-opacity="0" result="BackgroundImageFix"/>
<feColorMatrix in="SourceAlpha" type="matrix" values="0 0 0 0 0 0 0 0 0 0 0 0 0 0 0 0 0 0 127 0" result="hardAlpha"/>
<feOffset/>
<feGaussianBlur stdDeviation="12.5"/>
<feComposite in2="hardAlpha" operator="out"/>
<feColorMatrix type="matrix" values="0 0 0 0 0 0 0 0 0 0 0 0 0 0 0 0 0 0 0.25 0"/>
<feBlend mode="normal" in2="BackgroundImageFix" result="effect1_dropShadow_2853_31"/>
<feBlend mode="normal" in="SourceGraphic" in2="effect1_dropShadow_2853_31" result="shape"/>
</filter>
</defs>
</svg>
