<svg width="322" height="301" viewBox="0 0 322 301" fill="none" xmlns="http://www.w3.org/2000/svg">
<g filter="url(#filter0_d_2321_70)">
<rect x="25.5854" y="25.7673" width="271" height="250" rx="15" fill="white"/>
</g>
<path d="M153.755 93.445H168.416V100.61H153.755V93.445Z" fill="#EA5455"/>
<path d="M139.094 100.61C143.142 100.61 146.424 97.4023 146.424 93.445C146.424 89.4877 143.142 86.2797 139.094 86.2797C135.045 86.2797 131.763 89.4877 131.763 93.445C131.763 97.4023 135.045 100.61 139.094 100.61Z" fill="#EA5455"/>
<path d="M183.077 100.61C187.125 100.61 190.407 97.4023 190.407 93.445C190.407 89.4877 187.125 86.2797 183.077 86.2797C179.028 86.2797 175.746 89.4877 175.746 93.445C175.746 97.4023 179.028 100.61 183.077 100.61Z" fill="#EA5455"/>
<path d="M205.068 136.437H168.416V122.106L190.407 122.035C196.227 122.035 201.81 119.78 205.932 115.764C210.054 111.748 212.38 106.299 212.399 100.61V86.2797C212.382 80.5839 210.059 75.1262 205.939 71.0986C201.818 67.071 196.235 64.8008 190.407 64.7838H131.763C125.936 64.8008 120.353 67.071 116.232 71.0986C112.112 75.1262 109.789 80.5839 109.772 86.2797V100.61C109.789 106.306 112.112 111.764 116.232 115.791C120.353 119.819 125.936 122.089 131.763 122.106H153.755V136.437H117.102C111.275 136.454 105.692 138.724 101.571 142.752C97.4508 146.779 95.1282 152.237 95.1108 157.933V215.255C95.1282 220.951 97.4508 226.408 101.571 230.436C105.692 234.464 111.275 236.734 117.102 236.751H205.068C210.896 236.734 216.479 234.464 220.6 230.436C224.72 226.408 227.043 220.951 227.06 215.255V157.933C227.043 152.237 224.72 146.779 220.6 142.752C216.479 138.724 210.896 136.454 205.068 136.437ZM131.763 107.776C129.821 107.77 127.96 107.013 126.586 105.671C125.213 104.328 124.439 102.509 124.433 100.61V86.2797C124.439 84.3811 125.213 82.5619 126.586 81.2193C127.96 79.8768 129.821 79.1201 131.763 79.1144H190.334C192.284 79.118 194.154 79.8719 195.539 81.2128C196.925 82.5537 197.715 84.374 197.738 86.2797V100.61C197.715 102.516 196.925 104.336 195.539 105.677C194.154 107.018 192.284 107.772 190.334 107.776H131.763ZM164.274 208.606L161.085 211.672L157.897 208.577C146.571 197.636 139.094 190.42 139.094 181.564C139.009 179.938 139.256 178.313 139.821 176.782C140.385 175.251 141.255 173.845 142.381 172.646C143.507 171.447 144.865 170.479 146.377 169.798C147.89 169.117 149.525 168.737 151.189 168.681C153.109 168.716 154.996 169.174 156.71 170.021C158.423 170.869 159.919 172.083 161.085 173.574C162.252 172.083 163.747 170.869 165.461 170.021C167.174 169.174 169.062 168.716 170.982 168.681C172.645 168.737 174.281 169.117 175.793 169.798C177.306 170.479 178.664 171.447 179.79 172.646C180.915 173.845 181.786 175.251 182.35 176.782C182.915 178.313 183.162 179.938 183.077 181.564C183.077 190.42 175.6 197.636 164.274 208.606Z" fill="#EA5455"/>
<defs>
<filter id="filter0_d_2321_70" x="0.585449" y="0.767334" width="321" height="300" filterUnits="userSpaceOnUse" color-interpolation-filters="sRGB">
<feFlood flood-opacity="0" result="BackgroundImageFix"/>
<feColorMatrix in="SourceAlpha" type="matrix" values="0 0 0 0 0 0 0 0 0 0 0 0 0 0 0 0 0 0 127 0" result="hardAlpha"/>
<feOffset/>
<feGaussianBlur stdDeviation="12.5"/>
<feComposite in2="hardAlpha" operator="out"/>
<feColorMatrix type="matrix" values="0 0 0 0 0 0 0 0 0 0 0 0 0 0 0 0 0 0 0.25 0"/>
<feBlend mode="normal" in2="BackgroundImageFix" result="effect1_dropShadow_2321_70"/>
<feBlend mode="normal" in="SourceGraphic" in2="effect1_dropShadow_2321_70" result="shape"/>
</filter>
</defs>
</svg>
