<svg width="322" height="301" viewBox="0 0 322 301" fill="none" xmlns="http://www.w3.org/2000/svg">
<g filter="url(#filter0_d_1435_434)">
<rect x="25.2251" y="25.0864" width="271" height="250" rx="15" fill="white"/>
</g>
<path d="M124.725 115.609C133.286 115.609 140.225 108.669 140.225 100.109C140.225 91.5486 133.286 84.609 124.725 84.609C116.165 84.609 109.225 91.5486 109.225 100.109C109.225 108.669 116.165 115.609 124.725 115.609Z" fill="#2E1D96"/>
<path d="M196.725 84.609C188.165 84.609 181.225 91.5486 181.225 100.109C181.225 108.669 188.165 115.609 196.725 115.609C205.286 115.609 212.225 108.669 212.225 100.109C212.225 91.5486 205.286 84.609 196.725 84.609Z" fill="#2E1D96"/>
<path d="M124.725 139.609C116.165 139.609 109.225 146.549 109.225 155.109C109.225 163.669 116.165 170.609 124.725 170.609C133.286 170.609 140.225 163.669 140.225 155.109C140.225 146.549 133.286 139.609 124.725 139.609Z" fill="#2E1D96"/>
<path d="M196.725 170.609C205.286 170.609 212.225 163.669 212.225 155.109C212.225 146.549 205.286 139.609 196.725 139.609C188.165 139.609 181.225 146.549 181.225 155.109C181.225 163.669 188.165 170.609 196.725 170.609Z" fill="#2E1D96"/>
<path d="M124.725 225.609C133.286 225.609 140.225 218.669 140.225 210.109C140.225 201.549 133.286 194.609 124.725 194.609C116.165 194.609 109.225 201.549 109.225 210.109C109.225 218.669 116.165 225.609 124.725 225.609Z" fill="#2E1D96"/>
<path d="M196.725 194.609C188.165 194.609 181.225 201.549 181.225 210.109C181.225 218.669 188.165 225.609 196.725 225.609C205.286 225.609 212.225 218.669 212.225 210.109C212.225 201.549 205.286 194.609 196.725 194.609Z" fill="#2E1D96"/>
<defs>
<filter id="filter0_d_1435_434" x="0.225098" y="0.0864258" width="321" height="300" filterUnits="userSpaceOnUse" color-interpolation-filters="sRGB">
<feFlood flood-opacity="0" result="BackgroundImageFix"/>
<feColorMatrix in="SourceAlpha" type="matrix" values="0 0 0 0 0 0 0 0 0 0 0 0 0 0 0 0 0 0 127 0" result="hardAlpha"/>
<feOffset/>
<feGaussianBlur stdDeviation="12.5"/>
<feComposite in2="hardAlpha" operator="out"/>
<feColorMatrix type="matrix" values="0 0 0 0 0 0 0 0 0 0 0 0 0 0 0 0 0 0 0.25 0"/>
<feBlend mode="normal" in2="BackgroundImageFix" result="effect1_dropShadow_1435_434"/>
<feBlend mode="normal" in="SourceGraphic" in2="effect1_dropShadow_1435_434" result="shape"/>
</filter>
</defs>
</svg>
