<svg width="322" height="301" viewBox="0 0 322 301" fill="none" xmlns="http://www.w3.org/2000/svg">
<g filter="url(#filter0_d_1401_94)">
<rect x="25.2271" y="25.3623" width="271" height="250" rx="15" fill="white"/>
</g>
<path d="M238.789 86.6386V102.569C238.789 116.609 203.824 128.059 160.728 128.059C117.631 128.059 82.666 116.609 82.666 102.569V86.6386C82.666 72.5994 117.631 61.149 160.728 61.149C203.824 61.149 238.789 72.5994 238.789 86.6386ZM238.789 122.483V158.328C238.789 172.367 203.824 183.817 160.728 183.817C117.631 183.817 82.666 172.367 82.666 158.328V122.483C99.4371 134.033 130.133 139.41 160.728 139.41C191.322 139.41 222.018 134.033 238.789 122.483ZM238.789 178.241V214.086C238.789 228.125 203.824 239.576 160.728 239.576C117.631 239.576 82.666 228.125 82.666 214.086V178.241C99.4371 189.791 130.133 195.168 160.728 195.168C191.322 195.168 222.018 189.791 238.789 178.241Z" fill="#FF9A00"/>
<defs>
<filter id="filter0_d_1401_94" x="0.227051" y="0.362305" width="321" height="300" filterUnits="userSpaceOnUse" color-interpolation-filters="sRGB">
<feFlood flood-opacity="0" result="BackgroundImageFix"/>
<feColorMatrix in="SourceAlpha" type="matrix" values="0 0 0 0 0 0 0 0 0 0 0 0 0 0 0 0 0 0 127 0" result="hardAlpha"/>
<feOffset/>
<feGaussianBlur stdDeviation="12.5"/>
<feComposite in2="hardAlpha" operator="out"/>
<feColorMatrix type="matrix" values="0 0 0 0 0 0 0 0 0 0 0 0 0 0 0 0 0 0 0.25 0"/>
<feBlend mode="normal" in2="BackgroundImageFix" result="effect1_dropShadow_1401_94"/>
<feBlend mode="normal" in="SourceGraphic" in2="effect1_dropShadow_1401_94" result="shape"/>
</filter>
</defs>
</svg>
