<svg width="322" height="301" viewBox="0 0 322 301" fill="none" xmlns="http://www.w3.org/2000/svg">
<g filter="url(#filter0_d_2321_66)">
<rect x="25.8682" y="25.7673" width="271" height="250" rx="15" fill="white"/>
</g>
<path d="M104.529 139.314L96.8149 122.669L80.1695 114.955L96.8149 107.242L104.529 90.5961L112.242 107.242L128.888 114.955L112.242 122.669L104.529 139.314ZM210.085 114.955L205.01 103.791L193.845 98.7158L205.01 93.641L210.085 82.4764L215.16 93.641L226.324 98.7158L215.16 103.791L210.085 114.955ZM226.324 147.434L221.249 136.269L210.085 131.195L221.249 126.12L226.324 114.955L231.399 126.12L242.564 131.195L231.399 136.269L226.324 147.434ZM161.367 179.913C154.6 179.913 148.849 177.545 144.112 172.808C139.376 168.072 137.007 162.32 137.007 155.554V106.836C137.007 100.069 139.376 94.3177 144.112 89.5812C148.849 84.8447 154.6 82.4764 161.367 82.4764C168.133 82.4764 173.884 84.8447 178.621 89.5812C183.357 94.3177 185.726 100.069 185.726 106.836V155.554C185.726 162.32 183.357 168.072 178.621 172.808C173.884 177.545 168.133 179.913 161.367 179.913ZM153.247 236.751V211.783C139.173 209.888 127.534 203.595 118.332 192.904C109.13 182.213 104.529 169.763 104.529 155.554H120.768C120.768 166.786 124.728 176.362 132.647 184.281C140.567 192.201 150.14 196.158 161.367 196.152C172.599 196.152 182.175 192.193 190.094 184.273C198.014 176.354 201.971 166.781 201.965 155.554H218.205C218.205 169.763 213.603 182.213 204.401 192.904C195.199 203.595 183.56 209.888 169.486 211.783V236.751H153.247Z" fill="#212A68"/>
<defs>
<filter id="filter0_d_2321_66" x="0.868164" y="0.767334" width="321" height="300" filterUnits="userSpaceOnUse" color-interpolation-filters="sRGB">
<feFlood flood-opacity="0" result="BackgroundImageFix"/>
<feColorMatrix in="SourceAlpha" type="matrix" values="0 0 0 0 0 0 0 0 0 0 0 0 0 0 0 0 0 0 127 0" result="hardAlpha"/>
<feOffset/>
<feGaussianBlur stdDeviation="12.5"/>
<feComposite in2="hardAlpha" operator="out"/>
<feColorMatrix type="matrix" values="0 0 0 0 0 0 0 0 0 0 0 0 0 0 0 0 0 0 0.25 0"/>
<feBlend mode="normal" in2="BackgroundImageFix" result="effect1_dropShadow_2321_66"/>
<feBlend mode="normal" in="SourceGraphic" in2="effect1_dropShadow_2321_66" result="shape"/>
</filter>
</defs>
</svg>
