<svg width="322" height="301" viewBox="0 0 322 301" fill="none" xmlns="http://www.w3.org/2000/svg">
<g filter="url(#filter0_d_1401_85)">
<rect x="25.8691" y="25.6812" width="271" height="250" rx="15" fill="white"/>
</g>
<path d="M141.369 154.983C139.159 154.983 137.039 155.861 135.477 157.424C133.914 158.986 133.036 161.106 133.036 163.316C133.036 165.526 133.914 167.646 135.477 169.209C137.039 170.771 139.159 171.649 141.369 171.649C142.463 171.649 143.547 171.434 144.558 171.015C145.569 170.596 146.488 169.982 147.262 169.209C148.036 168.435 148.649 167.516 149.068 166.505C149.487 165.494 149.702 164.41 149.702 163.316C149.702 162.222 149.487 161.138 149.068 160.127C148.649 159.116 148.036 158.197 147.262 157.424C146.488 156.65 145.569 156.036 144.558 155.617C143.547 155.198 142.463 154.983 141.369 154.983ZM181.369 154.983C179.159 154.983 177.039 155.861 175.477 157.424C173.914 158.986 173.036 161.106 173.036 163.316C173.036 165.526 173.914 167.646 175.477 169.209C177.039 170.771 179.159 171.649 181.369 171.649C183.579 171.649 185.699 170.771 187.262 169.209C188.824 167.646 189.702 165.526 189.702 163.316C189.702 161.106 188.824 158.986 187.262 157.424C185.699 155.861 183.579 154.983 181.369 154.983ZM161.369 89.9827C152.614 89.9827 143.945 91.7071 135.857 95.0574C127.769 98.4078 120.419 103.318 114.229 109.509C101.726 122.011 94.7025 138.968 94.7025 156.649C94.7025 174.331 101.726 191.287 114.229 203.79C120.419 209.98 127.769 214.891 135.857 218.241C143.945 221.592 152.614 223.316 161.369 223.316C179.05 223.316 196.007 216.292 208.51 203.79C221.012 191.287 228.036 174.331 228.036 156.649C228.036 147.895 226.311 139.226 222.961 131.137C219.611 123.049 214.7 115.7 208.51 109.509C202.319 103.318 194.97 98.4078 186.881 95.0574C178.793 91.7071 170.124 89.9827 161.369 89.9827V89.9827ZM161.369 209.983C147.224 209.983 133.659 204.364 123.657 194.362C113.655 184.36 108.036 170.794 108.036 156.649C107.836 154.744 107.836 152.822 108.036 150.916C123.915 143.968 136.484 131.136 143.102 115.116C149.248 123.83 157.398 130.94 166.865 135.848C176.332 140.755 186.839 143.316 197.502 143.316C202.569 143.316 207.569 142.716 212.502 141.583C220.836 169.983 204.702 199.516 176.436 207.783C171.369 209.249 166.436 209.983 161.369 209.983V209.983ZM81.3691 89.9827C81.3691 86.4465 82.7739 83.0551 85.2744 80.5547C87.7749 78.0542 91.1663 76.6494 94.7025 76.6494H121.369V89.9827H94.7025V116.649H81.3691V89.9827ZM241.369 223.316C241.369 226.852 239.964 230.244 237.464 232.744C234.963 235.245 231.572 236.649 228.036 236.649H201.369V223.316H228.036V196.649H241.369V223.316ZM94.7025 236.649C91.1663 236.649 87.7749 235.245 85.2744 232.744C82.7739 230.244 81.3691 226.852 81.3691 223.316V196.649H94.7025V223.316H121.369V236.649H94.7025ZM228.036 76.6494C231.572 76.6494 234.963 78.0542 237.464 80.5547C239.964 83.0551 241.369 86.4465 241.369 89.9827V116.649H228.036V89.9827H201.369V76.6494H228.036Z" fill="#6B3CCF"/>
<defs>
<filter id="filter0_d_1401_85" x="0.869141" y="0.681152" width="321" height="300" filterUnits="userSpaceOnUse" color-interpolation-filters="sRGB">
<feFlood flood-opacity="0" result="BackgroundImageFix"/>
<feColorMatrix in="SourceAlpha" type="matrix" values="0 0 0 0 0 0 0 0 0 0 0 0 0 0 0 0 0 0 127 0" result="hardAlpha"/>
<feOffset/>
<feGaussianBlur stdDeviation="12.5"/>
<feComposite in2="hardAlpha" operator="out"/>
<feColorMatrix type="matrix" values="0 0 0 0 0 0 0 0 0 0 0 0 0 0 0 0 0 0 0.25 0"/>
<feBlend mode="normal" in2="BackgroundImageFix" result="effect1_dropShadow_1401_85"/>
<feBlend mode="normal" in="SourceGraphic" in2="effect1_dropShadow_1401_85" result="shape"/>
</filter>
</defs>
</svg>
