<svg width="322" height="301" viewBox="0 0 322 301" fill="none" xmlns="http://www.w3.org/2000/svg">
<g filter="url(#filter0_d_2512_70)">
<rect x="25.8666" y="25.4483" width="271" height="250" rx="15" fill="white"/>
</g>
<path d="M195.88 74.0593C214.977 74.0593 230.255 89.3371 230.255 108.434C230.255 115.157 228.345 121.421 224.984 126.691L248.665 150.448L237.894 161.066L214.137 137.539C208.866 140.9 202.602 142.809 195.88 142.809C176.783 142.809 161.505 127.532 161.505 108.434C161.505 89.3371 176.783 74.0593 195.88 74.0593ZM195.88 89.3371C190.815 89.3371 185.957 91.3492 182.376 94.9306C178.795 98.512 176.783 103.369 176.783 108.434C176.783 113.499 178.795 118.357 182.376 121.938C185.957 125.52 190.815 127.532 195.88 127.532C200.945 127.532 205.802 125.52 209.384 121.938C212.965 118.357 214.977 113.499 214.977 108.434C214.977 103.369 212.965 98.512 209.384 94.9306C205.802 91.3492 200.945 89.3371 195.88 89.3371ZM108.033 89.3371H150.046C147.678 95.3719 146.227 101.865 146.227 108.434C146.227 121.603 151.458 134.233 160.77 143.544C170.082 152.856 182.711 158.087 195.88 158.087C201.074 158.087 206.04 157.247 210.852 155.719L230.255 175.122V181.004C230.255 185.056 228.645 188.942 225.78 191.807C222.915 194.672 219.029 196.282 214.977 196.282H183.658L155.394 224.622C153.866 225.997 152.033 226.837 150.046 226.837H146.227C144.201 226.837 142.258 226.033 140.825 224.6C139.393 223.167 138.588 221.224 138.588 219.198V196.282H108.033C103.981 196.282 100.095 194.672 97.2295 191.807C94.3643 188.942 92.7547 185.056 92.7547 181.004V104.615C92.7547 100.563 94.3643 96.677 97.2295 93.8119C100.095 90.9468 103.981 89.3371 108.033 89.3371Z" fill="#A30A7C"/>
<defs>
<filter id="filter0_d_2512_70" x="0.866577" y="0.448334" width="321" height="300" filterUnits="userSpaceOnUse" color-interpolation-filters="sRGB">
<feFlood flood-opacity="0" result="BackgroundImageFix"/>
<feColorMatrix in="SourceAlpha" type="matrix" values="0 0 0 0 0 0 0 0 0 0 0 0 0 0 0 0 0 0 127 0" result="hardAlpha"/>
<feOffset/>
<feGaussianBlur stdDeviation="12.5"/>
<feComposite in2="hardAlpha" operator="out"/>
<feColorMatrix type="matrix" values="0 0 0 0 0 0 0 0 0 0 0 0 0 0 0 0 0 0 0.25 0"/>
<feBlend mode="normal" in2="BackgroundImageFix" result="effect1_dropShadow_2512_70"/>
<feBlend mode="normal" in="SourceGraphic" in2="effect1_dropShadow_2512_70" result="shape"/>
</filter>
</defs>
</svg>
