<svg width="322" height="301" viewBox="0 0 322 301" fill="none" xmlns="http://www.w3.org/2000/svg">
<g filter="url(#filter0_d_1401_89)">
<rect x="25.5854" y="25.6812" width="271" height="250" rx="15" fill="white"/>
</g>
<path d="M114.275 73.2866C104.992 73.2866 96.09 76.9741 89.5262 83.5379C82.9624 90.1017 79.2749 99.004 79.2749 108.287V140.463C82.904 138.032 86.8234 136.064 90.9416 134.607V108.287C90.9416 102.098 93.3999 96.1633 97.7758 91.7875C102.152 87.4116 108.087 84.9533 114.275 84.9533H207.608C213.797 84.9533 219.732 87.4116 224.107 91.7875C228.483 96.1633 230.942 102.098 230.942 108.287V201.62C230.942 205.972 229.752 210.043 227.675 213.52L173.203 159.993C170.622 157.456 167.317 155.781 163.744 155.2C160.171 154.619 156.506 155.161 153.253 156.75C155.272 160.052 156.94 163.598 158.2 167.332C159.294 166.748 160.546 166.529 161.773 166.705C163 166.882 164.139 167.444 165.025 168.312L219.415 221.745C215.837 223.85 211.76 224.958 207.608 224.953H174.02L179.153 230.087C181.055 231.988 182.432 234.228 183.283 236.62H207.608C216.891 236.62 225.793 232.932 232.357 226.369C238.921 219.805 242.608 210.903 242.608 201.62V108.287C242.608 99.004 238.921 90.1017 232.357 83.5379C225.793 76.9741 216.891 73.2866 207.608 73.2866H114.275Z" fill="#16D993"/>
<path d="M190.108 143.287C194.75 143.287 199.201 141.443 202.483 138.161C205.765 134.879 207.608 130.428 207.608 125.787C207.608 121.145 205.765 116.694 202.483 113.412C199.201 110.13 194.75 108.287 190.108 108.287C185.467 108.287 181.016 110.13 177.734 113.412C174.452 116.694 172.608 121.145 172.608 125.787C172.608 130.428 174.452 134.879 177.734 138.161C181.016 141.443 185.467 143.287 190.108 143.287ZM190.108 131.62C188.561 131.62 187.077 131.005 185.983 129.911C184.89 128.817 184.275 127.334 184.275 125.787C184.275 124.24 184.89 122.756 185.983 121.662C187.077 120.568 188.561 119.953 190.108 119.953C191.655 119.953 193.139 120.568 194.233 121.662C195.327 122.756 195.942 124.24 195.942 125.787C195.942 127.334 195.327 128.817 194.233 129.911C193.139 131.005 191.655 131.62 190.108 131.62Z" fill="#16D993"/>
<path d="M141.143 208.573C147.326 200.306 150.147 190.003 149.039 179.739C147.932 169.475 142.977 160.012 135.174 153.253C127.37 146.495 117.296 142.943 106.979 143.313C96.6619 143.683 86.868 147.947 79.5681 155.246C72.2682 162.546 68.0043 172.34 67.6345 182.657C67.2647 192.974 70.8164 203.048 77.5748 210.852C84.3333 218.656 93.7968 223.61 104.061 224.718C114.325 225.825 124.627 223.004 132.895 216.822L162.645 246.572C163.739 247.667 165.223 248.283 166.771 248.284C168.319 248.285 169.804 247.671 170.899 246.577C171.994 245.484 172.61 244 172.612 242.452C172.613 240.904 171.999 239.419 170.905 238.323L141.143 208.573ZM108.442 213.287C100.706 213.287 93.2875 210.214 87.8177 204.744C82.3478 199.274 79.2749 191.855 79.2749 184.12C79.2749 176.384 82.3478 168.966 87.8177 163.496C93.2875 158.026 100.706 154.953 108.442 154.953C116.177 154.953 123.596 158.026 129.066 163.496C134.535 168.966 137.608 176.384 137.608 184.12C137.608 191.855 134.535 199.274 129.066 204.744C123.596 210.214 116.177 213.287 108.442 213.287Z" fill="#16D993"/>
<defs>
<filter id="filter0_d_1401_89" x="0.585449" y="0.681152" width="321" height="300" filterUnits="userSpaceOnUse" color-interpolation-filters="sRGB">
<feFlood flood-opacity="0" result="BackgroundImageFix"/>
<feColorMatrix in="SourceAlpha" type="matrix" values="0 0 0 0 0 0 0 0 0 0 0 0 0 0 0 0 0 0 127 0" result="hardAlpha"/>
<feOffset/>
<feGaussianBlur stdDeviation="12.5"/>
<feComposite in2="hardAlpha" operator="out"/>
<feColorMatrix type="matrix" values="0 0 0 0 0 0 0 0 0 0 0 0 0 0 0 0 0 0 0.25 0"/>
<feBlend mode="normal" in2="BackgroundImageFix" result="effect1_dropShadow_1401_89"/>
<feBlend mode="normal" in="SourceGraphic" in2="effect1_dropShadow_1401_89" result="shape"/>
</filter>
</defs>
</svg>
