<svg width="322" height="300" viewBox="0 0 322 300" fill="none" xmlns="http://www.w3.org/2000/svg">
<g filter="url(#filter0_d_2853_28)">
<rect x="25.8682" y="25" width="271" height="250" rx="15" fill="white"/>
</g>
<path d="M206.863 211.338C202.758 213.343 198.094 213.894 193.636 212.902C190.601 212.206 187.646 211.204 184.814 209.91L178.562 207.352C173.116 205.646 167.302 205.499 161.777 206.926H161.208C155.702 205.357 149.849 205.506 144.43 207.352C142.298 208.063 140.303 209.058 138.171 209.91C135.33 211.196 132.339 212.333 129.356 213.044C124.897 214.027 120.236 213.476 116.129 211.48L115.561 211.196C115.419 211.196 115.419 211.196 115.419 211.338C117.7 213.686 120.486 215.483 123.566 216.593C126.646 217.702 129.938 218.095 133.192 217.741C137.172 217.2 140.971 215.738 144.287 213.47L150.261 209.484C152.491 208.041 155.197 207.531 157.798 208.063C159.219 208.205 158.082 208.915 157.94 209.058C154.364 210.788 150.978 212.888 147.84 215.325C145.708 216.882 141.866 220.584 141.866 220.584L144.707 223L147.84 219.589C151.682 215.596 156.091 212.192 160.924 209.484C161.109 209.346 161.333 209.271 161.564 209.271C161.794 209.271 162.018 209.346 162.203 209.484C167.036 212.192 171.445 215.596 175.288 219.589L178.42 223L181.262 220.584L175.288 215.318C172.15 212.885 168.767 210.786 165.193 209.058C164.909 208.915 163.914 208.205 165.335 208.063C167.893 207.494 170.592 208.063 172.872 209.484L178.846 213.47C182.161 215.735 185.958 217.195 189.935 217.734C192.499 218.025 195.199 217.883 197.756 217.166C201.496 216.052 204.911 214.053 207.715 211.338C207.715 211.338 207.573 211.196 207.431 211.196L206.863 211.338ZM220.793 198.959C218.995 200.331 216.977 201.389 214.826 202.086C211.835 202.946 208.561 203.508 205.435 203.508C201.315 203.656 197.33 203.941 193.21 204.509C192.925 204.509 192.783 204.509 192.925 204.367C196.477 202.946 199.319 200.103 200.889 196.679L204.867 188.577V188.286C204.583 188.428 200.604 191.846 198.751 193.552L192.066 200.097C189.063 202.666 185.514 204.515 181.688 205.504H181.546L181.404 205.646L189.083 207.494C192.373 208.465 195.756 209.084 199.177 209.342C203.411 209.76 207.68 209.029 211.534 207.227C215.389 205.426 218.688 202.619 221.084 199.102C221.084 198.959 220.935 198.959 220.793 198.959ZM233.309 179.9C231.287 182.348 228.889 184.459 226.205 186.154C223.925 187.718 221.51 188.997 218.946 190.14C215.718 191.443 212.699 193.215 209.988 195.4L209.42 195.832C209.278 195.832 209.278 195.832 209.278 195.684C209.278 195.542 213.54 191.278 214.826 182.31C214.968 179.041 215.536 175.914 216.246 172.78V172.496C213.294 176.158 210.985 180.296 209.42 184.733L206.863 191.988C205.861 195.257 204.021 198.249 201.599 200.665L201.315 200.949V201.091C201.599 201.091 201.883 200.949 202.167 200.949L210.415 199.244C214.947 198.513 219.239 196.707 222.931 193.978C226.722 191.241 229.795 187.628 231.889 183.447C232.457 182.316 232.883 181.173 233.309 180.036C233.594 179.751 233.452 179.751 233.309 179.894M238.715 158.554C237.399 162.45 235.154 165.967 232.173 168.8C228.783 172.117 225.646 175.682 222.789 179.467C222.789 179.609 222.505 179.467 222.647 179.325C223.786 175.402 224.077 171.281 223.499 167.237C222.931 163.819 221.51 160.124 221.084 155.995L220.935 155.853C220.935 155.995 220.793 156.137 220.793 156.279C219.94 158.963 219.368 161.728 219.088 164.53C218.946 167.948 219.514 172.354 219.23 175.772C218.946 179.751 218.662 183.88 216.815 187.433V187.718L225.346 182.459C228.859 180.221 231.902 177.32 234.304 173.917C237.396 169.554 239.039 164.329 238.999 158.98V158.411C238.857 158.411 238.715 158.554 238.715 158.554ZM229.609 160.834C229.757 160.834 229.757 160.834 229.609 160.834C229.609 159.691 229.609 158.554 229.473 157.417C229.189 153.437 226.767 150.161 224.636 146.75C223.188 144.572 221.903 142.289 220.793 139.921C220.793 139.921 220.651 139.779 220.509 139.779C220.509 140.063 220.509 141.342 220.651 142.053C221.362 147.738 222.782 153.437 224.92 158.838C226.199 162.256 226.625 165.816 226.341 169.369C226.341 169.653 226.341 169.653 226.483 169.795C227.762 167.948 230.326 165.383 231.889 163.393C233.452 161.403 241.983 151.725 237.863 138.357C237.721 137.782 237.436 137.214 237.152 136.645L237.01 136.787C237.01 146.465 232.315 150.587 230.468 157.139C230.11 158.352 229.826 159.587 229.615 160.834M229.757 140.916L228.905 138.641L228.337 137.356C226.906 134.765 224.913 132.529 222.505 130.811C220.543 129.162 218.819 127.248 217.383 125.125H216.957C217.099 125.552 218.378 129.816 219.23 131.812C220.651 134.513 222.363 137.214 224.352 139.494L224.778 140.063C227.193 143.332 229.041 146.892 230.326 150.73C230.326 150.872 230.468 150.872 230.468 150.872L232.883 143.474C233.736 140.916 234.446 138.209 235.014 135.508C235.873 129.112 233.878 120.997 230.184 116.449C230.184 116.449 230.042 116.584 230.042 116.733L230.184 117.301L230.468 118.154C231.178 121.566 231.32 125.261 230.61 128.685C230.042 131.386 229.899 134.229 229.899 137.071C229.899 137.498 230.184 141.058 230.184 141.2C230.184 141.342 230.042 141.2 229.899 141.2M218.378 105.207C219.514 106.344 220.509 107.623 221.084 109.187C222.078 111.609 222.363 115.163 223.073 117.87L224.352 122.561C224.352 122.703 224.21 122.845 224.068 122.703C221.911 120.126 219.308 117.959 216.382 116.306C214.399 115.163 212.83 113.599 211.409 111.894L210.699 110.899C210.699 110.899 210.557 110.757 210.415 110.899V111.325C211.125 114.452 212.546 117.444 214.826 119.853C216.673 121.566 218.662 123.129 220.509 124.699C222.959 126.794 225.241 129.077 227.336 131.528C227.336 131.528 227.478 131.67 227.478 131.528V129.247L227.62 122.418V120.144C227.62 117.87 227.193 115.447 226.341 113.315C224.92 109.762 222.22 106.919 218.946 105.207C218.804 105.065 218.52 105.065 218.236 104.923C218.236 104.923 218.236 105.065 218.378 105.207ZM203.737 98.5199C205.726 100.368 207.437 102.506 209 104.78C210.421 107.055 211.984 109.045 213.973 110.899C215.258 112.178 219.095 115.163 220.089 116.016C219.947 114.879 218.1 106.777 213.121 102.791C210.242 100.481 206.894 98.8275 203.31 97.9449V98.2357L203.737 98.5199ZM124.092 209.342C127.422 209.084 130.713 208.465 133.909 207.494L141.581 205.646H141.723C141.723 205.646 141.723 205.504 141.581 205.504H141.439C137.58 204.487 133.987 202.642 130.912 200.097L124.234 193.7L118.118 188.428V188.719C118.686 189.572 120.824 194.262 122.103 196.827C123.666 200.381 126.508 203.088 130.066 204.509C130.208 204.651 130.066 204.651 129.782 204.651C125.725 204.102 121.642 203.77 117.55 203.656C114.424 203.656 111.156 203.088 108.166 202.235C106.012 201.536 103.992 200.476 102.192 199.102H101.908C104.745 203.1 108.702 206.169 113.281 207.921C116.773 209.029 120.433 209.51 124.092 209.342ZM120.824 200.949C121.108 200.949 121.25 201.091 121.677 201.091V200.949L121.393 200.665C119.004 198.209 117.204 195.242 116.129 191.988L113.571 184.733C112.006 180.296 109.698 176.158 106.745 172.496V172.78C107.597 175.914 108.024 179.047 108.308 182.316C109.587 191.135 113.856 195.4 113.856 195.542C113.856 195.684 113.856 195.832 113.714 195.684L113.139 195.257C110.428 193.073 107.41 191.3 104.181 189.998C101.646 188.896 99.2176 187.562 96.9283 186.012C94.2438 184.315 91.8458 182.201 89.8241 179.751H89.6691C90.0953 180.889 90.5216 182.032 91.0899 183.169C93.2212 187.291 96.3535 190.987 100.196 193.7C103.89 196.543 108.159 198.391 112.706 198.959C115.412 199.67 118.118 200.381 120.824 200.949ZM97.9164 182.459L106.454 187.718C106.454 187.718 106.596 187.575 106.596 187.433C104.743 183.738 104.465 179.751 104.175 175.772C103.89 172.218 104.459 167.948 104.317 164.53C104.037 161.681 103.465 158.869 102.612 156.137C102.612 155.995 102.47 155.853 102.47 155.711L102.327 155.853C102.043 159.981 100.48 163.677 99.912 167.095C99.3447 171.139 99.6352 175.258 100.765 179.183C100.907 179.325 100.622 179.467 100.622 179.325C97.7989 175.513 94.6575 171.946 91.232 168.665C88.2618 165.88 86.0217 162.408 84.7091 158.554C84.7091 158.554 84.5605 158.411 84.4184 158.411C84.2764 158.411 84.4184 158.696 84.4184 158.98C84.4184 164.246 85.9878 169.511 89.1137 173.917C91.387 177.193 94.3772 180.184 97.9293 182.459M96.3664 169.938C96.5085 169.795 96.5085 169.795 96.5085 169.511C96.2243 165.958 96.6506 162.256 98.0714 158.98C100.067 153.579 101.488 148.029 102.34 142.195C102.34 141.484 102.482 140.205 102.482 139.921C102.34 139.921 102.34 139.921 102.34 140.063C101.23 142.431 99.9457 144.714 98.4977 146.892C96.2243 150.019 93.951 153.437 93.6668 157.423C93.5248 158.556 93.5248 159.702 93.6668 160.834C93.6668 160.834 93.6668 160.976 93.5247 160.976V160.834L92.5301 157.417C90.5216 150.872 85.9814 146.75 85.9814 137.071L85.8393 136.929C85.5551 137.498 85.413 138.066 85.1289 138.641C81.002 152.015 89.3914 161.687 91.0964 163.677C92.8014 165.667 95.0876 168.09 96.3664 169.938ZM90.3924 143.332L92.8143 150.73C92.8143 150.73 92.9564 150.73 92.9564 150.587C94.2351 146.75 96.2243 143.19 98.4977 139.921L98.9239 139.352C100.92 136.929 102.625 134.371 104.045 131.664C104.898 129.674 106.177 125.41 106.325 124.983H105.892C104.472 127.115 102.767 128.963 100.777 130.669C98.2895 132.398 96.2431 134.689 94.8035 137.356C94.6614 137.782 94.3772 138.209 94.2351 138.641L93.3826 141.058C93.3826 141.058 93.2406 141.342 93.2406 141.058C93.2406 140.774 93.5247 137.504 93.5247 136.929C93.5247 134.087 93.2406 131.244 92.6722 128.537C92.0067 125.053 92.055 121.47 92.8143 118.006C92.8143 117.728 92.9564 117.444 93.0985 117.159C93.0985 117.017 93.2406 116.733 93.2406 116.584C93.2406 116.436 93.2406 116.442 93.0985 116.3C89.3914 120.855 87.2601 129.105 88.1126 135.366C88.823 138.066 89.5399 140.774 90.3924 143.332ZM95.5074 122.561L95.6495 129.39V131.522H95.7916C97.7808 128.963 100.054 126.689 102.476 124.557L108.159 119.711C110.368 117.316 111.892 114.37 112.57 111.183V110.757H112.428L111.718 111.752C110.392 113.504 108.754 114.998 106.887 116.158C103.471 118.29 101.197 119.86 99.2016 122.561C99.066 122.703 98.9175 122.703 99.066 122.418L100.345 117.728C101.055 115.021 101.339 111.461 102.334 109.045C102.902 107.623 103.897 106.202 105.034 105.065V104.78C104.749 104.78 104.607 104.923 104.323 105.065C100.771 106.913 98.207 109.904 96.7862 113.315C95.9337 115.447 95.3654 117.728 95.5074 120.144V122.561ZM103.044 115.88L109.302 110.763C111.15 108.909 112.855 106.919 114.275 104.645C115.751 102.338 117.52 100.234 119.539 98.3843L119.965 97.9578V97.6607C116.361 98.481 113 100.139 110.155 102.5C104.891 106.622 103.186 114.73 103.051 115.874M160.214 159.975C160.64 159.4 159.645 158.974 159.361 159.975C159.077 160.97 159.788 160.686 160.214 159.975ZM171.025 134.933C170.592 134.791 169.029 136.639 169.314 136.923C170.06 136.434 170.654 135.745 171.025 134.933ZM171.309 134.649C171.593 134.791 172.588 134.222 172.446 134.08C172.304 133.938 171.025 133.369 171.025 133.654C171.025 134.222 171.167 134.507 171.309 134.649ZM190.503 152.287C191.072 152.145 190.93 151.292 190.503 151.292C190.077 151.292 189.509 152.002 189.651 152.002C189.793 152.002 190.219 152.429 190.503 152.287ZM183.535 133.369C183.109 133.369 182.967 133.796 183.393 134.08C183.819 134.222 184.103 134.08 184.387 133.938C184.553 133.864 184.694 133.744 184.794 133.594C184.895 133.443 184.951 133.266 184.956 133.085C184.956 132.659 184.387 132.09 184.672 131.806C184.956 131.522 185.382 131.948 185.673 131.806C185.963 131.664 186.099 131.38 186.099 131.095C186.099 130.805 185.957 129.952 185.388 129.952C184.82 129.952 184.245 131.095 184.245 131.095C184.175 131.252 184.139 131.421 184.139 131.593C184.139 131.764 184.175 131.934 184.245 132.09C184.387 132.659 184.245 133.369 183.535 133.369ZM192.925 133.512C192.925 133.796 193.636 135.644 193.778 136.07C193.92 136.496 194.062 138.06 194.346 137.918C194.63 137.776 194.63 136.923 194.488 136.496C194.335 135.483 194.097 134.485 193.778 133.512C193.636 132.943 192.641 130.805 192.357 130.947C192.066 131.095 192.783 132.368 192.925 132.943C193.067 133.512 192.783 133.227 192.925 133.512ZM187.946 109.322C188.372 109.465 188.372 108.612 187.662 108.043C186.951 107.475 185.815 107.759 186.099 108.043C186.667 108.47 187.236 109.038 187.946 109.322ZM166.614 103.21C165.619 102.642 166.472 101.789 165.761 101.214C164.909 100.93 164.056 101.072 163.482 101.64C162.771 102.5 164.341 102.209 164.767 102.5C165.193 102.784 166.614 103.779 166.756 103.637C166.898 103.495 166.756 103.21 166.614 103.21ZM172.297 100.368C171.025 99.7927 166.33 99.7927 166.472 101.078C166.614 102.364 169.172 101.078 169.882 101.078C170.592 101.078 173.434 100.93 172.304 100.368M159.361 155.278C159.077 155.136 158.651 155.42 158.509 155.136C158.367 154.852 158.082 154.994 158.082 155.136C158.082 155.278 157.94 155.562 158.225 155.847C158.382 155.984 158.584 156.059 158.793 156.059C159.002 156.059 159.204 155.984 159.361 155.847C159.43 155.768 159.468 155.667 159.468 155.562C159.468 155.458 159.43 155.357 159.361 155.278ZM156.662 145.748C157.088 145.748 157.088 145.464 157.23 145.464C157.372 145.464 157.23 145.748 157.656 145.748C158.083 145.748 158.509 144.747 157.23 144.747C156.229 144.747 156.371 145.748 156.662 145.748ZM158.367 146.885C157.656 146.743 157.798 147.17 157.23 147.17C156.371 147.312 157.088 146.601 156.804 146.317C156.662 146.175 156.229 146.885 156.093 147.312C156.093 147.596 156.093 148.165 156.371 148.307L159.077 148.591C159.645 148.591 159.077 147.028 158.367 146.885ZM149.551 156.131C149.835 156.131 149.977 155.278 149.835 154.852C149.693 154.425 148.834 154.709 148.834 154.994C148.834 155.278 149.415 156.131 149.551 156.131ZM138.171 156.131C138.171 155.847 138.171 154.709 137.887 154.425C137.603 154.141 137.603 154.567 137.461 154.567C137.319 154.567 137.319 153.999 137.177 153.999C137.035 153.999 137.177 154.852 137.461 155.42C137.745 155.989 138.171 156.842 138.171 156.131ZM137.887 153.572C138.171 152.72 138.313 151.86 138.313 151.007C138.313 150.297 137.887 149.728 137.745 149.728C137.603 149.728 137.745 150.155 137.887 150.865C137.887 151.576 137.603 152.287 137.461 152.997C137.461 153.146 137.745 153.857 137.887 153.572ZM123.382 185.437C144.565 206.635 178.704 206.635 199.894 185.437C221.084 164.239 221.077 130.094 199.894 108.896C178.711 87.6981 144.572 87.7046 123.382 108.896C102.192 130.087 102.192 164.381 123.382 185.437ZM109.871 148.313H118.118C118.26 152.577 118.971 156.712 120.249 160.692C119.799 160.563 119.368 160.372 118.971 160.124C118.402 159.839 117.976 160.266 117.834 160.266C117.266 160.266 116.555 159.839 116.555 160.266C116.555 160.692 117.124 160.408 117.124 160.692C117.124 160.976 115.703 160.976 115.561 160.408C115.419 159.839 115.134 159.264 114.992 159.981C114.85 160.699 114.282 160.55 113.998 160.692C113.856 160.834 113.714 161.119 113.714 161.403C113.714 161.687 113.003 161.545 113.003 161.971C113.003 162.398 113.429 162.54 113.571 162.966C113.714 163.393 114.14 163.677 113.856 163.819C113.571 163.961 113.714 163.677 113.429 163.819C113.145 163.961 114.708 168.232 114.992 168.083C115.276 167.935 114.566 166.662 114.566 166.093C114.566 165.525 114.708 165.383 115.134 165.098C115.561 164.814 116.697 166.804 117.124 166.52C117.55 166.235 116.981 165.951 117.408 165.809C117.834 165.667 119.113 167.663 119.539 167.095C119.823 166.662 120.107 167.379 120.107 167.521C120.54 168.232 121.25 168.232 121.677 169.085C122.103 169.938 123.098 171.501 123.808 171.501C124.518 171.501 124.092 170.79 124.376 170.79C124.66 170.79 124.945 171.785 125.371 172.354C125.672 172.792 126.13 173.097 126.65 173.207C127.644 174.492 128.781 175.772 129.924 177.051L124.092 182.885C115.059 173.636 109.962 161.244 109.871 148.313ZM156.946 136.503L156.371 136.787C155.589 137.143 154.869 137.623 154.24 138.209L148.408 132.381C151.824 129.39 156.093 127.542 160.498 127.4V135.65C159.476 135.752 158.472 135.991 157.514 136.361C157.798 135.792 158.367 135.224 158.367 135.224C158.367 135.224 157.372 135.792 156.946 136.503ZM152.535 150.019V150.303C152.535 150.019 152.393 149.877 152.251 149.592C152.109 149.45 151.966 149.308 151.824 149.308H151.114L150.83 149.45H148.834C148.55 149.45 148.408 149.45 148.408 149.308C148.266 148.74 149.118 149.166 149.693 147.46C149.835 147.318 149.835 147.034 149.977 146.892L150.119 146.608L150.261 146.465L150.404 146.323C150.688 146.039 150.972 146.039 151.256 146.039H151.54L151.824 146.323L152.251 147.176C152.393 147.318 152.535 147.318 152.535 147.46C152.749 147.567 152.941 147.711 153.103 147.887L153.245 148.029V148.171C153.387 148.313 153.387 148.313 153.529 148.313H154.098C154.382 148.171 154.382 148.313 154.524 148.313V148.455C154.524 148.598 154.524 148.598 154.382 148.74C154.382 148.882 154.24 148.882 154.24 149.024C154.098 149.166 153.956 149.308 153.814 149.308C153.529 149.308 153.245 149.166 153.103 149.166C152.961 149.166 152.819 149.166 152.819 149.308V150.019M137.177 163.677C136.772 162.887 136.577 162.006 136.608 161.119C136.592 160.262 136.347 159.425 135.898 158.696C135.756 158.127 135.614 157.559 135.614 156.99C135.614 155.995 134.755 156.279 134.755 155.995C134.755 155.711 135.465 155.995 135.465 155.711C135.465 155.427 134.613 154.289 133.902 154.005C133.192 153.721 133.476 153.295 133.476 152.868C133.476 152.442 133.476 152.009 133.192 151.725C133.05 151.156 133.192 150.161 133.902 150.161C134.187 150.161 134.613 150.445 135.046 150.161C135.472 149.877 135.188 149.024 135.188 148.313H139.166C139.166 148.882 139.308 149.592 139.308 150.161C139.024 150.303 138.882 150.587 139.024 150.73C139.166 150.872 139.308 151.014 139.45 150.872C140.161 155 142.008 158.838 144.856 161.971L139.024 167.805C138.598 167.379 138.171 166.804 137.745 166.235V165.809C137.745 164.814 137.035 164.246 136.751 163.393M131.629 153.721C131.244 151.941 131.006 150.132 130.919 148.313H134.329C134.044 148.74 133.334 149.166 133.192 149.592C133.05 150.019 132.197 151.44 132.766 152.009C134.044 153.43 132.482 154.005 131.629 153.721ZM132.339 174.777L131.629 175.487L130.634 174.492C131.203 174.208 131.771 174.35 132.339 174.777ZM141.155 138.209C141.013 138.209 141.013 138.357 140.871 138.357C140.445 138.784 139.308 138.641 139.45 139.068C139.592 139.494 142.582 138.066 142.582 138.357C142.582 138.648 141.297 139.068 140.451 139.494C139.605 139.921 139.308 140.631 137.887 140.631C137.177 140.631 136.893 141.2 136.608 141.626C136.225 142.163 135.892 142.734 135.614 143.332C135.631 144.22 135.436 145.099 135.046 145.897H130.912C131.197 138.594 134.073 131.631 139.024 126.256L144.856 132.097C143.437 134.016 142.199 136.062 141.155 138.209ZM146.561 133.944L151.682 139.068H151.114C150.546 139.068 150.546 138.641 150.119 138.641C149.26 138.784 149.118 139.068 148.976 138.926C148.347 138.34 147.627 137.86 146.845 137.504C145.914 137.19 144.9 137.239 144.003 137.64C143.861 137.64 143.861 137.782 143.719 137.782C144.714 136.503 145.708 135.224 146.561 133.944ZM139.457 144.327C139.457 144.895 139.308 145.471 139.308 146.039H136.324C136.182 145.613 136.324 145.18 136.608 144.753C136.893 144.185 137.603 143.901 138.313 144.043C138.703 144.086 139.092 144.182 139.457 144.327ZM142.008 151.014L142.298 151.44C142.582 151.725 142.867 152.009 143.151 151.867C143.435 151.725 144.145 151.867 144.287 151.867C144.714 152.009 144.998 152.293 145.282 152.577C145.566 153.01 146.135 152.726 146.561 153.01C146.987 153.295 147.413 153.579 146.845 153.863C146.277 154.147 147.413 154.716 147.555 154.716C147.697 154.716 147.84 154.432 147.84 154.005C147.84 153.863 148.124 153.295 148.55 153.437C148.976 153.579 150.261 155.142 150.681 154.574C151.114 154.005 150.83 153.295 150.972 153.01C150.972 152.868 151.114 152.726 151.256 152.726C151.682 153.437 151.966 154.005 152.535 154.574L146.703 160.408C144.234 157.817 142.598 154.545 142.008 151.014ZM146.561 130.669L140.877 124.841C146.248 119.894 153.203 117.019 160.498 116.733V124.983C155.376 125.125 150.546 127.115 146.561 130.669ZM139.166 123.129L133.341 117.301C140.711 110.348 150.378 106.347 160.504 106.06V114.31C152.56 114.563 144.978 117.698 139.172 123.129M137.467 124.699C132.062 130.522 128.933 138.097 128.652 146.039H120.392C120.679 135.909 124.679 126.238 131.629 118.865L137.467 124.699ZM128.645 148.313C128.645 149.877 128.787 151.298 129.072 152.868C128.929 152.868 128.929 152.435 128.503 152.577C128.077 152.72 126.508 155.42 125.797 156.564C125.229 157.559 126.081 159.691 125.229 160.408C124.405 160.687 123.541 160.831 122.671 160.834H122.529C121.142 156.898 120.373 152.77 120.249 148.598L128.645 148.313ZM160.356 198.959C147.44 198.695 135.101 193.563 125.804 184.591L131.629 178.757C139.408 186.142 149.636 190.397 160.356 190.709V198.959ZM160.356 188.428C150.229 188.141 140.562 184.14 133.192 177.187L134.187 176.198C134.403 176.371 134.642 176.515 134.897 176.624C135.513 176.935 136.214 177.035 136.893 176.909C137.461 176.767 138.598 175.772 139.308 175.772C140.018 175.772 141.155 176.056 141.866 175.629C142.576 175.203 141.439 173.775 141.013 173.065C140.871 172.922 140.871 172.78 140.729 172.638C146.311 177.352 153.337 180.012 160.64 180.178L160.356 188.428ZM160.356 177.762C153.058 177.477 146.101 174.602 140.729 169.653L146.561 163.819C149.267 166.235 152.535 168.083 156.229 168.943C154.95 169.511 154.382 170.364 154.524 171.075C154.666 171.785 153.671 172.212 153.671 173.065C153.671 173.917 154.808 174.486 154.95 175.345C155.092 175.772 156.087 176.482 156.946 177.051C158.083 177.335 159.219 177.477 160.214 177.335L160.356 177.762ZM160.072 166.378C159.645 166.093 159.361 166.662 158.793 166.946C154.893 166.38 151.238 164.703 148.266 162.114L154.098 156.279C155.945 157.701 158.082 158.696 160.356 158.838C160.356 159.122 160.64 159.406 160.64 159.981C160.64 160.556 160.214 160.834 160.356 161.119C160.498 161.403 161.777 161.119 161.919 160.692C162.061 160.266 161.493 159.981 161.35 159.549C161.208 159.264 161.208 159.122 161.066 158.838H161.499C161.925 158.838 162.351 158.838 162.778 158.696C162.852 158.691 162.921 158.66 162.974 158.607C163.026 158.555 163.057 158.485 163.062 158.411C163.062 158.269 163.204 158.127 163.204 157.985C163.204 157.843 163.346 157.843 163.346 157.701L163.488 157.843C163.63 158.127 163.921 158.98 164.199 158.838C164.476 158.696 164.631 157.417 164.489 157.132C164.351 156.948 164.276 156.723 164.276 156.493C164.276 156.262 164.351 156.038 164.489 155.853C164.489 155.711 164.631 154.858 164.915 155C165.2 155.142 164.915 155.853 164.915 156.137C164.915 156.564 165.2 157.132 165.626 156.848C165.91 156.706 166.194 156.279 166.478 156.422C166.763 156.564 165.768 156.848 165.626 157.132C165.484 157.417 166.052 157.559 165.91 157.701C165.768 157.843 165.626 157.701 165.484 157.843C165.342 157.985 165.768 158.838 165.484 158.98C165.2 159.122 164.205 159.406 163.921 159.549C163.637 159.691 163.346 159.406 163.488 159.264C163.63 159.122 163.488 158.554 163.204 158.554C162.92 158.554 162.92 158.696 162.92 158.98C162.92 159.264 163.204 159.691 163.204 159.839C163.204 159.988 162.778 160.124 162.494 160.266C162.209 160.692 161.783 161.119 161.357 161.403C160.931 161.687 160.078 161.687 160.078 161.971C160.078 162.256 160.504 162.256 160.646 162.398C160.931 162.824 161.073 163.393 160.504 163.677C159.936 163.961 159.226 163.251 158.941 163.393C158.657 163.535 158.515 164.246 158.373 165.098C158.231 165.951 159.936 166.235 160.789 165.809C161.357 165.525 161.215 164.672 161.783 164.388C162.351 164.103 162.209 163.535 162.778 163.677C163.346 163.819 163.204 163.251 163.779 163.251C164.354 163.251 164.347 163.677 165.058 163.819C166.194 164.103 166.194 164.956 166.336 164.53C166.478 164.103 166.62 163.819 165.768 163.535C164.915 163.251 164.489 162.256 165.2 162.54C166.052 162.966 166.763 162.966 166.905 163.393C167.047 163.819 167.899 163.677 168.041 164.103C168.183 164.814 168.752 164.103 168.325 163.677C167.899 163.251 168.041 163.108 168.325 162.824C168.61 162.54 168.752 162.966 169.178 162.398C169.604 161.829 169.036 161.971 168.894 161.687C168.752 161.403 168.894 159.839 169.462 160.124C170.03 160.408 170.599 159.981 170.315 159.839C170.03 159.691 170.457 158.838 170.599 158.838C170.741 158.838 170.599 159.406 170.741 159.549C170.883 159.691 172.31 159.122 172.452 159.839C172.594 160.556 171.458 160.976 171.174 160.976C170.599 160.976 170.173 161.545 169.753 162.114C169.32 162.682 168.894 162.824 169.178 163.393C169.462 163.961 170.03 163.819 170.599 163.535C171.167 163.251 171.6 162.824 171.884 162.682C172.452 162.398 172.879 164.103 172.594 164.388C172.31 164.672 171.742 164.814 171.458 165.098C170.599 165.525 169.746 165.951 168.752 165.951C168.183 166.093 168.183 166.235 168.041 166.804C167.899 167.379 165.342 166.946 164.773 166.946C164.205 166.946 165.2 165.667 164.347 165.809L161.783 166.235C161.641 166.235 160.782 166.946 160.072 166.378ZM167.615 179.609C168.325 179.894 169.036 180.462 169.462 181.031C169.888 181.741 170.03 182.032 169.746 182.743C169.036 184.022 169.32 184.875 170.741 185.301C171.6 185.586 171.884 186.438 172.452 187.007C169.29 187.838 166.045 188.315 162.778 188.428V180.178C164.347 180.036 166.052 179.894 167.621 179.609M162.778 177.904V176.909C164.631 176.624 164.199 177.762 165.484 177.335C165.681 177.271 165.892 177.264 166.093 177.314C166.294 177.364 166.477 177.47 166.62 177.619C165.335 177.643 164.052 177.738 162.778 177.904ZM162.778 199.102V190.703C167.087 190.581 171.354 189.815 175.436 188.428C175.578 188.577 175.72 188.577 175.862 188.577C176.427 188.538 176.969 188.338 177.425 188.002C178.794 187.463 180.086 186.746 181.268 185.87C185.015 183.963 188.464 181.519 191.505 178.614L197.336 184.448C188.095 193.558 175.72 198.675 162.784 199.102M185.821 124.699L187.81 122.703C188.328 123.293 189.028 123.693 189.8 123.84C190.51 123.988 190.794 124.273 190.936 124.983C191.078 125.694 191.789 125.978 192.506 126.12C193.222 126.263 193.642 127.115 194.211 127.115C194.779 127.115 196.626 129.674 197.336 130.527C197.763 130.953 198.331 131.67 198.757 131.102C199.184 130.527 199.184 130.669 199.468 130.527C201.635 135.42 202.843 140.684 203.026 146.033H194.779C194.779 144.185 194.495 142.337 194.068 140.489C194.359 139.917 194.505 139.283 194.495 138.641C194.495 138.066 193.926 137.782 193.5 138.209C193.207 137.137 192.827 136.091 192.363 135.082C192.215 134.513 192.073 133.802 191.931 133.234C191.931 133.092 191.647 132.949 191.362 132.665C191.078 132.097 190.936 131.67 190.652 131.244C191.078 130.953 191.22 130.242 190.652 130.385C189.8 130.527 190.368 129.958 190.084 129.674C189.8 129.39 189.8 129.674 189.657 129.816C188.552 128.113 187.317 126.497 185.963 124.983V124.841C185.679 124.841 185.679 124.699 185.821 124.699ZM190.794 172.922C190.51 172.354 190.368 171.643 190.084 171.075C189.942 170.506 188.805 170.506 188.805 170.79C188.805 171.359 188.805 171.927 188.663 172.496V172.638L185.679 169.653C191.085 163.83 194.214 156.255 194.495 148.313H202.742C202.48 158.407 198.475 168.042 191.505 175.345L191.078 174.919C191.187 174.24 191.088 173.544 190.794 172.922ZM183.968 178.614C184.394 177.904 185.253 176.624 185.679 175.914C186.105 175.203 184.536 174.208 183.683 173.917C182.831 173.627 182.831 173.207 182.831 172.496C183.257 172.212 183.683 171.785 184.11 171.359L189.942 177.193C188.017 179.005 185.921 180.625 183.683 182.032C183.541 181.748 184.536 180.746 184.82 180.32C185.104 179.894 183.683 179.325 183.968 178.614ZM187.52 144.611C186.809 143.616 187.81 143.474 188.805 143.048C189.373 142.763 190.084 143.19 190.084 142.906C190.084 142.621 190.368 142.053 190.652 141.911C190.936 141.768 191.362 141.484 191.505 141.2C191.505 141.484 191.647 141.768 191.647 142.053C191.375 142.529 191.228 143.067 191.22 143.616C191.22 144.043 191.22 144.611 191.647 143.616C191.647 143.474 191.789 143.474 191.789 143.332C192.073 144.327 192.073 145.18 192.073 146.039H185.963V145.897C186.39 145.186 187.952 145.322 187.526 144.611M188.663 132.949C188.663 132.949 188.663 133.092 188.521 133.092C188.379 133.234 187.668 132.097 187.668 132.949C187.668 133.802 187.952 134.087 188.521 134.229C189.089 134.371 188.805 134.655 189.231 134.797C189.373 134.797 189.657 134.939 189.8 135.082C190.51 136.645 190.936 138.209 191.362 139.921C191.149 140.027 190.956 140.172 190.794 140.347C190.51 140.631 190.652 141.2 190.368 141.626C189.942 142.337 189.8 142.763 188.663 142.479C187.952 142.195 188.521 141.342 188.663 140.631C188.805 139.921 189.089 140.063 189.089 139.636C189.089 139.21 187.668 137.64 186.958 138.215C186.247 138.784 186.389 139.352 185.821 139.921C185.537 140.205 185.253 140.205 184.82 139.921C184.387 139.636 184.252 139.352 184.394 139.068C184.536 138.784 183.399 137.498 182.973 136.936C182.702 136.589 182.358 136.306 181.965 136.108C181.572 135.91 181.14 135.803 180.7 135.792C179.927 134.471 179.02 133.233 177.994 132.097L183.826 126.263C185.821 128.395 187.378 130.527 188.663 132.949ZM178.846 136.929L178.568 137.356C178.426 137.64 177.709 137.071 177.567 137.214C177.425 137.356 178.568 138.784 177.425 138.357C176.289 137.924 176.999 137.924 176.999 137.498C176.999 137.071 176.004 136.787 176.573 136.503C177.141 136.219 176.573 135.792 177.141 135.65C177.709 135.508 177.567 134.939 176.857 134.797C176.147 134.655 176.289 136.361 175.862 136.077C175.436 135.934 175.01 135.934 174.584 135.934L176.573 133.944C176.791 134.059 177.038 134.108 177.283 134.087C177.567 135.224 178.284 136.077 178.853 136.929M176.573 165.809C177.425 165.951 178.426 166.093 179.279 166.378C179.847 166.662 180.273 167.237 180.7 166.52C181.552 165.241 182.121 163.819 182.405 162.256C182.689 160.124 182.263 159.413 181.978 159.413C181.694 159.413 181.126 159.981 180.558 159.981C180.273 159.981 180.273 160.55 180.273 160.976C180.273 161.403 179.705 161.829 179.563 161.545C179.421 161.261 179.137 161.403 179.279 161.687C179.421 161.971 178.142 161.829 177.567 161.545C176.715 161.119 178.568 161.119 179.421 160.408C180.131 159.839 180.842 159.122 181.552 158.411C181.978 157.701 181.978 156.848 182.689 156.279C183.399 155.711 184.536 155.853 184.678 155C184.82 154.147 184.962 154.289 185.388 154.432C185.815 154.574 189.8 154.289 189.8 153.01C189.8 152.435 188.947 151.725 188.095 151.589C187.526 151.589 187.384 150.445 187.1 149.877C186.822 149.279 186.489 148.707 186.105 148.171H192.073C191.788 155.471 188.915 162.432 183.968 167.805L183.826 167.663V167.095C183.968 165.951 183.115 164.103 182.831 164.388C182.547 164.672 182.831 164.672 181.978 165.951C181.694 166.378 181.268 167.095 180.7 167.095C180.131 167.095 180.131 166.804 179.279 166.946C178.526 167.089 177.752 167.089 176.999 166.946C175.643 166.506 174.352 165.885 173.163 165.098C173.305 164.956 173.731 165.241 173.731 164.814C173.731 164.388 176.004 165.667 176.573 165.809ZM198.899 183.027L193.074 177.193C200.456 169.411 204.71 159.179 205.022 148.455H213.405C213.126 161.4 207.941 173.756 198.899 183.021M213.405 146.039H205.015C204.885 139.921 203.431 133.903 200.753 128.401L200.895 128.252C201.463 127.684 198.189 123.413 197.621 122.987C197.052 122.561 196.484 121.85 195.773 121.139C194.616 120.01 193.569 118.772 192.648 117.444L198.757 111.325C207.899 120.596 213.141 133.019 213.405 146.039ZM162.778 95.3865C175.733 95.677 188.111 100.805 197.478 109.762L191.795 115.447C191.505 115.305 191.22 115.163 191.362 114.879C191.647 114.452 190.936 114.452 190.794 113.315C190.468 112.169 189.702 111.198 188.663 110.615C187.952 110.188 187.526 109.62 186.816 109.329C186.105 109.045 184.684 108.192 183.974 108.476C183.517 108.639 183.038 108.734 182.553 108.76C176.505 105.525 169.777 103.772 162.92 103.643L162.778 95.3865ZM162.778 106.06C168.894 106.202 174.726 107.765 180.273 110.472C180.443 111.404 180.833 112.281 181.41 113.031C181.694 113.742 182.121 114.31 182.547 115.021C182.973 115.447 182.689 116.3 182.831 117.017C182.831 117.301 183.115 117.586 183.257 117.87V119.007C183.257 119.149 183.826 119.149 184.252 118.865C184.678 118.581 184.962 118.012 185.537 118.154C186.112 118.296 186.816 119.434 187.242 120.144L184.536 122.845C184.252 122.276 183.968 121.566 184.11 121.566C184.252 121.566 184.536 121.708 184.678 121.708C185.253 121.708 184.252 121.281 184.252 121.139C183.826 120.713 183.826 120.144 183.257 119.718C182.689 119.291 181.836 119.576 181.552 119.007C180.994 117.994 180.217 117.118 179.279 116.442C179.137 116.442 180.416 118.012 179.989 118.296C179.563 118.581 177.994 117.301 177.858 117.586C177.709 117.87 179.563 118.581 180.131 119.149C180.416 119.434 180.984 120.286 181.552 120.997C176.13 116.891 169.574 114.556 162.778 114.31V106.06ZM162.778 116.591C170.077 116.874 177.038 119.749 182.411 124.699L176.573 130.527C172.751 127.123 167.887 125.119 162.778 124.841V116.591ZM162.778 127.258C167.257 127.486 171.524 129.241 174.868 132.232L174.584 132.523L174.299 132.381C173.589 132.097 172.168 133.518 172.452 133.66C172.737 133.802 173.305 133.092 173.589 133.234H173.731L171.316 135.792C170.605 136.077 169.895 136.645 169.895 137.071V137.214L169.036 138.066L168.61 137.64C167.936 137.079 167.165 136.645 166.336 136.361C166.763 136.077 166.905 135.65 167.047 135.082C167.047 134.229 166.763 134.513 166.336 134.939C165.91 135.366 165.484 135.508 165.2 135.934C164.472 135.655 163.699 135.511 162.92 135.508V127.258H162.778ZM161.783 137.789C161.925 138.066 161.783 138.357 161.641 138.499C161.357 138.784 160.504 137.789 160.362 138.641C160.078 139.494 160.931 139.068 160.931 139.21C161.349 139.75 161.96 140.107 162.636 140.205C163.204 140.205 164.056 140.205 164.056 140.774C164.056 141.058 164.767 141.058 164.915 141.342C164.915 141.768 165.342 142.479 165.626 142.337C165.91 142.195 166.336 142.479 166.478 142.763C166.62 143.048 166.478 143.19 166.336 143.474C165.91 143.901 166.763 143.758 166.905 144.611C167.047 145.464 166.194 144.896 166.052 145.471C165.768 145.897 165.484 146.181 165.2 146.608C165.058 146.75 165.342 147.034 165.484 146.892C165.626 146.75 165.91 146.323 166.336 146.323C166.763 146.323 167.189 147.887 167.615 148.029C168.041 148.171 167.899 148.74 168.041 148.882C168.183 149.024 167.331 148.882 167.473 149.166C167.615 149.45 168.468 149.592 168.468 150.019C168.325 150.445 168.041 150.872 167.473 150.872C167.047 150.872 166.336 149.877 166.336 150.161C166.336 150.445 166.62 151.298 167.047 151.298C167.473 151.298 168.468 150.872 168.041 151.44C167.615 152.009 167.757 152.862 167.473 152.862C167.189 152.862 167.047 152.862 167.331 153.295C167.473 153.721 167.331 154.147 167.047 154.574C166.763 154.858 166.052 154.574 166.052 154.432C166.052 154.289 166.905 154.289 166.905 153.863C166.905 153.437 166.478 153.295 165.626 153.579C165.2 153.721 165.058 153.437 164.773 153.437C164.489 153.437 163.637 154.432 163.637 154.574V155.284C163.646 155.792 163.495 156.29 163.204 156.706C162.636 156.848 162.209 156.848 161.641 156.848C159.368 156.848 157.094 155.853 155.383 154.432C155.738 154.253 156.129 154.156 156.526 154.147C156.952 154.289 157.094 154.005 157.379 153.863C157.663 153.721 158.373 154.147 158.799 153.863C159.226 153.579 160.22 151.731 160.078 151.298C159.936 150.865 161.073 150.161 160.931 150.019C160.789 149.877 160.646 150.161 160.646 150.019C160.646 149.877 160.931 149.877 160.646 149.308C160.362 148.74 159.936 149.024 159.652 149.024C159.226 148.74 158.515 148.598 158.373 148.74C158.231 148.882 157.805 148.455 157.663 148.598C157.521 148.598 157.236 148.74 157.236 149.024C157.094 149.308 157.379 149.592 157.379 149.877C157.236 150.445 156.377 150.872 156.377 151.298C156.377 151.725 155.951 151.44 155.809 151.582C155.667 151.725 155.809 152.009 155.525 152.009C155.241 152.009 154.815 152.72 154.53 153.295C154.104 152.726 153.678 152.009 153.252 151.44C153.536 151.298 153.82 151.156 153.962 151.298C154.388 151.582 156.093 148.598 155.809 147.745C155.525 146.892 155.099 147.46 154.672 147.603C154.246 147.745 154.246 147.318 154.388 147.176C154.53 147.034 156.377 147.034 155.383 146.465C154.957 146.181 153.82 146.181 153.962 145.755C154.104 145.328 154.672 145.755 154.815 145.755C155.525 146.039 155.951 144.611 156.377 144.611C157.088 144.611 156.81 143.19 156.093 143.616C155.376 144.043 155.099 143.901 154.815 144.327C154.53 144.753 153.82 145.322 153.82 144.753C153.82 144.469 155.383 143.616 155.667 143.19C155.984 142.867 156.226 142.479 156.377 142.053C156.526 141.626 158.509 141.342 158.941 141.058C159.226 140.774 159.51 140.347 159.51 139.921C159.51 139.494 158.941 139.636 158.799 139.352C158.657 139.068 159.51 139.352 159.51 138.926C159.51 138.499 158.799 138.926 158.515 138.641C158.515 138.499 158.515 138.499 158.657 138.357C159.936 137.924 160.789 137.782 161.783 137.782H162.067M160.504 95.3929V103.643C149.785 103.955 139.556 108.211 131.778 115.596L125.946 109.762C135.244 100.788 147.587 95.6561 160.504 95.3929ZM124.092 111.467L129.924 117.301C122.542 125.083 118.287 135.315 117.976 146.039H109.729C110.122 133.144 115.233 120.842 124.092 111.467Z" fill="#307CED"/>
<defs>
<filter id="filter0_d_2853_28" x="0.868164" y="0" width="321" height="300" filterUnits="userSpaceOnUse" color-interpolation-filters="sRGB">
<feFlood flood-opacity="0" result="BackgroundImageFix"/>
<feColorMatrix in="SourceAlpha" type="matrix" values="0 0 0 0 0 0 0 0 0 0 0 0 0 0 0 0 0 0 127 0" result="hardAlpha"/>
<feOffset/>
<feGaussianBlur stdDeviation="12.5"/>
<feComposite in2="hardAlpha" operator="out"/>
<feColorMatrix type="matrix" values="0 0 0 0 0 0 0 0 0 0 0 0 0 0 0 0 0 0 0.25 0"/>
<feBlend mode="normal" in2="BackgroundImageFix" result="effect1_dropShadow_2853_28"/>
<feBlend mode="normal" in="SourceGraphic" in2="effect1_dropShadow_2853_28" result="shape"/>
</filter>
</defs>
</svg>
