<svg width="322" height="301" viewBox="0 0 322 301" fill="none" xmlns="http://www.w3.org/2000/svg">
<g filter="url(#filter0_d_1435_437)">
<rect x="25.5854" y="25.0864" width="271" height="250" rx="15" fill="white"/>
</g>
<path d="M133.492 177.68C131.673 177.68 129.895 178.219 128.382 179.23C126.87 180.24 125.691 181.677 124.995 183.358C124.298 185.038 124.116 186.888 124.471 188.672C124.826 190.456 125.702 192.095 126.988 193.381C128.275 194.668 129.914 195.544 131.698 195.898C133.482 196.253 135.331 196.071 137.012 195.375C138.693 194.679 140.129 193.5 141.14 191.987C142.15 190.475 142.69 188.697 142.69 186.877C142.69 184.438 141.721 182.099 139.996 180.374C138.271 178.649 135.932 177.68 133.492 177.68ZM69.108 168.482C66.6686 168.482 64.3291 169.451 62.6042 171.176C60.8793 172.901 59.9103 175.24 59.9103 177.68V196.075C59.9103 198.515 60.8793 200.854 62.6042 202.579C64.3291 204.304 66.6686 205.273 69.108 205.273C71.5474 205.273 73.8869 204.304 75.6118 202.579C77.3367 200.854 78.3058 198.515 78.3058 196.075V177.68C78.3058 175.24 77.3367 172.901 75.6118 171.176C73.8869 169.451 71.5474 168.482 69.108 168.482ZM253.063 168.482C250.623 168.482 248.284 169.451 246.559 171.176C244.834 172.901 243.865 175.24 243.865 177.68V196.075C243.865 198.515 244.834 200.854 246.559 202.579C248.284 204.304 250.623 205.273 253.063 205.273C255.502 205.273 257.842 204.304 259.567 202.579C261.292 200.854 262.261 198.515 262.261 196.075V177.68C262.261 175.24 261.292 172.901 259.567 171.176C257.842 169.451 255.502 168.482 253.063 168.482ZM207.074 104.098H170.283V92.3246C173.063 90.7195 175.375 88.4148 176.989 85.6394C178.602 82.8641 179.462 79.7148 179.481 76.5045C179.481 71.6257 177.543 66.9468 174.093 63.4969C170.643 60.0471 165.964 58.109 161.085 58.109C156.207 58.109 151.528 60.0471 148.078 63.4969C144.628 66.9468 142.69 71.6257 142.69 76.5045C142.709 79.7148 143.568 82.8641 145.182 85.6394C146.796 88.4148 149.107 90.7195 151.888 92.3246V104.098H115.097C107.779 104.098 100.76 107.005 95.5854 112.18C90.4106 117.354 87.5035 124.373 87.5035 131.691V214.471C87.5035 221.789 90.4106 228.807 95.5854 233.982C100.76 239.157 107.779 242.064 115.097 242.064H207.074C214.392 242.064 221.411 239.157 226.585 233.982C231.76 228.807 234.667 221.789 234.667 214.471V131.691C234.667 124.373 231.76 117.354 226.585 112.18C221.411 107.005 214.392 104.098 207.074 104.098ZM176.906 122.493L172.307 140.889H149.864L145.265 122.493H176.906ZM216.272 214.471C216.272 216.91 215.303 219.249 213.578 220.974C211.853 222.699 209.514 223.668 207.074 223.668H115.097C112.657 223.668 110.318 222.699 108.593 220.974C106.868 219.249 105.899 216.91 105.899 214.471V131.691C105.899 129.252 106.868 126.912 108.593 125.187C110.318 123.462 112.657 122.493 115.097 122.493H126.318L133.492 152.294C133.996 154.335 135.183 156.141 136.857 157.413C138.53 158.685 140.589 159.345 142.69 159.284H179.481C181.582 159.345 183.641 158.685 185.314 157.413C186.988 156.141 188.175 154.335 188.679 152.294L195.853 122.493H207.074C209.514 122.493 211.853 123.462 213.578 125.187C215.303 126.912 216.272 129.252 216.272 131.691V214.471ZM188.679 177.68C186.859 177.68 185.081 178.219 183.569 179.23C182.056 180.24 180.877 181.677 180.181 183.358C179.485 185.038 179.303 186.888 179.658 188.672C180.013 190.456 180.889 192.095 182.175 193.381C183.461 194.668 185.1 195.544 186.884 195.898C188.668 196.253 190.518 196.071 192.198 195.375C193.879 194.679 195.316 193.5 196.326 191.987C197.337 190.475 197.876 188.697 197.876 186.877C197.876 184.438 196.907 182.099 195.182 180.374C193.458 178.649 191.118 177.68 188.679 177.68Z" fill="#8D24DF"/>
<defs>
<filter id="filter0_d_1435_437" x="0.585449" y="0.0864258" width="321" height="300" filterUnits="userSpaceOnUse" color-interpolation-filters="sRGB">
<feFlood flood-opacity="0" result="BackgroundImageFix"/>
<feColorMatrix in="SourceAlpha" type="matrix" values="0 0 0 0 0 0 0 0 0 0 0 0 0 0 0 0 0 0 127 0" result="hardAlpha"/>
<feOffset/>
<feGaussianBlur stdDeviation="12.5"/>
<feComposite in2="hardAlpha" operator="out"/>
<feColorMatrix type="matrix" values="0 0 0 0 0 0 0 0 0 0 0 0 0 0 0 0 0 0 0.25 0"/>
<feBlend mode="normal" in2="BackgroundImageFix" result="effect1_dropShadow_1435_437"/>
<feBlend mode="normal" in="SourceGraphic" in2="effect1_dropShadow_1435_437" result="shape"/>
</filter>
</defs>
</svg>
