<svg width="322" height="301" viewBox="0 0 322 301" fill="none" xmlns="http://www.w3.org/2000/svg">
<g filter="url(#filter0_d_2512_107)">
<rect x="25.5854" y="25.4186" width="271" height="250" rx="15" fill="white"/>
</g>
<path d="M144.718 159.961V64.533H163.804V159.961H144.718ZM154.261 236.304C142.492 236.304 131.396 234.036 120.976 229.5C110.555 224.964 101.451 218.803 93.664 211.016C85.8707 203.222 79.706 194.115 75.17 183.694C70.634 173.274 68.3691 162.182 68.3755 150.419C68.3755 137.695 70.9998 125.687 76.2483 114.394C81.4969 103.102 88.8926 93.3205 98.4355 85.0501L111.795 98.4101C104.161 104.772 98.1969 112.486 93.9026 121.551C89.6083 130.617 87.4612 140.24 87.4612 150.419C87.4612 168.868 93.9821 184.614 107.024 197.656C120.066 210.698 135.812 217.218 154.261 217.218C172.87 217.218 188.657 210.698 201.622 197.656C214.588 184.614 221.067 168.868 221.061 150.419C221.061 140.24 218.952 130.617 214.734 121.551C210.516 112.486 204.514 104.772 196.727 98.4101L210.087 85.0501C219.63 93.3205 227.025 103.102 232.274 114.394C237.522 125.687 240.147 137.695 240.147 150.419C240.147 162.188 237.879 173.283 233.343 183.704C228.807 194.125 222.683 203.229 214.973 211.016C207.262 218.809 198.196 224.974 187.776 229.51C177.355 234.046 166.183 236.311 154.261 236.304Z" fill="#307CED"/>
<defs>
<filter id="filter0_d_2512_107" x="0.585449" y="0.418579" width="321" height="300" filterUnits="userSpaceOnUse" color-interpolation-filters="sRGB">
<feFlood flood-opacity="0" result="BackgroundImageFix"/>
<feColorMatrix in="SourceAlpha" type="matrix" values="0 0 0 0 0 0 0 0 0 0 0 0 0 0 0 0 0 0 127 0" result="hardAlpha"/>
<feOffset/>
<feGaussianBlur stdDeviation="12.5"/>
<feComposite in2="hardAlpha" operator="out"/>
<feColorMatrix type="matrix" values="0 0 0 0 0 0 0 0 0 0 0 0 0 0 0 0 0 0 0.25 0"/>
<feBlend mode="normal" in2="BackgroundImageFix" result="effect1_dropShadow_2512_107"/>
<feBlend mode="normal" in="SourceGraphic" in2="effect1_dropShadow_2512_107" result="shape"/>
</filter>
</defs>
</svg>
