<svg width="56" height="55" viewBox="0 0 56 55" fill="none" xmlns="http://www.w3.org/2000/svg">
<path d="M12.6165 0L11.1594 1.52278L1.82789 10.8543L0.305115 12.3114L15.5286 27.5328L4.9391 38.1224L4.80567 38.7853L2.48868 50.4338L1.82789 53.5429L4.9391 52.8821L16.5876 50.5651L17.2484 50.4317L27.8379 39.8421L42.9937 55L44.4508 53.4772L53.7823 44.1457L55.3051 42.6886L40.1472 27.5328L50.6055 17.0746C51.4157 16.2674 52.0585 15.3083 52.4972 14.2521C52.9358 13.1959 53.1616 12.0636 53.1616 10.9199C53.1616 9.77631 52.9358 8.64394 52.4972 7.58777C52.0585 6.53161 51.4157 5.57244 50.6055 4.7653C49.7999 3.95123 48.8415 3.30414 47.7854 2.86112C46.7293 2.4181 45.5961 2.18785 44.4508 2.18357C43.3052 2.18757 42.1716 2.41768 41.1151 2.86072C40.0586 3.30375 39.0999 3.95098 38.2941 4.7653L27.8379 15.2235L12.6165 0ZM12.6165 6.02334L16.7189 10.1914L13.6077 13.3047L16.6533 16.3481L19.7645 13.2369L24.7924 18.267L18.5064 24.555L6.2628 12.3114L12.6165 6.02334ZM44.4487 6.28807C45.55 6.28807 46.6683 6.78367 47.6256 7.74308C49.538 9.65555 49.538 12.1208 47.6256 14.0312L46.2383 15.4205L39.9482 9.13243L41.3396 7.74308C42.299 6.78367 43.3516 6.28807 44.4508 6.28807H44.4487ZM36.9725 12.1123L43.2584 18.4004L17.6466 44.0102C16.2447 41.3189 14.0486 39.1243 11.3564 37.7242L36.9725 12.1123ZM37.1695 30.5106L42.1995 35.5406L39.0226 38.7175L42.0682 41.7631L45.245 38.5862L49.2818 42.6229L42.928 48.9767L30.8157 36.8643L37.1695 30.5106ZM8.64544 41.1002C11.1848 42.1673 13.2044 44.1877 14.2706 46.7274L7.25398 48.1168L8.64544 41.1002Z" fill="#8D24DF"/>
</svg>
