<svg width="56" height="55" viewBox="0 0 56 55" fill="none" xmlns="http://www.w3.org/2000/svg">
<path d="M12.6387 0L11.1816 1.52278L1.85005 10.8543L0.327271 12.3114L15.5508 27.5328L4.96126 38.1224L4.82783 38.7853L2.51084 50.4338L1.85005 53.5429L4.96126 52.8821L16.6098 50.5651L17.2705 50.4317L27.8601 39.8421L43.0159 55L44.473 53.4772L53.8045 44.1457L55.3273 42.6886L40.1694 27.5328L50.6276 17.0746C51.4378 16.2674 52.0807 15.3083 52.5193 14.2521C52.9579 13.1959 53.1837 12.0636 53.1837 10.9199C53.1837 9.77631 52.9579 8.64394 52.5193 7.58777C52.0807 6.53161 51.4378 5.57244 50.6276 4.7653C49.822 3.95123 48.8637 3.30414 47.8076 2.86112C46.7514 2.4181 45.6183 2.18785 44.473 2.18357C43.3273 2.18757 42.1938 2.41768 41.1372 2.86072C40.0807 3.30375 39.1221 3.95098 38.3162 4.7653L27.8601 15.2235L12.6387 0ZM12.6387 6.02334L16.7411 10.1914L13.6299 13.3047L16.6754 16.3481L19.7866 13.2369L24.8145 18.267L18.5286 24.555L6.28495 12.3114L12.6387 6.02334ZM44.4709 6.28807C45.5722 6.28807 46.6904 6.78367 47.6477 7.74308C49.5602 9.65555 49.5602 12.1208 47.6477 14.0312L46.2605 15.4205L39.9703 9.13243L41.3618 7.74308C42.3212 6.78367 43.3738 6.28807 44.473 6.28807H44.4709ZM36.9946 12.1123L43.2806 18.4004L17.6687 44.0102C16.2668 41.3189 14.0707 39.1243 11.3785 37.7242L36.9946 12.1123ZM37.1916 30.5106L42.2216 35.5406L39.0448 38.7175L42.0903 41.7631L45.2672 38.5862L49.3039 42.6229L42.9502 48.9767L30.8379 36.8643L37.1916 30.5106ZM8.6676 41.1002C11.2069 42.1673 13.2266 44.1877 14.2928 46.7274L7.27613 48.1168L8.6676 41.1002Z" fill="white"/>
</svg>
