<svg width="71" height="70" viewBox="0 0 71 70" fill="none" xmlns="http://www.w3.org/2000/svg">
<path d="M15.7989 0L13.9444 1.93808L2.06796 13.8145L0.129883 15.6691L19.5053 35.0418L6.02768 48.5194L5.85787 49.3631L2.90897 64.1885L2.06796 68.1455L6.02768 67.3045L20.8531 64.3556L21.6941 64.1858L35.1717 50.7082L54.4608 70L56.3153 68.0619L68.1918 56.1855L70.1299 54.3309L50.838 35.0418L64.1485 21.7313C65.1797 20.704 65.9978 19.4833 66.5561 18.1391C67.1144 16.7948 67.4018 15.3536 67.4018 13.8981C67.4018 12.4426 67.1144 11.0014 66.5561 9.65717C65.9978 8.31296 65.1797 7.0922 64.1485 6.06492C63.1232 5.02884 61.9035 4.20528 60.5594 3.64143C59.2152 3.07758 57.773 2.78453 56.3153 2.77908C54.8573 2.78418 53.4145 3.07705 52.0699 3.64091C50.7252 4.20477 49.5051 5.02852 48.4795 6.06492L35.1717 19.3754L15.7989 0ZM15.7989 7.66606L21.0202 12.9708L17.0605 16.9333L20.9366 20.8067L24.8963 16.847L31.2955 23.2489L23.2952 31.2519L7.71239 15.6691L15.7989 7.66606ZM56.3126 8.003C57.7143 8.003 59.1375 8.63376 60.3559 9.85483C62.79 12.2889 62.79 15.4265 60.3559 17.8578L58.5904 19.6261L50.5847 11.6231L52.3556 9.85483C53.5767 8.63376 54.9164 8.003 56.3153 8.003H56.3126ZM46.7974 15.4157L54.7978 23.4187L22.2008 56.0129C20.4166 52.5877 17.6215 49.7945 14.1951 48.0126L46.7974 15.4157ZM47.0481 38.8317L53.45 45.2335L49.4067 49.2768L53.2829 53.153L57.3262 49.1097L62.4638 54.2474L54.3773 62.3339L38.9616 46.9183L47.0481 38.8317ZM10.7448 52.3093C13.9767 53.6675 16.5472 56.2389 17.9042 59.4713L8.97389 61.2396L10.7448 52.3093Z" fill="#263140"/>
</svg>
