<svg width="48" height="53" viewBox="0 0 48 53" fill="none" xmlns="http://www.w3.org/2000/svg">
<path d="M21.2236 52.2784L2.89137 41.7373C2.06205 41.2572 1.4178 40.6243 0.958622 39.8386C0.499442 39.053 0.270725 38.18 0.272471 37.2197V16.3995C0.272471 15.4392 0.502061 14.5663 0.96124 13.7806C1.42042 12.9949 2.0638 12.362 2.89137 11.8819L21.2236 1.34086C22.053 0.860732 22.9259 0.620667 23.8425 0.620667C24.7591 0.620667 25.6321 0.860732 26.4614 1.34086L44.7937 11.8819C45.623 12.362 46.2673 12.9949 46.7264 13.7806C47.1856 14.5663 47.4143 15.4392 47.4126 16.3995V37.2197C47.4126 38.18 47.183 39.053 46.7238 39.8386C46.2646 40.6243 45.6213 41.2572 44.7937 41.7373L26.4614 52.2784C25.6321 52.7585 24.7591 52.9986 23.8425 52.9986C22.9259 52.9986 22.053 52.7585 21.2236 52.2784ZM21.2236 28.3155V46.2549L23.8425 47.7608L26.4614 46.2549V28.3155L42.1748 19.2148V16.465L39.3595 14.8282L23.8425 23.7979L8.32557 14.8282L5.51026 16.465V19.2148L21.2236 28.3155Z" fill="#E54642"/>
</svg>
