<svg width="43" height="43" viewBox="0 0 43 43" fill="none" xmlns="http://www.w3.org/2000/svg">
<path d="M18.8007 23.7113V0.251282H23.4927V23.7113H18.8007ZM21.1467 42.4793C18.2533 42.4793 15.5257 41.9217 12.9639 40.8066C10.402 39.6915 8.16396 38.1767 6.24962 36.2624C4.33372 34.3465 2.8182 32.1076 1.70307 29.5458C0.587938 26.984 0.0311541 24.2571 0.0327181 21.3653C0.0327181 18.2373 0.677869 15.2852 1.96817 12.5091C3.25847 9.73304 5.07662 7.32839 7.42262 5.29518L10.707 8.57959C8.83022 10.1436 7.36397 12.0399 6.30827 14.2686C5.25257 16.4973 4.72472 18.8629 4.72472 21.3653C4.72472 25.9009 6.32782 29.7718 9.53402 32.978C12.7402 36.1842 16.6111 37.7873 21.1467 37.7873C25.7214 37.7873 29.6025 36.1842 32.7899 32.978C35.9774 29.7718 37.5703 25.9009 37.5687 21.3653C37.5687 18.8629 37.0503 16.4973 36.0133 14.2686C34.9764 12.0399 33.5008 10.1436 31.5864 8.57959L34.8708 5.29518C37.2168 7.32839 39.035 9.73304 40.3253 12.5091C41.6156 15.2852 42.2607 18.2373 42.2607 21.3653C42.2607 24.2587 41.7032 26.9863 40.588 29.5481C39.4729 32.11 37.9676 34.3481 36.072 36.2624C34.1764 38.1783 31.9477 39.6938 29.3859 40.809C26.8241 41.9241 24.0777 42.4809 21.1467 42.4793Z" fill="#307CED"/>
</svg>
